<svg class="w-full h-full" xmlns="http://www.w3.org/2000/svg" viewBox="0 0 387.6 387.6" xml:space="preserve"><path style="fill:#ffda79" d="M128.3 131.4V165c0 18.4-15 33.3-33.4 33.3H70.1A33.3 33.3 0 0 1 36.7 165v-33.6c0-18.5 15-33.4 33.4-33.4h24.8c18.5 0 33.4 15 33.4 33.4z"/><path style="fill:#51b3da" d="M128.3 131.4v6.8h-18C88 138.2 70 120.2 70 98h24.8c18.5 0 33.4 15 33.4 33.4z"/><path style="fill:#51b3da" d="M70.3 98v4.4A37.4 37.4 0 0 1 36.7 138v-6.7c0-18 14.4-33.4 33.6-33.4z"/><path style="fill:#ff9392" d="m91.7 231.4 11.8 41.6-21 16.6-21-16.6 11.8-41.6L61.5 219c13-3.5 29.5-3.4 42 0l-11.8 12.4z"/><path style="fill:#51b3da" d="M82.5 289.6h-75a73.2 73.2 0 0 1 54-70.6l11.8 12.4L61.5 273l21 16.6zm0 0 21-16.6-11.8-41.6 11.8-12.4c31 8.3 54 36.7 54 70.6h-75z"/><path style="fill:#fff" d="M356.7 47.1v27c0 14.7-12 26.6-26.7 26.6h-19.9A26.7 26.7 0 0 1 283.5 74V47.1c0-14.7 12-26.7 26.6-26.7h20c14.7 0 26.6 12 26.6 26.7z"/><path style="fill:#51b3da" d="M356.7 47.1v5.5h-14.4a32.2 32.2 0 0 1-32.2-32.2h20c14.7 0 26.6 12 26.6 26.7z"/><path style="fill:#51b3da" d="M310.4 20.4V24a30 30 0 0 1-27 28.6V47a26.7 26.7 0 0 1 27-26.7z"/><path style="fill:#c7e9f4" d="m327.5 127.1 9.4 33.4-16.8 13.2-16.8-13.2 9.4-33.4-9.4-9.9a69.2 69.2 0 0 1 33.6 0l-9.4 10z"/><path style="fill:#51b3da" d="M320.1 173.7h-60c0-27 18.3-49.8 43.2-56.5l9.4 10-9.4 33.2 16.8 13.3zm0 0 16.8-13.2-9.4-33.4 9.4-9.9a58.5 58.5 0 0 1 43.2 56.5h-60z"/><path style="fill:#fff" d="M356.7 240.6v26.9c0 14.7-12 26.6-26.7 26.6h-19.9a26.7 26.7 0 0 1-26.6-26.6v-27c0-14.7 12-26.6 26.6-26.6h20c14.7 0 26.6 12 26.6 26.7z"/><path style="fill:#51b3da" d="M356.7 240.6v5.5h-14.4a32.2 32.2 0 0 1-32.2-32.2h20c14.7 0 26.6 12 26.6 26.7z"/><path style="fill:#51b3da" d="M310.4 213.9v3.5a30 30 0 0 1-27 28.5v-5.3a26.7 26.7 0 0 1 27-26.7z"/><path style="fill:#c7e9f4" d="m327.5 320.6 9.4 33.3-16.8 13.2-16.8-13.2 9.4-33.3-9.4-10a69.2 69.2 0 0 1 33.6 0l-9.4 10z"/><path style="fill:#51b3da" d="M320.1 367.1h-60c0-27 18.3-49.7 43.2-56.4l9.4 9.9-9.4 33.3 16.8 13.2zm0 0 16.8-13.2-9.4-33.3 9.4-10a58.5 58.5 0 0 1 43.2 56.5h-60z"/><path style="fill:#13829b" d="M70 205.8h25a40.9 40.9 0 0 0 40.8-40.8v-33.6a40.9 40.9 0 0 0-40.9-40.9H70.1a40.9 40.9 0 0 0-40.9 40.9V165c0 22.3 18 40.8 40.9 40.8zm50.8-75h-10.5a32.6 32.6 0 0 1-31.9-25.3c9 0 41.7-4.7 42.4 25.2zm-58.6-24c-2 9.7-8.7 17.9-17.8 21.7a26 26 0 0 1 17.8-21.8zm-18 37.5a45.2 45.2 0 0 0 26.6-19.4 47.6 47.6 0 0 0 39.5 20.8h10.5V165a25.9 25.9 0 0 1-25.9 25.8H70.1A25.9 25.9 0 0 1 44.2 165v-20.7zm61.2 67.4c-13.9-3.8-31.9-3.8-45.8 0A80.8 80.8 0 0 0 0 289.6c0 4.1 3.4 7.5 7.5 7.5h150c4.1 0 7.5-3.4 7.5-7.5a80.7 80.7 0 0 0-59.6-77.9zM57 279l4 3.2H15.4c2.9-25 20-46.4 43.9-54.6l5.6 6L54.3 271c-.8 2.9.2 6 2.6 8zm25.6 1.1-12.4-9.8 10.4-36.8c.7-2.6 0-5.3-1.8-7.2l-2-2.1a86 86 0 0 1 11.6 0l-2 2a7.5 7.5 0 0 0-1.8 7.3L95 270.3l-12.4 9.8zm21.6 2 4-3c2.4-2 3.4-5.1 2.6-8L100 233.4l5.6-6c24 8.3 41 29.7 43.9 54.7H104zm155.9-100.9h120c4.1 0 7.5-3.4 7.5-7.5a66 66 0 0 0-58.2-65.5A34.2 34.2 0 0 0 364.2 74V47.1A34.2 34.2 0 0 0 330 13h-19.9A34.2 34.2 0 0 0 276 47.1v27a34.2 34.2 0 0 0 34.8 34 66 66 0 0 0-58.2 65.6c0 4.1 3.4 7.5 7.5 7.5zm79-55.4a51.1 51.1 0 0 1 33 40.4h-30.4c5-4.2 2.5-7.4-5.9-37l3.3-3.4zM320 164l-8.2-6.4 8.2-29.2c0 .5 8 28.7 8.2 29.2L320 164zm-1.3-41.4h2.6c-.6.9-1.1 2-1.3 3a8 8 0 0 0-1.3-3zM349 45h-6.8c-11 0-20.3-7-23.5-17.2 7.6 0 28.2-2.9 30.3 17.2zm-47.4-15a22.6 22.6 0 0 1-10 12.1c1.6-5.5 5.3-9.8 10-12.1zm8.5 63.2A19.2 19.2 0 0 1 291 74V58.6c8-2.4 15-7.4 19.8-14A39.6 39.6 0 0 0 342.3 60h7v14c0 10.4-8.6 19-19.3 19h-19.9zm-9 32.6 3.3 3.4c-8.6 30.4-10.8 32.9-5.9 37h-30.4a51.1 51.1 0 0 1 33-40.4zm28.3 175.8a34.2 34.2 0 0 0 34.8-34.1v-27a34.2 34.2 0 0 0-34.2-34.1h-19.9a34.2 34.2 0 0 0-34.1 34.2v26.9a34.2 34.2 0 0 0 34.8 34.1 66 66 0 0 0-58.2 65.5c0 4.2 3.4 7.5 7.5 7.5h120c4.1 0 7.5-3.3 7.5-7.5a66 66 0 0 0-58.2-65.5zm-31 58h-30.3a51.1 51.1 0 0 1 33-40.4l3.3 3.4c-8.8 31-10.7 33-6 37zm50.7-121h-6.8c-11 0-20.3-7.1-23.5-17.2 7.2 0 28.2-3 30.3 17.2zm-47.5-15.2a22.6 22.6 0 0 1-10 12.2c1.6-5.5 5.3-9.8 10-12.2zm8.5 63.2a19.2 19.2 0 0 1-19.1-19.1V252c8-2.4 15-7.4 19.8-14a39.6 39.6 0 0 0 31.5 15.5h7v13.9c0 10.5-8.6 19.1-19.3 19.1h-19.9zm11.3 29.5c-.6 1-1.1 2-1.3 3a8 8 0 0 0-1.3-3h2.6zm-1.3 41.5-8.2-6.5L320 322c0 .5 8 28.6 8.2 29.1l-8.2 6.5zm21.6 2c5-4.2 2.1-8.6-5.9-37l3.3-3.4a51.1 51.1 0 0 1 33 40.4h-30.4zM229.3 88a7.5 7.5 0 1 0 0-15h-28a7.5 7.5 0 0 0-7.5 7.6v111h-20.5a7.5 7.5 0 1 0 0 15h20.5V307c0 4.2 3.4 7.5 7.5 7.5h28a7.5 7.5 0 1 0 0-15h-20.5V88.1h20.5z"/></svg>