<svg class="w-full h-full" xmlns="http://www.w3.org/2000/svg" viewBox="0 0 319.4 319.4" xml:space="preserve"><path style="fill:#51b3da" d="M311.9 133.2 166 223.1 20 133.2l146-89.9z"/><path style="fill:#51b3da" d="m166 223-91.1-56v60.3c0 11.9 40.8 21.5 91 21.5 50.4 0 91.1-9.6 91.1-21.5V167l-91 56z"/><path style="fill:#ffda79" d="M166 248.8c-50.3 0-91.1-9.6-91.1-21.5v27.4c0 11.8 40.8 21.4 91 21.4 50.4 0 91.1-9.6 91.1-21.4v-27.4c0 11.9-40.7 21.5-91 21.5z"/><path style="fill:#13829b" d="m315.8 126.8-146-89.9a7.5 7.5 0 0 0-7.8 0L16 126.8a7.6 7.6 0 0 0-3.5 6.4v98.6a20 20 0 1 0 15 0v-85.2l39.9 24.6v83.5c0 28.1 88.5 29 98.6 29 25.3 0 98.5-3.5 98.5-29v-83.5l51.3-31.6c4.8-3 4.8-9.9 0-12.8zM20 255.3a5 5 0 1 1 0-10 5 5 0 0 1 0 10zm229.5-1.2c-1.3 1.6-7.6 5.7-24.9 9.3-33.4 7-84 7-117.3 0-17.3-3.6-23.6-7.7-25-9.3v-10c34.7 15.8 130.3 16.5 167.2 0v10zm0-73.7v46.3c-9.5 12-67.6 14.6-83.5 14.6-24.7 0-75.1-3.9-83.6-14.6v-46.3l79.6 49a7.5 7.5 0 0 0 7.9 0l79.6-49zM166 214.3 34.3 133.2 166 52l131.6 81L166 214.4z"/><path style="fill:#13829b" d="M89.5 119.2a7.5 7.5 0 1 0 7.9 12.8l72.5-44.7a7.5 7.5 0 1 0-7.9-12.8l-72.5 44.7z"/></svg>