<svg class="w-full h-full" xmlns="http://www.w3.org/2000/svg" viewBox="0 0 392.66 392.66" xml:space="preserve"><path style="fill:#fff" d="M359.92 21.79H189.38a10.91 10.91 0 0 0-10.92 10.92v103.7c0 6 4.84 10.92 10.92 10.92h170.54c6.01 0 10.92-4.85 10.92-10.93V32.71c0-6.01-4.9-10.92-10.92-10.92z"/><path style="fill:#56ace0" d="M200.3 123.93v-78.8c0-.85.72-1.56 1.56-1.56H347.5c.84 0 1.55.71 1.55 1.55v78.8c0 .85-.71 1.56-1.55 1.56H201.86c-.84 0-1.55-.71-1.55-1.55z"/><path style="fill:#194f82" d="M328.44 117.6H263.6a10.91 10.91 0 0 1-10.93-10.93c0-6.01 4.85-10.93 10.93-10.93h64.84c6 0 10.92 4.85 10.92 10.93a10.95 10.95 0 0 1-10.92 10.92zm0-44.36h-99.56a10.91 10.91 0 0 1-10.93-10.92c0-6.01 4.85-10.93 10.93-10.93h99.56c6 0 10.92 4.85 10.92 10.93a10.95 10.95 0 0 1-10.92 10.92z"/><path style="fill:#194f82" d="M359.92 0H189.38a32.75 32.75 0 0 0-32.7 32.71v103.7a32.75 32.75 0 0 0 32.7 32.7h34.78l-29.35 136.8a11 11 0 0 0 8.34 13 10.96 10.96 0 0 0 13-8.35l7.1-33.1h102.86l7.11 33.1a10.86 10.86 0 0 0 13 8.34 10.86 10.86 0 0 0 8.33-13l-29.47-136.78h34.84a32.75 32.75 0 0 0 32.71-32.72V32.71A32.75 32.75 0 0 0 359.92 0zm-132 255.55 18.6-86.44h56.25l18.62 86.37H227.9v.07zM370.83 136.4c0 6.02-4.84 10.93-10.92 10.93H189.38a10.91 10.91 0 0 1-10.92-10.93V32.71c0-6.01 4.84-10.92 10.92-10.92h170.54c6.01 0 10.92 4.84 10.92 10.92v103.7z"/><path style="fill:#ffc10d" d="M115.75 276.1c4.85-1.1 8.6-5.43 8.6-10.66v-75c0-11.05-7.5-20.42-17.71-23.2l-23.8 48.03a11.03 11.03 0 0 1-9.82 6.08c-4.2 0-7.95-2.33-9.76-6.08l-23.8-47.97a24.07 24.07 0 0 0-17.64 23.08v75.06a11 11 0 0 0 8.6 10.67c.84.06 84.55.06 85.33 0z"/><path style="fill:#fff" d="M73.08 106.54c10.54 0 19.07-8.6 19.07-19.07S83.55 68.4 73.08 68.4 54.01 77 54.01 87.47s8.6 19.07 19.07 19.07zm31.55 264.21V298.2H41.6v72.54h20.62v-54.11c0-6.01 4.85-10.93 10.93-10.93s10.92 4.85 10.92 10.93v54.1h20.56z"/><path style="fill:#194f82" d="M73.08 128.32a40.86 40.86 0 1 0 0-81.72 40.86 40.86 0 0 0 0 81.72zm0-59.92c10.54 0 19.07 8.6 19.07 19.07s-8.6 19.07-19.07 19.07S54.01 98 54.01 87.47s8.6-19.07 19.07-19.07zm27.22 76.34a10.9 10.9 0 0 0-9.83 6.08l-17.45 35.23-17.46-35.23a11 11 0 0 0-9.76-6.08A45.87 45.87 0 0 0 .03 190.58v74.92a32.92 32.92 0 0 0 19.65 30v86.24c0 6 4.85 10.92 10.93 10.92h84.94c6.02 0 10.93-4.85 10.93-10.92v-86.3a32.8 32.8 0 0 0 19.72-30v-75a45.95 45.95 0 0 0-45.9-45.7zM30.48 276.11a11.01 11.01 0 0 1-8.6-10.67v-75c0-11.05 7.5-20.3 17.65-23.07l23.8 48.03a11 11 0 0 0 9.75 6.08c4.2 0 7.96-2.33 9.83-6.08l23.79-48.03a24.09 24.09 0 0 1 17.71 23.2v74.93a11 11 0 0 1-8.6 10.67c-.7.06-84.68.06-85.33-.06zm42.6 29.6a10.91 10.91 0 0 0-10.92 10.93v54.1H41.6v-72.66h63.16v72.54H84.14V316.5a11.08 11.08 0 0 0-11.06-10.8z"/></svg>