<svg id="Layer_1" data-name="Layer 1" xmlns="http://www.w3.org/2000/svg" viewBox="0 0 1000 1000"><title>Daraz-Group-of-Logos</title><circle cx="500" cy="500" r="377.294" fill="#f15b22"/><path d="M463.991,281.45,463.946,406.3a112.79,112.79,0,1,0,0,182.677v17.37h46.894l.091-324.9ZM398,563.583a65.919,65.919,0,1,1,65.942-65.9A65.962,65.962,0,0,1,398,563.583Zm251.158-201.86L584.9,449.841l-60.182-85.08.907,88.708,60.862,86.894L612.2,505.079l.046.046.453-.68,5.488-7.529-.181-.227,31.156-45.351v21.768l.046-.045V607.8h48.707V360.5Z" fill="#fff"/><path d="M344.807,683.085a37.945,37.945,0,0,1-2.54,14.014,32.331,32.331,0,0,1-7.12,10.975,31.627,31.627,0,0,1-11.066,7.12,39.134,39.134,0,0,1-14.331,2.54H283.31v-69.3h26.44a38.223,38.223,0,0,1,14.331,2.585,32.966,32.966,0,0,1,11.066,7.121,31.484,31.484,0,0,1,7.12,10.929,37.053,37.053,0,0,1,2.54,14.014Zm-13.152,0a31.4,31.4,0,0,0-1.542-10.25,22.161,22.161,0,0,0-4.354-7.664,18.557,18.557,0,0,0-6.894-4.807,23.479,23.479,0,0,0-9.115-1.678H296.28v48.8h13.47a23.163,23.163,0,0,0,9.115-1.678A19.1,19.1,0,0,0,325.759,701a21.157,21.157,0,0,0,4.354-7.664A31.4,31.4,0,0,0,331.655,683.085Zm61.134,34.649h-5.306a5.9,5.9,0,0,1-2.631-.5,3.16,3.16,0,0,1-1.451-2.041l-1.043-3.492a34.878,34.878,0,0,1-3.674,2.948,21.759,21.759,0,0,1-3.719,2.131,19.527,19.527,0,0,1-4.081,1.316,25.86,25.86,0,0,1-4.807.453,18.062,18.062,0,0,1-5.76-.861,12.022,12.022,0,0,1-4.535-2.54,11.606,11.606,0,0,1-2.948-4.173,15.415,15.415,0,0,1-1.043-5.8,11.69,11.69,0,0,1,1.451-5.487,13.476,13.476,0,0,1,4.853-4.9,31.135,31.135,0,0,1,9.07-3.628,58.227,58.227,0,0,1,14.059-1.451v-2.9c0-3.311-.68-5.76-2.086-7.347a7.661,7.661,0,0,0-6.077-2.4,14.576,14.576,0,0,0-4.807.681,18.909,18.909,0,0,0-3.311,1.5c-.952.544-1.814,1.043-2.63,1.5a5.3,5.3,0,0,1-2.631.68,3.321,3.321,0,0,1-2.041-.635,4.6,4.6,0,0,1-1.406-1.542l-2.177-3.764a29.266,29.266,0,0,1,20.454-7.755,19.792,19.792,0,0,1,7.71,1.406,16.1,16.1,0,0,1,5.714,3.945,16.412,16.412,0,0,1,3.583,6.032,23.031,23.031,0,0,1,1.225,7.664v30.976ZM369.8,710.341a15.606,15.606,0,0,0,3.356-.317,12.18,12.18,0,0,0,2.9-1,17.966,17.966,0,0,0,2.63-1.632,23.021,23.021,0,0,0,2.585-2.268v-8.209a50.972,50.972,0,0,0-8.662.635,23.514,23.514,0,0,0-5.578,1.678,7.147,7.147,0,0,0-2.993,2.359,5.881,5.881,0,0,0,.952,7.437,7.838,7.838,0,0,0,4.807,1.315Zm34.649,7.393V668.573h6.939a3.7,3.7,0,0,1,2.54.68,3.661,3.661,0,0,1,.952,2.313l.726,5.941a23.749,23.749,0,0,1,6.167-7.211,12.941,12.941,0,0,1,7.937-2.63,10.086,10.086,0,0,1,6.032,1.678l-1.542,8.888a1.772,1.772,0,0,1-.635,1.225,2.26,2.26,0,0,1-1.315.363,7.422,7.422,0,0,1-1.95-.318,13.145,13.145,0,0,0-3.311-.317,9.914,9.914,0,0,0-6.3,2.041,15.659,15.659,0,0,0-4.444,5.986v30.612H404.444Zm77.688,0h-5.306a5.9,5.9,0,0,1-2.631-.5,3.16,3.16,0,0,1-1.451-2.041L471.7,711.7a34.878,34.878,0,0,1-3.674,2.948,21.759,21.759,0,0,1-3.719,2.131,19.546,19.546,0,0,1-4.081,1.316,25.871,25.871,0,0,1-4.808.453,18.056,18.056,0,0,1-5.759-.861,12.026,12.026,0,0,1-4.536-2.54,11.606,11.606,0,0,1-2.948-4.173,15.415,15.415,0,0,1-1.043-5.8,11.679,11.679,0,0,1,1.452-5.487,13.473,13.473,0,0,1,4.852-4.9,31.142,31.142,0,0,1,9.071-3.628,58.227,58.227,0,0,1,14.059-1.451v-2.9c0-3.311-.681-5.76-2.087-7.347a7.659,7.659,0,0,0-6.077-2.4,14.58,14.58,0,0,0-4.807.681,18.909,18.909,0,0,0-3.311,1.5c-.952.544-1.814,1.043-2.63,1.5a5.294,5.294,0,0,1-2.631.68,3.321,3.321,0,0,1-2.041-.635,5.1,5.1,0,0,1-1.405-1.542l-2.177-3.764a29.264,29.264,0,0,1,20.453-7.755,19.785,19.785,0,0,1,7.71,1.406,16.1,16.1,0,0,1,5.715,3.945,16.424,16.424,0,0,1,3.582,6.032,23.006,23.006,0,0,1,1.225,7.664v30.976Zm-22.994-7.393a15.606,15.606,0,0,0,3.356-.317,12.18,12.18,0,0,0,2.9-1,17.966,17.966,0,0,0,2.63-1.632,23.021,23.021,0,0,0,2.585-2.268v-8.209a50.972,50.972,0,0,0-8.662.635,23.514,23.514,0,0,0-5.578,1.678,7.147,7.147,0,0,0-2.993,2.359,5.881,5.881,0,0,0,.952,7.437,7.841,7.841,0,0,0,4.808,1.315Zm70.2-36.871a6.294,6.294,0,0,1-.454,2.4,9.171,9.171,0,0,1-1.088,2l-23.4,30.748h24.264v9.116h-38V712.79a7.183,7.183,0,0,1,.363-1.95,7.061,7.061,0,0,1,1.179-2.131L515.783,677.6H492.019v-9.071H529.3v4.944Zm46.44,18.685c.453,1.089.907,2.223,1.36,3.311.454-1.134.907-2.268,1.406-3.4s1-2.177,1.542-3.22l20.5-38.368a4.906,4.906,0,0,1,.771-1.134,3.019,3.019,0,0,1,.907-.635,2.976,2.976,0,0,1,1.134-.226,14.391,14.391,0,0,1,1.5-.046h9.751v69.3H603.312V672.972c0-.817.045-1.724.09-2.721s.137-2,.227-3.039l-20.952,39.32a5.57,5.57,0,0,1-1.86,2.086,4.836,4.836,0,0,1-2.676.726h-1.768a4.734,4.734,0,0,1-2.676-.726,5.216,5.216,0,0,1-1.86-2.086l-21.224-39.456c.136,1.043.227,2.086.272,3.084s.091,1.95.091,2.812v44.762H539.638v-69.3h9.751a14.38,14.38,0,0,1,1.5.046,4.554,4.554,0,0,1,1.134.226,2.918,2.918,0,0,1,.953.635,6.136,6.136,0,0,1,.816,1.134l20.726,38.5a20.1,20.1,0,0,0,1.27,3.174Zm90.7,25.579H661.18a5.9,5.9,0,0,1-2.63-.5,3.164,3.164,0,0,1-1.452-2.041l-1.043-3.492a34.768,34.768,0,0,1-3.673,2.948,21.759,21.759,0,0,1-3.719,2.131,19.536,19.536,0,0,1-4.082,1.316,25.852,25.852,0,0,1-4.807.453,18.067,18.067,0,0,1-5.76-.861,12.022,12.022,0,0,1-4.535-2.54,11.606,11.606,0,0,1-2.948-4.173,15.415,15.415,0,0,1-1.043-5.8,11.69,11.69,0,0,1,1.451-5.487,13.476,13.476,0,0,1,4.853-4.9,31.146,31.146,0,0,1,9.07-3.628,58.239,58.239,0,0,1,14.059-1.451v-2.9c0-3.311-.68-5.76-2.086-7.347a7.661,7.661,0,0,0-6.077-2.4,14.576,14.576,0,0,0-4.807.681,18.909,18.909,0,0,0-3.311,1.5c-.953.544-1.814,1.043-2.631,1.5a5.293,5.293,0,0,1-2.63.68,3.319,3.319,0,0,1-2.041-.635,5.115,5.115,0,0,1-1.406-1.542l-2.177-3.764a29.266,29.266,0,0,1,20.454-7.755,19.792,19.792,0,0,1,7.71,1.406,16.1,16.1,0,0,1,5.714,3.945,16.412,16.412,0,0,1,3.583,6.032,23.031,23.031,0,0,1,1.225,7.664v30.976Zm-23.038-7.393a15.6,15.6,0,0,0,3.355-.317,12.18,12.18,0,0,0,2.9-1,18.028,18.028,0,0,0,2.631-1.632,23.2,23.2,0,0,0,2.585-2.268v-8.209a50.955,50.955,0,0,0-8.662.635,23.524,23.524,0,0,0-5.579,1.678,7.16,7.16,0,0,0-2.993,2.359,5.88,5.88,0,0,0,.953,7.437,7.928,7.928,0,0,0,4.807,1.315Zm47.256-63.81v71.2H678.867v-71.2Zm25.986,0v71.2H704.854v-71.2Z" fill="#fff"/></svg>