<?xml version="1.0" encoding="utf-8"?>
<!-- Generator: Adobe Illustrator 26.2.1, SVG Export Plug-In . SVG Version: 6.00 Build 0)  -->
<svg version="1.1" id="Layer_1" xmlns="http://www.w3.org/2000/svg" xmlns:xlink="http://www.w3.org/1999/xlink" x="0px" y="0px"
	 viewBox="0 0 801 257" style="enable-background:new 0 0 801 257;" xml:space="preserve">
<style type="text/css">
	.st0{fill:#CECECE;}
</style>
<g>
	<g>
		<g id="INYirw.tif_00000065778676189709589280000001268875334791977856_">
			<g>
				<path class="st0" d="M144.67,146.29c-0.53-2.74-1.85-5.13-3.43-7.34c-2.81-3.93-5.77-7.75-8.64-11.63
					c-2.53-3.43-3.76-7.23-2.94-11.51c0.24-1.27,0.7-2.49,1.06-3.74c-0.07-0.05-0.15-0.09-0.22-0.14
					c-2.46,3.96-4.96,7.89-7.34,11.89c-0.8,1.35-0.9,2.96-0.78,4.54c0.25,3.43,1.75,6.34,3.78,9.01c2.93,3.85,5.84,7.69,8.22,11.92
					c1.05,1.87,1.57,3.86,1.67,6.01c-1.02,0.28-1.95,0.55-2.89,0.79c-7.09,1.83-14.25,3.07-21.61,2.71
					c-5.14-0.25-10.05-1.35-14.7-3.63c-4.6-2.26-7.97-5.56-9.14-10.69c-0.5-2.2-0.87-4.46-1.01-6.71
					c-0.36-5.92,0.41-11.78,1.41-17.6c0.22-1.26,0.21-2.79,0.95-3.67c0.77-0.92,2.29-1.23,3.5-1.78c5.64-2.53,11.29-5.03,16.92-7.58
					c1.26-0.57,2.43-1.32,3.74-2.05c1.12,3.59-0.33,6.58-1.99,9.69c1.26-0.15,2.38-0.26,3.49-0.41c0.4-0.06,0.87-0.12,1.16-0.35
					c3.33-2.69,6.63-5.42,9.93-8.13c1.31-1.08,1.55-2.49,0.89-3.94c-0.6-1.31-1.31-2.63-2.21-3.74c-2.31-2.84-4.81-5.53-7.12-8.37
					c-0.88-1.08-1.63-2.35-2.12-3.66c-0.61-1.65-0.44-3.31,0.92-4.68c0.63-0.64,1.17-1.39,1.89-2.25c-1.55,0.18-2.84,0.31-4.12,0.47
					c-0.19,0.02-0.38,0.11-0.53,0.22c-2.91,2.1-5.86,4.17-8.72,6.35c-1.65,1.26-2.08,3.05-1.35,4.97c0.5,1.31,1.25,2.53,1.92,3.88
					c-4.1,2.97-8.75,5.21-13.47,7.58c0.02-0.29,0.02-0.45,0.05-0.6c1.29-6.08,2.55-12.17,3.88-18.24c2.7-12.34,4.67-24.76,4.4-37.46
					c-0.12-5.69-0.71-11.32-2.2-16.82c-1.19-4.41-2.88-8.61-5.73-12.23c-0.89-1.13-1.98-2.1-3.12-3.3
					c-1.24,5.52-2.4,10.73-3.61,15.93c-0.15,0.65-0.03,1.08,0.39,1.57c4.82,5.64,7.07,12.18,6.94,19.6
					c-0.09,5.49-0.6,10.95-1.55,16.34c-2.24,12.69-4.66,25.36-6.97,38.03c-0.15,0.82-0.55,1.26-1.26,1.64
					c-3.88,2.08-7.79,4.13-11.58,6.36c-5.38,3.17-10.44,6.78-14.55,11.57c-3.6,4.2-5.95,8.96-6.22,14.56
					c-0.43,8.8,2.96,16.44,7.73,23.49c3.4,5.03,8.01,9.07,12.38,13.29c2,1.93,3.92,3.95,5.88,5.93c-0.08,0.05-0.16,0.11-0.24,0.16
					c-0.23,0.12-0.46,0.25-0.69,0.37c-9.25,5.03-16.42,12.06-20.67,21.81c-2.37,5.43-3.44,11.1-1.84,16.96
					c1.46,5.34,4.2,9.83,9.38,12.4c5.07,2.52,10.42,3.23,15.98,2.2c6.39-1.18,11.55-4.4,15.65-9.41c2.8-3.43,4.75-7.25,5.32-11.69
					c0.64-4.99-0.46-9.66-2.5-14.16c-2.5-5.49-6.13-10.21-10.09-14.69c-0.71-0.81-1.43-1.61-2.38-2.66
					c4.13-1.15,8.01-2.28,11.91-3.31c3.55-0.93,6.64-0.06,9.28,2.52c0.92,0.9,1.98,1.67,3.17,2.67c-0.1-0.34-0.1-0.43-0.15-0.5
					c-1.87-2.61-3.76-5.2-5.61-7.82c-1.02-1.44-2.45-2.09-4.11-1.93c-2.24,0.22-4.52,0.48-6.68,1.09
					c-3.45,0.98-6.81,2.28-10.22,3.41c-0.32,0.11-0.88,0.12-1.08-0.08c-2.29-2.29-4.54-4.62-6.79-6.96
					c-3.77-3.92-7.11-8.16-9.51-13.08c-2.49-5.13-3.72-10.51-2.69-16.21c1.27-7.02,4.79-12.77,10.37-17.16
					c2.79-2.19,5.82-4.07,8.86-6.16c0.04,0.36,0.07,0.45,0.05,0.54c-0.87,5.83-1.76,11.66-2.62,17.49
					c-0.46,3.19-0.61,6.38,0.04,9.56c1.18,5.82,4.65,9.95,9.65,12.9c5.25,3.1,11.05,4.55,17,5.48c9.5,1.48,19.06,1.37,28.62,0.93
					c0.32-0.02,0.76-0.24,0.92-0.5c3.06-5.23,6.1-10.46,9.1-15.72C144.84,149.41,144.98,147.88,144.67,146.29z M79.94,185.9
					c5.54,6.11,10.74,12.35,13.41,20.25c1.93,5.74,1.69,11.27-1.88,16.42c-5.4,7.81-13.03,10.32-22.05,9.07
					c-6.57-0.9-11.52-6.58-12.18-13.33c-0.57-5.78,1.22-10.95,4.12-15.79c3.92-6.54,9.36-11.54,16.02-15.24
					C78.18,186.84,79.01,186.4,79.94,185.9z M208.83,235.06c-0.99-7.36-1.96-14.71-2.98-22.06c-1.12-8.15-2.28-16.3-3.43-24.45
					c-0.38-2.66-0.74-5.33-1.96-7.79c-1.06-2.13-2.68-3.58-5.09-3.93c-5.61-0.81-9.95,2.07-11.45,7.57
					c-0.94,3.48-0.84,7.01-0.29,10.52c1.39,8.8,2.88,17.58,4.3,26.38c0.4,2.45,0.93,4.91,0.34,7.42c-0.5,2.14-2.8,2.99-4.39,1.46
					c-0.91-0.88-1.73-1.99-2.21-3.15c-0.89-2.14-1.8-4.35-2.18-6.62c-1.49-9.01-2.77-18.06-4.13-27.09
					c-0.58-3.85-1.08-7.7-1.78-11.52c-0.57-3.13-2.41-4.5-5.61-4.5c-3.56,0-7.13,0-10.7,0c-0.37,0-0.75,0.04-1.13,0.07
					c0,0.07-0.01,0.14-0.01,0.21c0.66,0.11,1.31,0.21,1.97,0.32c1.21,0.2,1.49,0.52,1.38,1.75c-0.15,1.68-0.35,3.35-0.56,5.03
					c-0.67,5.43-1.34,10.87-2.06,16.3c-0.92,7.04-1.84,14.07-2.83,21.1c-0.64,4.55-1.39,9.09-2.1,13.65h18.07
					c-1.25-0.81-2.49-1.45-3.55-2.33c-3.07-2.56-4.55-6.09-5.49-9.85c-1.85-7.41-1.66-14.92-0.86-22.42
					c0.55-5.12,1.33-10.21,2.03-15.32c0.26-1.95,0.57-3.89,0.88-5.95c1.28,0.93,1.8,2.12,2,3.46c0.8,5.38,1.56,10.77,2.35,16.15
					c0.9,6.16,1.71,12.33,2.75,18.45c0.71,4.13,1.94,8.13,4.22,11.72c2.84,4.46,6.37,6.03,11.57,5.16c4.31-0.72,5.9-2.45,5.77-6.82
					c-0.1-3.39-0.41-6.8-0.91-10.15c-1.13-7.66-2.54-15.28-3.62-22.94c-0.41-2.9-0.29-5.87-0.3-8.81c0-1.34,0.77-2.38,1.9-3.11
					c1.32-0.86,2.43-0.65,3.4,0.57c0.88,1.12,1.12,2.44,1.31,3.8c0.87,6.59,1.76,13.17,2.65,19.75c0.99,7.32,1.99,14.64,3,21.96
					c0.31,2.24,0.63,4.48,0.95,6.74h8.74C208.83,235.49,208.86,235.27,208.83,235.06z M146.18,235
					c-5.1-16.79-10.17-33.59-15.34-50.36c-0.57-1.85-1.48-3.69-2.61-5.27c-2.24-3.14-7.51-3.98-10.5-1.73
					c-2.07,1.55-3.73,3.55-4.44,6.11c-1.6,5.77-3.16,11.55-4.67,17.35c-2.82,10.84-5.6,21.69-8.4,32.53
					c-0.18,0.7-0.4,1.39-0.61,2.09h12.63c-0.11-1.12-0.27-2.15-0.3-3.19c-0.14-5.64-0.23-11.27-0.38-16.91
					c-0.02-0.82,0.26-1.04,1.06-1.04c5.8,0.03,11.61,0.03,17.42,0c0.85-0.01,1.16,0.29,1.39,1.08c1.88,6.44,3.8,12.86,5.73,19.27
					c0.1,0.34,0.44,0.86,0.68,0.86c2.82,0.06,5.64,0.04,8.54,0.04C146.3,235.48,146.25,235.24,146.18,235z M111.69,213.56
					c0.08-1.47,0.11-2.89,0.25-4.29c0.67-6.87,1.44-13.74,3.52-20.35c0.58-1.83,1.51-3.56,2.37-5.29c0.39-0.78,1.09-1.3,2.06-1.17
					c0.97,0.12,1.46,0.81,1.73,1.64c1.22,3.82,2.43,7.65,3.61,11.48c1.76,5.69,3.49,11.39,5.24,17.08c0.09,0.28,0.16,0.55,0.26,0.91
					H111.69z M156.9,134.6c-0.79-2.97-2.39-5.52-4.16-7.96c-2.67-3.67-5.49-7.22-8.15-10.9c-1.99-2.75-3.1-5.87-2.73-9.3
					c0.21-1.96,0.84-3.87,1.32-5.96c-2.58,4.16-5.22,8.18-7.59,12.36c-0.69,1.21-0.84,2.87-0.8,4.32c0.07,3.53,1.71,6.54,3.8,9.28
					c2.93,3.84,5.88,7.66,8.17,11.93c0.62,1.15,1.05,2.43,1.36,3.71c0.64,2.62,0.49,5.28,0.11,7.92c-0.27,1.85-0.66,3.67-1.01,5.58
					c0.13-0.14,0.23-0.21,0.3-0.32c2.92-5.04,5.85-10.07,8.76-15.13C157.27,138.4,157.42,136.53,156.9,134.6z M169.59,125.23
					c-0.14-2.63-1.36-4.94-2.84-7.04c-2.95-4.18-6.06-8.24-9.09-12.36c-2.51-3.41-3.72-7.18-2.89-11.41
					c0.26-1.32,0.77-2.59,1.17-3.88c-2.55,3.7-5.01,7.47-7.33,11.32c-1.03,1.7-1.23,3.66-0.96,5.65c0.44,3.17,1.96,5.84,3.79,8.41
					c2.63,3.69,5.22,7.41,7.72,11.18c0.67,1,1.1,2.2,1.43,3.37c0.77,2.73,0.67,5.52,0.28,8.29c-0.27,1.87-0.65,3.73-1,5.63
					c0.09-0.08,0.18-0.12,0.23-0.2c2.99-5.19,6.02-10.35,8.91-15.59C169.54,127.66,169.65,126.35,169.59,125.23z M75.88,91.18
					c-4.19-1.46-5.67-4.82-4.9-9.13c0.59-3.33,2.05-6.32,3.74-9.21c1.03-1.78,2.17-3.49,3.26-5.22c-0.06-0.05-0.12-0.11-0.18-0.16
					c-0.07,0.14-0.11,0.3-0.21,0.41c-3.82,4.23-7.13,8.81-9.54,13.99c-2.05,4.41-3.33,8.98-2.66,13.92c0.4,2.96,3.04,4.56,5.79,3.45
					c2.48-1,4.25-2.79,5.41-5.19c0.16-0.34,0.25-0.74,0.31-1.11C77.03,92.08,76.73,91.47,75.88,91.18z M105.83,20.96
					c-0.51-0.51-1.09-0.96-1.76-1.54c-0.15,0.81-0.19,1.43-0.38,2c-0.49,1.43-0.41,2.63,1.08,3.41c0.11,0.05,0.18,0.19,0.26,0.28
					c3.96,4.55,5.33,9.93,4.83,15.81c-0.28,3.29-0.91,6.54-1.32,9.82c-0.23,1.78-0.33,3.57-0.5,5.54c0.25-0.21,0.33-0.24,0.34-0.28
					c1.38-4.75,3.23-9.35,4.05-14.27C113.79,33.62,111.57,26.76,105.83,20.96z M114.03,118.24c-3.63,4.55-7.63,8.73-12.12,12.46
					c-3.17,2.64-5.18,6.03-5.66,10.2c-0.18,1.57-0.1,3.15,0.97,4.43c0.31,0.38,0.99,0.66,1.47,0.62c0.3-0.03,0.67-0.71,0.78-1.16
					c0.15-0.66-0.08-1.25-0.75-1.64c-0.33-0.2-0.69-0.57-0.78-0.92c-0.73-3.12,0.28-5.81,2.42-8.01c1.37-1.4,3-2.56,4.6-3.7
					c2.97-2.12,5.83-4.34,7.77-7.52c0.94-1.55,1.56-3.21,1.77-5.29C114.24,118.01,114.13,118.12,114.03,118.24z M144.32,75.38
					c-2-0.87-2.93-2.33-2.82-4.52c0.09-1.92,0.81-3.65,1.7-5.32c0.74-1.38,1.57-2.72,2.42-4.18c-0.18,0.12-0.26,0.15-0.31,0.21
					c-2.71,3.09-5.03,6.43-6.39,10.35c-0.73,2.1-1.14,4.26-0.74,6.49c0.33,1.85,1.92,2.73,3.64,1.99c1.48-0.64,2.59-1.71,3.23-3.21
					C145.48,76.21,145.29,75.79,144.32,75.38z"/>
				<path class="st0" d="M144.67,146.29c-0.53-2.74-1.85-5.13-3.43-7.34c-2.81-3.93-5.77-7.75-8.64-11.63
					c-2.53-3.43-3.76-7.23-2.94-11.51c0.24-1.27,0.7-2.49,1.06-3.74c-0.07-0.05-0.15-0.09-0.22-0.14
					c-2.46,3.96-4.96,7.89-7.34,11.89c-0.8,1.35-0.9,2.96-0.78,4.54c0.25,3.43,1.75,6.34,3.78,9.01c2.93,3.85,5.84,7.69,8.22,11.92
					c1.05,1.87,1.57,3.86,1.67,6.01c-1.02,0.28-1.95,0.55-2.89,0.79c-7.09,1.83-14.25,3.07-21.61,2.71
					c-5.14-0.25-10.05-1.35-14.7-3.63c-4.6-2.26-7.97-5.56-9.14-10.69c-0.5-2.2-0.87-4.46-1.01-6.71
					c-0.36-5.92,0.41-11.78,1.41-17.6c0.22-1.26,0.21-2.79,0.95-3.67c0.77-0.92,2.29-1.23,3.5-1.78c5.64-2.53,11.29-5.03,16.92-7.58
					c1.26-0.57,2.43-1.32,3.74-2.05c1.12,3.59-0.33,6.58-1.99,9.69c1.26-0.15,2.38-0.26,3.49-0.41c0.4-0.06,0.87-0.12,1.16-0.35
					c3.33-2.69,6.63-5.42,9.93-8.13c1.31-1.08,1.55-2.49,0.89-3.94c-0.6-1.31-1.31-2.63-2.21-3.74c-2.31-2.84-4.81-5.53-7.12-8.37
					c-0.88-1.08-1.63-2.35-2.12-3.66c-0.61-1.65-0.44-3.31,0.92-4.68c0.63-0.64,1.17-1.39,1.89-2.25c-1.55,0.18-2.84,0.31-4.12,0.47
					c-0.19,0.02-0.38,0.11-0.53,0.22c-2.91,2.1-5.86,4.17-8.72,6.35c-1.65,1.26-2.08,3.05-1.35,4.97c0.5,1.31,1.25,2.53,1.92,3.88
					c-4.1,2.97-8.75,5.21-13.47,7.58c0.02-0.29,0.02-0.45,0.05-0.6c1.29-6.08,2.55-12.17,3.88-18.24c2.7-12.34,4.67-24.76,4.4-37.46
					c-0.12-5.69-0.71-11.32-2.2-16.82c-1.19-4.41-2.88-8.61-5.73-12.23c-0.89-1.13-1.98-2.1-3.12-3.3
					c-1.24,5.52-2.4,10.73-3.61,15.93c-0.15,0.65-0.03,1.08,0.39,1.57c4.82,5.64,7.07,12.18,6.94,19.6
					c-0.09,5.49-0.6,10.95-1.55,16.34c-2.24,12.69-4.66,25.36-6.97,38.03c-0.15,0.82-0.55,1.26-1.26,1.64
					c-3.88,2.08-7.79,4.13-11.58,6.36c-5.38,3.17-10.44,6.78-14.55,11.57c-3.6,4.2-5.95,8.96-6.22,14.56
					c-0.43,8.8,2.96,16.44,7.73,23.49c3.4,5.03,8.01,9.07,12.38,13.29c2,1.93,3.92,3.95,5.88,5.93c-0.08,0.05-0.16,0.11-0.24,0.16
					c-0.23,0.12-0.46,0.25-0.69,0.37c-9.25,5.03-16.42,12.06-20.67,21.81c-2.37,5.43-3.44,11.1-1.84,16.96
					c1.46,5.34,4.2,9.83,9.38,12.4c5.07,2.52,10.42,3.23,15.98,2.2c6.39-1.18,11.55-4.4,15.65-9.41c2.8-3.43,4.75-7.25,5.32-11.69
					c0.64-4.99-0.46-9.66-2.5-14.16c-2.5-5.49-6.13-10.21-10.09-14.69c-0.71-0.81-1.43-1.61-2.38-2.66
					c4.13-1.15,8.01-2.28,11.91-3.31c3.55-0.93,6.64-0.06,9.28,2.52c0.92,0.9,1.98,1.67,3.17,2.67c-0.1-0.34-0.1-0.43-0.15-0.5
					c-1.87-2.61-3.76-5.2-5.61-7.82c-1.02-1.44-2.45-2.09-4.11-1.93c-2.24,0.22-4.52,0.48-6.68,1.09
					c-3.45,0.98-6.81,2.28-10.22,3.41c-0.32,0.11-0.88,0.12-1.08-0.08c-2.29-2.29-4.54-4.62-6.79-6.96
					c-3.77-3.92-7.11-8.16-9.51-13.08c-2.49-5.13-3.72-10.51-2.69-16.21c1.27-7.02,4.79-12.77,10.37-17.16
					c2.79-2.19,5.82-4.07,8.86-6.16c0.04,0.36,0.07,0.45,0.05,0.54c-0.87,5.83-1.76,11.66-2.62,17.49
					c-0.46,3.19-0.61,6.38,0.04,9.56c1.18,5.82,4.65,9.95,9.65,12.9c5.25,3.1,11.05,4.55,17,5.48c9.5,1.48,19.06,1.37,28.62,0.93
					c0.32-0.02,0.76-0.24,0.92-0.5c3.06-5.23,6.1-10.46,9.1-15.72C144.84,149.41,144.98,147.88,144.67,146.29z M79.94,185.9
					c5.54,6.11,10.74,12.35,13.41,20.25c1.93,5.74,1.69,11.27-1.88,16.42c-5.4,7.81-13.03,10.32-22.05,9.07
					c-6.57-0.9-11.52-6.58-12.18-13.33c-0.57-5.78,1.22-10.95,4.12-15.79c3.92-6.54,9.36-11.54,16.02-15.24
					C78.18,186.84,79.01,186.4,79.94,185.9z"/>
				<path class="st0" d="M156.17,177.37c0.38-0.02,0.75-0.06,1.13-0.07c3.57-0.01,7.13,0,10.7,0c3.2,0,5.04,1.37,5.61,4.5
					c0.7,3.82,1.2,7.68,1.78,11.52c1.36,9.03,2.64,18.08,4.13,27.09c0.37,2.27,1.29,4.48,2.18,6.62c0.48,1.16,1.3,2.27,2.21,3.15
					c1.59,1.53,3.89,0.68,4.39-1.46c0.58-2.51,0.06-4.97-0.34-7.42c-1.42-8.79-2.91-17.58-4.3-26.38c-0.55-3.5-0.66-7.04,0.29-10.52
					c1.49-5.49,5.84-8.38,11.44-7.56c2.41,0.35,4.03,1.79,5.09,3.93c1.21,2.45,1.58,5.13,1.95,7.79c1.15,8.15,2.31,16.3,3.43,24.45
					c1.01,7.35,1.99,14.71,2.98,22.06c0.03,0.22,0,0.44,0,0.71c-2.91,0-5.78,0-8.74,0c-0.32-2.26-0.65-4.5-0.95-6.74
					c-1-7.32-2-14.64-3-21.96c-0.89-6.58-1.78-13.16-2.66-19.75c-0.18-1.36-0.42-2.68-1.3-3.8c-0.97-1.23-2.08-1.43-3.4-0.57
					c-1.13,0.74-1.9,1.77-1.9,3.11c0.01,2.94-0.11,5.92,0.3,8.81c1.08,7.66,2.49,15.28,3.62,22.94c0.5,3.36,0.8,6.76,0.91,10.15
					c0.13,4.37-1.46,6.1-5.77,6.82c-5.2,0.88-8.73-0.7-11.58-5.16c-2.28-3.59-3.51-7.59-4.22-11.72c-1.05-6.13-1.86-12.3-2.76-18.45
					c-0.79-5.38-1.55-10.77-2.35-16.15c-0.2-1.34-0.72-2.53-2-3.45c-0.31,2.06-0.62,4-0.88,5.95c-0.7,5.1-1.48,10.2-2.03,15.32
					c-0.8,7.5-0.99,15.02,0.86,22.42c0.94,3.76,2.42,7.28,5.49,9.85c1.05,0.88,2.3,1.52,3.55,2.33c-6.08,0-12.1,0-18.07,0
					c0.71-4.56,1.46-9.09,2.1-13.65c0.99-7.03,1.91-14.06,2.83-21.1c0.71-5.43,1.38-10.87,2.06-16.3c0.21-1.67,0.4-3.35,0.56-5.02
					c0.11-1.23-0.17-1.54-1.38-1.75c-0.66-0.11-1.31-0.21-1.97-0.32C156.16,177.51,156.16,177.44,156.17,177.37z"/>
				<path class="st0" d="M146.18,235c-5.1-16.79-10.17-33.59-15.34-50.36c-0.57-1.85-1.48-3.69-2.61-5.27
					c-2.24-3.14-7.51-3.98-10.5-1.73c-2.07,1.55-3.73,3.55-4.44,6.11c-1.6,5.77-3.16,11.55-4.67,17.35
					c-2.82,10.84-5.6,21.69-8.4,32.53c-0.18,0.7-0.4,1.39-0.61,2.09h12.63c-0.11-1.12-0.27-2.15-0.3-3.19
					c-0.14-5.64-0.23-11.27-0.38-16.91c-0.02-0.82,0.26-1.04,1.06-1.04c5.8,0.03,11.61,0.03,17.42,0c0.85-0.01,1.16,0.29,1.39,1.08
					c1.88,6.44,3.8,12.86,5.73,19.27c0.1,0.34,0.44,0.86,0.68,0.86c2.82,0.06,5.64,0.04,8.54,0.04
					C146.3,235.48,146.25,235.24,146.18,235z M111.69,213.56c0.08-1.47,0.11-2.89,0.25-4.29c0.67-6.87,1.44-13.74,3.52-20.35
					c0.58-1.83,1.51-3.56,2.37-5.29c0.39-0.78,1.09-1.3,2.06-1.17c0.97,0.12,1.46,0.81,1.73,1.64c1.22,3.82,2.43,7.65,3.61,11.48
					c1.76,5.69,3.49,11.39,5.24,17.08c0.09,0.28,0.16,0.55,0.26,0.91H111.69z"/>
				<path class="st0" d="M143.17,100.48c-0.48,2.1-1.11,4.01-1.32,5.97c-0.37,3.43,0.74,6.55,2.73,9.3
					c2.66,3.67,5.48,7.23,8.15,10.9c1.78,2.44,3.38,4.99,4.17,7.96c0.51,1.93,0.37,3.8-0.63,5.55c-2.91,5.05-5.84,10.09-8.76,15.13
					c-0.06,0.1-0.17,0.18-0.3,0.32c0.35-1.91,0.74-3.74,1.01-5.58c0.38-2.64,0.53-5.3-0.1-7.92c-0.31-1.27-0.75-2.56-1.36-3.71
					c-2.29-4.27-5.24-8.1-8.17-11.93c-2.1-2.74-3.73-5.75-3.8-9.28c-0.03-1.45,0.12-3.11,0.8-4.32
					C137.95,108.66,140.59,104.64,143.17,100.48z"/>
				<path class="st0" d="M159.87,144.4c0.34-1.9,0.73-3.76,1-5.63c0.4-2.77,0.49-5.57-0.28-8.29c-0.33-1.17-0.76-2.37-1.42-3.37
					c-2.51-3.77-5.1-7.49-7.72-11.18c-1.83-2.56-3.35-5.23-3.79-8.41c-0.27-1.99-0.07-3.94,0.96-5.65
					c2.32-3.85,4.78-7.62,7.33-11.32c-0.4,1.29-0.91,2.56-1.17,3.88c-0.83,4.24,0.38,8.01,2.89,11.42
					c3.03,4.12,6.14,8.19,9.09,12.36c1.48,2.09,2.69,4.4,2.83,7.03c0.06,1.12-0.06,2.42-0.58,3.37c-2.89,5.24-5.92,10.4-8.91,15.59
					C160.06,144.27,159.96,144.32,159.87,144.4z"/>
				<path class="st0" d="M77.97,67.61c-1.09,1.74-2.23,3.45-3.26,5.22c-1.68,2.89-3.14,5.88-3.73,9.22
					c-0.77,4.3,0.71,7.66,4.91,9.13c0.85,0.3,1.15,0.9,1.02,1.74c-0.06,0.38-0.15,0.77-0.31,1.11c-1.16,2.4-2.93,4.19-5.41,5.19
					c-2.75,1.11-5.39-0.49-5.79-3.45c-0.67-4.93,0.61-9.51,2.66-13.91c2.41-5.18,5.72-9.76,9.54-13.99c0.1-0.11,0.15-0.28,0.22-0.42
					C77.86,67.51,77.91,67.56,77.97,67.61z"/>
				<path class="st0" d="M108.04,56.29c0.17-1.97,0.27-3.77,0.5-5.54c0.41-3.28,1.04-6.54,1.32-9.82c0.5-5.88-0.88-11.26-4.83-15.81
					c-0.08-0.1-0.15-0.23-0.26-0.28c-1.49-0.78-1.56-1.98-1.08-3.41c0.19-0.57,0.23-1.19,0.38-2c0.67,0.58,1.25,1.03,1.76,1.54
					c5.74,5.8,7.96,12.66,6.6,20.77c-0.83,4.93-2.67,9.52-4.05,14.27C108.37,56.05,108.29,56.08,108.04,56.29z"/>
				<path class="st0" d="M114.51,117.7c-0.21,2.07-0.83,3.74-1.77,5.29c-1.93,3.18-4.79,5.4-7.77,7.52c-1.6,1.14-3.24,2.3-4.6,3.7
					c-2.14,2.2-3.16,4.89-2.43,8.01c0.08,0.35,0.45,0.72,0.78,0.92c0.66,0.4,0.9,0.98,0.75,1.64c-0.1,0.45-0.47,1.13-0.78,1.16
					c-0.48,0.05-1.16-0.24-1.47-0.61c-1.06-1.28-1.15-2.86-0.96-4.43c0.48-4.17,2.49-7.56,5.66-10.2
					c4.49-3.73,8.48-7.91,12.12-12.46C114.13,118.12,114.24,118.01,114.51,117.7z"/>
				<path class="st0" d="M145.62,61.36c-0.85,1.47-1.68,2.8-2.42,4.18c-0.89,1.66-1.61,3.4-1.7,5.32c-0.11,2.18,0.82,3.64,2.82,4.51
					c0.97,0.42,1.16,0.84,0.74,1.81c-0.65,1.49-1.75,2.57-3.23,3.2c-1.71,0.74-3.31-0.14-3.64-1.99c-0.4-2.23,0.01-4.39,0.74-6.49
					c1.36-3.92,3.67-7.26,6.38-10.34C145.36,61.51,145.44,61.48,145.62,61.36z"/>
			</g>
		</g>
	</g>
	<g>
		<g>
			<g>
				<path class="st0" d="M296.3,152.52c-2.53,1.56-5.11,2.82-7.75,3.76c-2.64,0.94-5.3,1.61-7.99,2.01c-2.69,0.4-5.47,0.6-8.34,0.6
					c-5.31,0-10.07-0.87-14.29-2.61c-4.21-1.74-7.87-4.3-10.96-7.69c-3.09-3.39-5.41-7.35-6.95-11.89
					c-1.54-4.54-2.31-9.52-2.31-14.94c0-6.22,0.91-11.67,2.73-16.35c1.82-4.68,4.36-8.56,7.64-11.66c3.27-3.09,7-5.38,11.18-6.86
					c4.18-1.48,8.59-2.22,13.23-2.22c6.93,0,14.78,1.83,23.55,5.48v19.19c-3.02-2.22-6.01-4.08-8.96-5.55s-6.42-2.22-10.41-2.22
					c-3.55,0-6.87,0.83-9.95,2.5c-3.08,1.67-5.56,4.05-7.44,7.15c-1.88,3.09-2.82,6.71-2.82,10.85c0,3.65,0.82,7,2.47,10.04
					s3.93,5.46,6.84,7.25c2.92,1.79,6.21,2.69,9.89,2.69c2.96,0,5.77-0.43,8.41-1.28c2.64-0.85,4.86-1.8,6.67-2.84
					s3.66-2.28,5.57-3.7V152.52z"/>
				<path class="st0" d="M369.55,157.95h-19.77l-4.8-12.83c-1.76-4.69-3.35-8.12-4.75-10.3c-1.41-2.17-2.78-3.56-4.12-4.17
					c-1.33-0.61-3.06-0.91-5.17-0.91h-2.07v28.21h-18.4V85.67h31.3c5.05,0,9.19,1.22,12.42,3.65c3.23,2.44,5.55,5.39,6.98,8.86
					c1.42,3.48,2.13,6.78,2.13,9.91c0,3.65-0.59,6.74-1.78,9.25c-1.19,2.52-2.44,4.36-3.76,5.5c-1.32,1.14-2.8,2.24-4.44,3.28
					c1.96,1.36,3.58,2.97,4.86,4.82c1.28,1.86,3.01,5.63,5.21,11.29L369.55,157.95z M344.55,108.51c0-3.34-0.92-5.67-2.77-6.99
					c-1.85-1.32-4.86-1.98-9.02-1.98h-3.87v17.42h3.96c4.49,0,7.56-0.58,9.22-1.75C343.72,114.04,344.55,111.81,344.55,108.51z"/>
				<path class="st0" d="M425.72,157.95h-46V85.67h45.26v14.5h-26.86v13.25h25.62v14.55h-25.62v15.44h27.6V157.95z"/>
				<path class="st0" d="M506.86,157.95h-18.84l-4.98-14.65h-26.5l-5.06,14.65h-18.84l26.99-72.28h20.34L506.86,157.95z
					 M478.81,130.73l-8.93-26.39l-9.03,26.39H478.81z"/>
				<path class="st0" d="M566.24,103.24h-22.37v54.7h-18.36v-54.7h-22.36V85.67h63.08V103.24z"/>
				<path class="st0" d="M597.28,157.95h-18.4V85.67h18.4V157.95z"/>
				<path class="st0" d="M674.18,85.67l-27.51,73.22h-12.15l-26.98-73.22h19.15l13.96,41.72l14.35-41.72H674.18z"/>
				<path class="st0" d="M730.36,157.95h-46.01V85.67h45.26v14.5h-26.85v13.25h25.62v14.55h-25.62v15.44h27.6V157.95z"/>
				<path class="st0" d="M280.31,218.28c0,3.8-0.82,7.08-2.46,9.86c-1.64,2.77-3.93,4.9-6.86,6.37c-2.93,1.48-6.3,2.21-10.1,2.21
					c-1.06,0-2.36-0.08-3.9-0.24c-1.54-0.16-3.59-0.61-6.14-1.34c-2.55-0.73-5.21-1.81-7.97-3.24v-14.9
					c2.59,1.9,5.14,3.48,7.64,4.73c2.5,1.26,5.18,1.89,8.04,1.89c2.64,0,4.34-0.52,5.12-1.56c0.78-1.03,1.17-2.01,1.17-2.91
					c0-1.63-0.67-3.02-2-4.14c-1.33-1.12-3.27-2.28-5.81-3.48c-2.81-1.4-5.28-2.93-7.4-4.58c-2.12-1.65-3.85-3.71-5.2-6.2
					c-1.34-2.48-2.01-5.42-2.01-8.81c0-3.27,0.68-6.23,2.03-8.87c1.35-2.64,3.43-4.75,6.21-6.33c2.79-1.58,6.19-2.37,10.21-2.37
					c2.86,0,5.5,0.33,7.93,0.99c2.43,0.66,4.43,1.4,6.01,2.21c1.58,0.82,2.67,1.46,3.25,1.93v14.24c-2.09-1.78-4.43-3.37-7.01-4.78
					c-2.58-1.4-5.33-2.1-8.27-2.1c-1.92,0-3.32,0.44-4.18,1.31c-0.87,0.88-1.3,1.96-1.3,3.24c0,1.2,0.43,2.23,1.3,3.11
					c0.86,0.88,2.4,1.94,4.62,3.2c3.94,2.19,7.1,4.16,9.47,5.92c2.37,1.75,4.22,3.77,5.57,6.07
					C279.64,212.01,280.31,214.87,280.31,218.28z"/>
				<path class="st0" d="M347.18,205.53c0,5.67-1.1,10.88-3.31,15.64c-2.21,4.76-5.49,8.55-9.86,11.35c-4.36,2.8-9.68,4.2-15.94,4.2
					c-6.34,0-11.7-1.46-16.09-4.38c-4.39-2.92-7.65-6.76-9.78-11.52s-3.2-9.86-3.2-15.29c0-5.46,1.06-10.57,3.18-15.32
					c2.12-4.75,5.38-8.57,9.78-11.48c4.4-2.9,9.77-4.36,16.11-4.36c4.73,0,8.96,0.83,12.67,2.5c3.71,1.67,6.76,3.92,9.16,6.77
					c2.39,2.85,4.2,6.16,5.44,9.95C346.56,197.37,347.18,201.35,347.18,205.53z M331.42,205.53c0-2.28-0.28-4.36-0.85-6.24
					c-0.57-1.89-1.42-3.52-2.57-4.91c-1.15-1.39-2.55-2.47-4.2-3.24c-1.65-0.77-3.56-1.16-5.74-1.16c-4.14,0-7.4,1.43-9.76,4.29
					c-2.37,2.86-3.55,6.62-3.55,11.26c0,4.64,1.19,8.41,3.57,11.28c2.38,2.88,5.63,4.31,9.75,4.31c2.84,0,5.25-0.66,7.25-1.99
					c2-1.33,3.51-3.17,4.55-5.52C330.91,211.27,331.42,208.57,331.42,205.53z"/>
				<path class="st0" d="M397.26,235.94h-38.95v-60.73h15.46v46.18h23.49V235.94z"/>
				<path class="st0" d="M456.85,208.73c0,5.2-0.82,9.64-2.46,13.3c-1.64,3.67-3.81,6.57-6.51,8.7c-2.7,2.13-5.61,3.67-8.73,4.6
					c-3.12,0.94-6.23,1.4-9.34,1.4c-4.34,0-8.56-0.88-12.67-2.63c-4.11-1.75-7.54-4.73-10.3-8.94c-2.76-4.2-4.14-9.68-4.14-16.43
					v-33.52h15.43V204c0,4,0.49,7.31,1.46,9.93c0.98,2.61,2.33,4.53,4.07,5.74c1.74,1.21,3.79,1.82,6.16,1.82
					c2.27,0,4.28-0.6,6.03-1.8c1.75-1.2,3.11-3.1,4.09-5.7c0.97-2.6,1.46-5.9,1.46-9.9v-28.88h15.46V208.73z"/>
				<path class="st0" d="M519.65,189.98h-18.79v45.96h-15.42v-45.96h-18.79v-14.77h53.01V189.98z"/>
				<path class="st0" d="M545.73,235.94h-15.46v-60.73h15.46V235.94z"/>
				<path class="st0" d="M615.04,205.53c0,5.67-1.1,10.88-3.31,15.64c-2.21,4.76-5.49,8.55-9.86,11.35c-4.36,2.8-9.68,4.2-15.94,4.2
					c-6.34,0-11.7-1.46-16.09-4.38c-4.39-2.92-7.65-6.76-9.78-11.52c-2.13-4.76-3.2-9.86-3.2-15.29c0-5.46,1.06-10.57,3.18-15.32
					c2.12-4.75,5.38-8.57,9.78-11.48c4.4-2.9,9.77-4.36,16.11-4.36c4.73,0,8.96,0.83,12.67,2.5c3.71,1.67,6.76,3.92,9.16,6.77
					c2.39,2.85,4.2,6.16,5.44,9.95C614.43,197.37,615.04,201.35,615.04,205.53z M599.29,205.53c0-2.28-0.28-4.36-0.85-6.24
					c-0.57-1.89-1.42-3.52-2.57-4.91c-1.15-1.39-2.55-2.47-4.2-3.24c-1.65-0.77-3.56-1.16-5.74-1.16c-4.14,0-7.4,1.43-9.76,4.29
					c-2.37,2.86-3.55,6.62-3.55,11.26c0,4.64,1.19,8.41,3.57,11.28c2.38,2.88,5.63,4.31,9.75,4.31c2.84,0,5.25-0.66,7.25-1.99
					c2-1.33,3.51-3.17,4.55-5.52C598.77,211.27,599.29,208.57,599.29,205.53z"/>
				<path class="st0" d="M680.77,235.94h-13.76l-26.6-33.83v33.83H625.1v-60.73h13.72l26.52,33.65v-33.65h15.42V235.94z"/>
				<path class="st0" d="M731,218.28c0,3.8-0.82,7.08-2.46,9.86c-1.64,2.77-3.93,4.9-6.86,6.37c-2.93,1.48-6.3,2.21-10.1,2.21
					c-1.06,0-2.36-0.08-3.9-0.24c-1.54-0.16-3.59-0.61-6.14-1.34c-2.55-0.73-5.21-1.81-7.97-3.24v-14.9
					c2.59,1.9,5.14,3.48,7.64,4.73c2.5,1.26,5.18,1.89,8.04,1.89c2.64,0,4.34-0.52,5.12-1.56c0.78-1.03,1.17-2.01,1.17-2.91
					c0-1.63-0.67-3.02-2-4.14c-1.33-1.12-3.27-2.28-5.81-3.48c-2.81-1.4-5.28-2.93-7.4-4.58c-2.12-1.65-3.85-3.71-5.2-6.2
					c-1.34-2.48-2.01-5.42-2.01-8.81c0-3.27,0.68-6.23,2.03-8.87c1.35-2.64,3.43-4.75,6.21-6.33c2.79-1.58,6.19-2.37,10.21-2.37
					c2.86,0,5.5,0.33,7.93,0.99c2.43,0.66,4.43,1.4,6.01,2.21c1.58,0.82,2.67,1.46,3.25,1.93v14.24c-2.09-1.78-4.43-3.37-7.01-4.78
					c-2.58-1.4-5.33-2.1-8.27-2.1c-1.92,0-3.32,0.44-4.18,1.31c-0.87,0.88-1.3,1.96-1.3,3.24c0,1.2,0.43,2.23,1.3,3.11
					c0.86,0.88,2.4,1.94,4.62,3.2c3.94,2.19,7.1,4.16,9.47,5.92s4.22,3.77,5.57,6.07C730.33,212.01,731,214.87,731,218.28z"/>
			</g>
		</g>
	</g>
</g>
</svg>
