   <svg width="21" height="21" viewBox="0 0 24 24" fill="none" xmlns="http://www.w3.org/2000/svg">
                         <g stroke-width="1.5" stroke-miterlimit="10">
                            <path d="M9.21 11.832v5.23a.45.45 0 0 0 .273.41.443.443 0 0 0 .17.034h7.463l2.905 2.005a.252.252 0 0 0 .4-.21v-1.85h1.549a.45.45 0 0 0 .444-.45V9.649a.45.45 0 0 0-.444-.45h-7.18" stroke="#13A2E4"></path>
                            <path d="M2.06 3.617h12.287a.444.444 0 0 1 .444.444v7.401a.45.45 0 0 1-.444.45H6.884L3.979 13.93a.252.252 0 0 1-.395-.21v-1.85H2.061a.45.45 0 0 1-.444-.438v-7.37a.444.444 0 0 1 .444-.444Z" stroke="#48639E"></path>
                         </g>
                      </svg>