   <svg width="22" height="22" viewBox="0 0 24 24" fill="none" xmlns="http://www.w3.org/2000/svg">
                         <path d="M17.987 20.03h3.859a.15.15 0 0 0 .144-.094.148.148 0 0 0 .01-.06V7.337a1.713 1.713 0 0 0-1.753-1.715h-2.26M6.493 20.03H2.154A.154.154 0 0 1 2 19.877V6.84a1.218 1.218 0 0 1 1.218-1.218h3.275" stroke="#48639E" stroke-width="1.5" stroke-miterlimit="10"></path>
                         <path d="M6.493 5.593v14.438h11.494V5.593A1.588 1.588 0 0 0 16.383 4h-8.32a1.588 1.588 0 0 0-1.57 1.593Z" stroke="#13A2E4" stroke-width="1.5" stroke-miterlimit="10"></path>
                      </svg>