  <svg width="21" height="21" viewBox="0 0 24 24" fill="none" xmlns="http://www.w3.org/2000/svg">
                         <g stroke-width="1.5" stroke-miterlimit="10">
                            <path d="m5.487 5.689.646-1.724a1.387 1.387 0 0 1 1.308-.91h7.014a1.398 1.398 0 0 1 1.286.837l.774 1.78a.293.293 0 0 1-.269.41H5.763a.292.292 0 0 1-.276-.393Z" stroke="#48639E" stroke-linecap="round"></path>
                            <path d="M18.616 13.797V4.93a.717.717 0 0 0-.214-.517.736.736 0 0 0-.516-.213H15.87M6.049 4.184H4.291a.73.73 0 0 0-.73.747v16.778a.73.73 0 0 0 .73.73h13.595a.73.73 0 0 0 .73-.73v-4.425M9.817 3.055v-.168a1.32 1.32 0 0 1 2.256-.937 1.325 1.325 0 0 1 .388.937v.168M6.975 10.798h8.277M6.975 14.566h8.277" stroke="#48639E" stroke-linecap="round"></path>
                            <path d="m19.671 13.078-4.15 4.077a.994.994 0 0 0-.269.5l-.219 1.055a.36.36 0 0 0 .421.427l1.061-.169a.983.983 0 0 0 .5-.264l4.15-4.076a.516.516 0 0 0 0-.736l-.758-.808a.522.522 0 0 0-.736-.006Z" stroke="#13A2E4"></path>
                         </g>
                      </svg>