     <svg width="22" height="22" viewBox="0 0 24 24" fill="none" xmlns="http://www.w3.org/2000/svg">
                         <path d="M9.905 12.502h1.175a1.923 1.923 0 0 1 1.917 1.916 1.921 1.921 0 0 1-1.917 1.954h-.723a.19.19 0 0 0-.171.117.188.188 0 0 0 .04.204l2.808 2.809M15 12.502H9M14.5 14.502H10" stroke="#24A7D0" stroke-width="1.5" stroke-miterlimit="10" stroke-linecap="round"></path>
                         <path d="m18.891 15.04-4.185-8.416a1.16 1.16 0 0 1 .18-1.327l1.101-1.247a1.774 1.774 0 0 0 .18-2.202 2.093 2.093 0 0 0-2.898-.458l-.082.058a2.376 2.376 0 0 1-2.776 0 2.168 2.168 0 0 0-2.406-.128 1.739 1.739 0 0 0-.428 2.684l1.159 1.298a1.16 1.16 0 0 1 .18 1.328l-4.203 8.41a6.376 6.376 0 0 0-.388 4.94 4.231 4.231 0 0 0 2.927 2.868c.416.109.845.16 1.275.151h6.556c.43.008.859-.042 1.275-.15a4.254 4.254 0 0 0 2.927-2.87 6.375 6.375 0 0 0-.394-4.938ZM6.45 7.349H17.61" stroke="#48639E" stroke-width="1.5" stroke-miterlimit="10" stroke-linecap="round"></path>
                      </svg>