<?xml version="1.0" encoding="UTF-8" standalone="no"?>
<svg
   class="recharts-surface"
   width="78.714287"
   height="46"
   viewBox="0 0 78.714287 46"
   version="1.1"
   id="svg47"
   sodipodi:docname="155d15e8222d2d4b5f040d6a037c092f.svg"
   xmlns:inkscape="http://www.inkscape.org/namespaces/inkscape"
   xmlns:sodipodi="http://sodipodi.sourceforge.net/DTD/sodipodi-0.dtd"
   xmlns="http://www.w3.org/2000/svg"
   xmlns:svg="http://www.w3.org/2000/svg">
  <sodipodi:namedview
     id="namedview49"
     pagecolor="#ffffff"
     bordercolor="#666666"
     borderopacity="1.0"
     inkscape:pageshadow="2"
     inkscape:pageopacity="0.0"
     inkscape:pagecheckerboard="0" />
  <title
     id="title2" />
  <desc
     id="desc4" />
  <defs
     id="defs9">
    <clipPath
       id="recharts33-clip">
      <rect
         x="5"
         y="5"
         height="46"
         width="86"
         id="rect6" />
    </clipPath>
  </defs>
  <g
     class="recharts-layer recharts-bar"
     id="g45"
     transform="translate(-8,-5)">
    <g
       class="recharts-layer recharts-bar-rectangles"
       id="g41">
      <g
         class="recharts-layer"
         id="g39">
        <g
           class="recharts-layer recharts-bar-rectangle"
           id="g13">
          <path
             x="8"
             y="5"
             width="5"
             height="46"
             radius="5"
             fill="#3872fa"
             class="recharts-rectangle"
             d="M 8,7.5 A 2.5,2.5 0 0 1 10.5,5 V 5 A 2.5,2.5 0 0 1 13,7.5 v 41 A 2.5,2.5 0 0 1 10.5,51 v 0 A 2.5,2.5 0 0 1 8,48.5 Z"
             id="path11" />
        </g>
        <g
           class="recharts-layer recharts-bar-rectangle"
           id="g17">
          <path
             x="20.285714285714285"
             y="16.5"
             width="5"
             height="34.5"
             radius="5"
             fill="#3872fa"
             class="recharts-rectangle"
             d="m 20.285714,19 a 2.5,2.5 0 0 1 2.5,-2.5 v 0 a 2.5,2.5 0 0 1 2.5,2.5 v 29.5 a 2.5,2.5 0 0 1 -2.5,2.5 v 0 a 2.5,2.5 0 0 1 -2.5,-2.5 z"
             id="path15" />
        </g>
        <g
           class="recharts-layer recharts-bar-rectangle"
           id="g21">
          <path
             x="32.57142857142857"
             y="28"
             width="5"
             height="23"
             radius="5"
             fill="#3872fa"
             class="recharts-rectangle"
             d="m 32.571429,30.5 a 2.5,2.5 0 0 1 2.5,-2.5 v 0 a 2.5,2.5 0 0 1 2.5,2.5 v 18 a 2.5,2.5 0 0 1 -2.5,2.5 v 0 a 2.5,2.5 0 0 1 -2.5,-2.5 z"
             id="path19" />
        </g>
        <g
           class="recharts-layer recharts-bar-rectangle"
           id="g25">
          <path
             x="44.85714285714286"
             y="19.03"
             width="5"
             height="31.97"
             radius="5"
             fill="#3872fa"
             class="recharts-rectangle"
             d="m 44.857143,21.53 a 2.5,2.5 0 0 1 2.5,-2.5 v 0 a 2.5,2.5 0 0 1 2.5,2.5 V 48.5 a 2.5,2.5 0 0 1 -2.5,2.5 v 0 a 2.5,2.5 0 0 1 -2.5,-2.5 z"
             id="path23" />
        </g>
        <g
           class="recharts-layer recharts-bar-rectangle"
           id="g29">
          <path
             x="57.142857142857146"
             y="29.265000000000004"
             width="5"
             height="21.734999999999996"
             radius="5"
             fill="#3872fa"
             class="recharts-rectangle"
             d="m 57.142857,31.765 a 2.5,2.5 0 0 1 2.5,-2.5 v 0 a 2.5,2.5 0 0 1 2.5,2.5 V 48.5 a 2.5,2.5 0 0 1 -2.5,2.5 v 0 a 2.5,2.5 0 0 1 -2.5,-2.5 z"
             id="path27" />
        </g>
        <g
           class="recharts-layer recharts-bar-rectangle"
           id="g33">
          <path
             x="69.42857142857143"
             y="23.515"
             width="5"
             height="27.485"
             radius="5"
             fill="#3872fa"
             class="recharts-rectangle"
             d="m 69.428571,26.015 a 2.5,2.5 0 0 1 2.5,-2.5 v 0 a 2.5,2.5 0 0 1 2.5,2.5 V 48.5 a 2.5,2.5 0 0 1 -2.5,2.5 v 0 a 2.5,2.5 0 0 1 -2.5,-2.5 z"
             id="path31" />
        </g>
        <g
           class="recharts-layer recharts-bar-rectangle"
           id="g37">
          <path
             x="81.71428571428572"
             y="10.864999999999995"
             width="5"
             height="40.135000000000005"
             radius="5"
             fill="#3872fa"
             class="recharts-rectangle"
             d="m 81.714286,13.365 a 2.5,2.5 0 0 1 2.5,-2.5 v 0 a 2.5,2.5 0 0 1 2.5,2.5 V 48.5 a 2.5,2.5 0 0 1 -2.5,2.5 v 0 a 2.5,2.5 0 0 1 -2.5,-2.5 z"
             id="path35" />
        </g>
      </g>
    </g>
    <g
       class="recharts-layer"
       id="g43" />
  </g>
</svg>
