<svg width="21" height="21" viewBox="0 0 24 24" fill="none" xmlns="http://www.w3.org/2000/svg">
                         <path d="M4 2.065v19.87a.065.065 0 0 0 .065.065h15.6a.065.065 0 0 0 .064-.039.064.064 0 0 0 .005-.026V5.228l-3.136-3.131L4.065 2A.065.065 0 0 0 4 2.065Z" stroke="#48639E" stroke-width="1.5" stroke-miterlimit="10" stroke-linecap="round"></path>
                         <path d="M19.325 5.227H16.35a.194.194 0 0 1-.194-.193V2.097" stroke="#48639E" stroke-width="1.5" stroke-miterlimit="10" stroke-linecap="round"></path>
                         <path d="M11.958 10.916a.958.958 0 1 0 0-1.916.958.958 0 0 0 0 1.916ZM11.507 13h.978c.667 0 1.307.188 1.778.524.472.335.737.79.737 1.265V15.8a.15.15 0 0 1-.021.076.21.21 0 0 1-.06.065.306.306 0 0 1-.091.043.38.38 0 0 1-.107.015H9.278a.345.345 0 0 1-.197-.058c-.053-.037-.082-.088-.082-.14v-1.007a1.352 1.352 0 0 1 .188-.685c.125-.217.31-.415.543-.582.232-.166.509-.299.814-.39.304-.09.631-.137.962-.138Z" stroke="#13A2E4" stroke-width="1.5" stroke-miterlimit="10" stroke-linecap="round"></path>
                         <circle cx="12" cy="10" r="1" fill="#13A2E4"></circle>
                      </svg>