   <svg width="21" height="21" viewBox="0 0 24 24" fill="none" xmlns="http://www.w3.org/2000/svg">
                         <path d="M2 5.238v9.402a.97.97 0 0 0 .97.97h5.602a1.813 1.813 0 0 1 1.813 1.813V5.238A1.238 1.238 0 0 0 9.152 4H3.238A1.238 1.238 0 0 0 2 5.238ZM14.395 15.61h-2.197a1.86 1.86 0 0 0-1.281.527 1.829 1.829 0 0 0-.527 1.286V5.238A1.238 1.238 0 0 1 11.623 4h5.913a1.239 1.239 0 0 1 1.233 1.238v6.03" stroke="#48639E" stroke-width="1.5" stroke-miterlimit="10" stroke-linecap="round"></path>
                         <path d="M17.441 17.354a3.04 3.04 0 1 0 0-6.081 3.04 3.04 0 0 0 0 6.081ZM22 19.652l-2.756-2.756" stroke="#13A2E4" stroke-width="1.5" stroke-miterlimit="10" stroke-linecap="round"></path>
                         <path d="M4.535 8.227h3.067M4.535 11.389h3.067M12.967 8.227h3.067" stroke="#48639E" stroke-width="1.5" stroke-miterlimit="10" stroke-linecap="round"></path>
                      </svg>