    <svg width="20" height="20" viewBox="0 0 24 24" fill="none" xmlns="http://www.w3.org/2000/svg">
                         <g stroke-width="1.5" stroke-miterlimit="10" stroke-linecap="round">
                            <path d="M4.789 7.07H1.738a.113.113 0 0 0-.113.113v13.998a1.194 1.194 0 0 0 1.194 1.194h16.467a2.862 2.862 0 0 0 2.87-2.87V1.663a.038.038 0 0 0-.038-.038H5.238a.075.075 0 0 0-.074.075l-.075 19.687a1 1 0 0 1-.963.988h-1.25" stroke="#48639E"></path>
                            <path d="M18.578 7H8.421C8.19 7 8 7.086 8 7.192v4.616c0 .106.189.192.421.192h10.157c.233 0 .422-.086.422-.192V7.192c0-.106-.189-.192-.422-.192ZM8 16.26h11" stroke="#13A2E4"></path>
                         </g>
                      </svg>