<svg width="100" height="100" viewBox="0 0 100 100" xmlns="http://www.w3.org/2000/svg"><title>design-categories-bag-and-tote-design</title><g fill="none" fill-rule="evenodd"><path fill="#F08481" fill-rule="nonzero" d="M88.281 88.623H40.347L44.34 37.52h39.945z"/><path d="M64.505 73.742c5.665 0 10.258-4.616 10.258-10.311S70.17 53.12 64.505 53.12c-5.665 0-10.257 4.616-10.257 10.311s4.592 10.31 10.257 10.31z" stroke="#FFF" stroke-width="2" fill-opacity="0" fill="#0081B2" stroke-dasharray="4"/><g fill="#FFF"><path d="M71.34 61.65a.163.163 0 0 0-.18-.127c-1.357.178-3.65.278-4.024-.21-.861-1.123-.202-4.526-.196-4.56a.162.162 0 1 0-.313-.085c-.009.028-.97 2.826-2.985 3.483-1.825.595-4.386-1.37-4.411-1.39a.161.161 0 0 0-.226.028.165.165 0 0 0 .023.228c.02.017 2.02 1.713 2.107 3.206-.245.783-2.5 1.695-3.357 1.982a.164.164 0 0 0-.104.205.162.162 0 0 0 .201.108c.03-.009 2.959-.868 4.171.677.566.722-.299 2.936-.68 3.729a.165.165 0 0 0 .067.214.162.162 0 0 0 .216-.055c.556-.884 2.204-3.198 3.147-3.293 1.62-.162 3.307 2.186 3.324 2.21.051.072.15.09.224.04a.165.165 0 0 0 .044-.226c-.507-.786-1.724-3.008-1.273-3.835.43-.787 3.117-1.81 4.116-2.137a.164.164 0 0 0 .109-.192"/><path d="M69.685 59.033a1.15 1.15 0 0 1 .335 1.585 1.136 1.136 0 0 1-1.576.337 1.149 1.149 0 0 1-.336-1.584 1.136 1.136 0 0 1 1.577-.338m-10.128 2.245a.86.86 0 0 1 .25 1.188.85.85 0 0 1-1.18.253.86.86 0 0 1-.252-1.188.851.851 0 0 1 1.182-.253m1.14 4.583c.395.258.508.79.251 1.188a.852.852 0 0 1-1.182.253.861.861 0 0 1-.252-1.188.851.851 0 0 1 1.183-.253m4.998 1.192c.529.345.679 1.054.336 1.585a1.135 1.135 0 0 1-1.576.336 1.149 1.149 0 0 1-.336-1.584 1.136 1.136 0 0 1 1.576-.337m3.99-2.865a1.15 1.15 0 0 1 .335 1.585 1.136 1.136 0 0 1-1.576.337 1.15 1.15 0 0 1-.336-1.584 1.136 1.136 0 0 1 1.577-.338m-5.699-6.873c.528.344.678 1.053.335 1.584a1.136 1.136 0 0 1-1.576.337 1.149 1.149 0 0 1-.335-1.584 1.135 1.135 0 0 1 1.576-.337"/></g><path stroke="#5D6D81" stroke-width="2" stroke-linecap="round" stroke-linejoin="round" d="M88.228 89H40.293l3.995-51.104h39.945z"/><path d="M60.266 45.965V31.172c0-5.2 4.173-9.414 9.32-9.414 5.148 0 9.321 4.215 9.321 9.414v14.793" stroke="#5D6D81" stroke-width="2" stroke-linecap="round" stroke-linejoin="round"/><path d="M53.608 37.896v-6.724c0-5.2 4.173-9.414 9.321-9.414s9.32 4.215 9.32 9.414v6.724" stroke="#5D6D81" stroke-width="2" stroke-linecap="round" stroke-linejoin="round"/><path fill="#5BAADC" fill-rule="nonzero" d="M48.282 37.896V24.448H11v64.551h29.293l3.995-51.103z"/><path stroke="#5D6D81" stroke-width="2" stroke-linecap="round" stroke-linejoin="round" d="M48.282 37.896V24.448H11v64.551h29.293l3.995-51.103z"/><path fill="#EBB200" fill-rule="nonzero" d="M43.657 45.965H24.316v43.034h15.978z"/><path stroke="#5D6D81" stroke-width="2" stroke-linecap="round" stroke-linejoin="round" d="M43.657 45.965H24.316v43.034h15.978z"/><path fill="#F08481" fill-rule="nonzero" d="M13.663 24.448h9.32v-6.724h-9.32z"/><path stroke="#5D6D81" stroke-width="2" stroke-linecap="round" stroke-linejoin="round" d="M13.663 24.448h9.32v-6.724h-9.32z"/><path fill="#7DDEB1" fill-rule="nonzero" d="M36.299 24.448h9.32v-9.414H36.3z"/><path stroke="#5D6D81" stroke-width="2" stroke-linecap="round" stroke-linejoin="round" d="M36.299 24.448h9.32v-9.414H36.3z"/><path fill="#EBB200" fill-rule="nonzero" d="M22.984 24.448h13.315V11H22.984z"/><path stroke="#5D6D81" stroke-width="2" stroke-linecap="round" stroke-linejoin="round" d="M22.984 24.448h13.315V11H22.984z"/></g></svg>