<svg xmlns="http://www.w3.org/2000/svg" width="68.668" height="102" viewBox="0 0 68.668 102">
  <g id="Android_Mobile_App_Design" data-name="Android Mobile App Design" transform="translate(-1162 -808)">
    <path id="noun-android-1916424" d="M271.12,81.114v77.777a5.563,5.563,0,0,1-5.556,5.556H221.121a5.563,5.563,0,0,1-5.556-5.556V81.114m50-11.112H221.122A11.111,11.111,0,0,0,210.01,81.114v77.777A11.111,11.111,0,0,0,221.122,170h44.445a11.111,11.111,0,0,0,11.112-11.112V81.114A11.111,11.111,0,0,0,265.567,70Zm-11.111,86.113a2.777,2.777,0,0,0-2.778-2.778H235.01a2.778,2.778,0,1,0,0,5.555h16.667a2.777,2.777,0,0,0,2.778-2.777Z" transform="translate(952.989 738.998)" fill="none" stroke="#022e47" stroke-width="2"/>
    <g id="noun-android-1444652" transform="translate(1178.99 836.38)">
      <path id="Path_6720" data-name="Path 6720" d="M143.824,30.208a.786.786,0,0,0-.788.788v1.246H141.3a10.885,10.885,0,0,0-21.767,0H117.8V31a.786.786,0,0,0-.788-.788,3.953,3.953,0,0,0-3.942,3.942V45.187a.786.786,0,0,0,.788.788h3.154a.781.781,0,0,0,.788-.788V33.819h25.235V45.187a.781.781,0,0,0,.788.788h3.146a.781.781,0,0,0,.788-.788V34.15a3.947,3.947,0,0,0-3.934-3.942Zm-16.973.828a2.57,2.57,0,1,1,2.57-2.57A2.571,2.571,0,0,1,126.851,31.036Zm7.135,0a2.57,2.57,0,1,1,2.57-2.57A2.571,2.571,0,0,1,133.986,31.036Z" transform="translate(-113.07 -21.536)" fill="#05a8da"/>
      <path id="Path_6721" data-name="Path 6721" d="M379.83,464.687a3.465,3.465,0,0,0,6.93,0v-2.093h-6.93Z" transform="translate(-360.302 -430.306)" fill="#05a8da"/>
      <path id="Path_6722" data-name="Path 6722" d="M225.615,464.687a3.461,3.461,0,1,0,6.922,0v-2.093h-6.922Z" transform="translate(-217.376 -430.306)" fill="#05a8da"/>
      <path id="Path_6723" data-name="Path 6723" d="M201.206,226.914a.788.788,0,0,0,.788.788h20.214a.788.788,0,0,0,.788-.788V210.85h-21.79Zm17.884-.75h-5.157a.788.788,0,1,1,0-1.577h5.157a.788.788,0,0,1,0,1.577Zm-5.231-13.312h5.157a.788.788,0,1,1,0,1.577h-5.157a.788.788,0,1,1,0-1.577Zm0,5.867h5.157a.788.788,0,1,1,0,1.577h-5.157a.788.788,0,1,1,0-1.577Zm-9.645-5.244a.791.791,0,0,1,.788-.788h5.518a.786.786,0,0,1,.788.788v11.9a.781.781,0,0,1-.788.788H205a.786.786,0,0,1-.788-.788Z" transform="translate(-194.754 -196.991)" fill="#05a8da"/>
    </g>
  </g>
</svg>
