<svg width="121" height="34" fill="none" xmlns="http://www.w3.org/2000/svg"><path d="M105.684 6.715l-5.132 16.712h-1.089c1.603-4.319 1.567-7.896.718-10.168l-2.489-6.556h-7.751l8.098 20.456c-.478.706-.957.85-1.734.85-.814 0-2.046-.371-3.266-1.077L90.73 32.1c2.046 1.053 4.223 1.818 6.83 1.818 4.224 0 6.186-1.962 8.028-6.854l7.68-20.361h-7.584v.012zm-23.256 4.223h-.957l.538-4.223h-7.345v20.899h7.345v-6.58c0-4.797 2.213-6.986 6.09-6.986h.61V6.284c-3.53-.143-5.432 1.723-6.281 4.654zm-41.5-4.762c-3.397 0-5.407 1.484-7.033 5.204H32.77c1.328-2.428 1.495-4.522 1.495-6.986V.04H26.92c0 2.966-3.098 3.78-5.132 2.703C18.654 1.093 15.568.04 11.895.04 5.53.04 1.32 3.485 1.32 8.689c0 5.67 4.486 7.393 10.3 8.613 4.187.873 5.096 1.483 5.096 2.74 0 1.148-1.089 1.818-3.541 1.818-3.158 0-6.257-1.149-8.948-3.278l-4.211 5c3.361 3.003 7.955 4.487 12.788 4.487 7.213 0 11.568-3.314 11.568-8.841 0-5.132-3.912-7.13-10.719-8.47-3.804-.741-4.69-1.387-4.69-2.632 0-1.04.982-1.818 2.824-1.818 2.106 0 4.151.61 6.807 2.297 2.787 1.758 6.496 1.818 8.338-.132V27.65h7.345V16.333c0-2.333 1.328-3.577 3.099-3.577 1.842 0 3.026 1.244 3.026 3.577V27.65h7.346V13.976c-.012-4.82-2.704-7.8-6.82-7.8zm20.242.108c-6.7 0-11.497 4.833-11.497 10.91 0 6.078 4.798 10.875 11.497 10.875s11.628-4.797 11.628-10.875c0-6.089-4.929-10.91-11.628-10.91zm.036 15.528c-2.584 0-4.39-1.998-4.39-4.63 0-2.596 1.806-4.665 4.39-4.665 2.584 0 4.45 2.057 4.45 4.665 0 2.632-1.866 4.63-4.45 4.63zm49.347 1.854c0-2.74 2.273-4.486 4.833-4.486 2.548 0 4.653 1.759 4.653 4.486 0 2.74-2.105 4.486-4.653 4.486-2.56.012-4.833-1.746-4.833-4.486z" fill="#12162A"/></svg>