<svg width="168" height="43" fill="none" xmlns="http://www.w3.org/2000/svg"><path d="M68.271 29.35c0-.359-.227-.61-.706-.718v-.227c.264 0 1.125.036 1.376.036.215 0 1.053-.036 1.316-.036v.227c-.443.084-.67.347-.67.718v4.486c0 1.424.778 2.225 2.417 2.225 1.411 0 2.5-.634 2.5-2.117v-4.606c0-.335-.215-.598-.742-.694v-.227c.192 0 .91.036 1.16.036.216 0 .958-.036 1.161-.036v.227c-.502.12-.73.347-.73.694v4.366c0 1.962-1.136 3.087-3.6 3.087-2.285 0-3.47-1.041-3.47-2.883V29.35h-.012zm9.815 7.076c.538-.096.742-.371.742-.694v-6.197c0-.526-.275-.765-.754-.897v-.227c.275.024.718.035.957.035.216 0 .539 0 .754-.035l5.383 6.328v-5.395c0-.335-.215-.598-.742-.706v-.227c.192 0 .886.035 1.137.035.215 0 .957-.035 1.148-.035v.227c-.514.12-.765.347-.765.706v7.44h-.323c-.204-.047-.586-.262-1.173-.908l-4.809-5.611v5.467c0 .335.192.598.718.694v.227c-.191 0-.885-.036-1.136-.036-.216 0-.933.036-1.137.036v-.227zm42.457-1.67h.228c.119.466.382.885.753 1.124.383.275.993.407 1.484.407 1.076 0 1.77-.538 1.77-1.388 0-.873-.873-1.34-1.926-1.866-.778-.395-2.321-1.04-2.321-2.524 0-1.388 1.053-2.25 2.752-2.25 1.112 0 1.639.276 2.392.24l-.012 1.687h-.227c-.299-.993-1.196-1.34-2.189-1.34-1.101 0-1.519.634-1.519 1.268 0 .921.897 1.376 1.914 1.83 1.148.515 2.38 1.149 2.38 2.584 0 1.352-1.064 2.345-3.002 2.345-1.149 0-1.843-.335-2.453-.407l-.024-1.71zm23.116-1.506l-2.189-3.517c-.371-.622-.658-.945-1.076-1.1v-.228c.299 0 1.112.036 1.339.036.204 0 1.089-.036 1.4-.036v.228c-.275.047-.407.191-.407.406 0 .192.132.431.252.634.119.204 1.615 2.68 1.615 2.68l1.555-2.68c.155-.263.263-.538.263-.705 0-.156-.108-.288-.383-.323v-.228c.263 0 .814.036.993.036.179 0 .813-.036 1.077-.036v.216c-.598.239-.969.765-1.34 1.375l-1.986 3.326m.132-.43v2.81c0 .276.215.623.693.718v.228c-.263 0-1.136-.036-1.387-.036-.216 0-1.053.036-1.352.036v-.228c.478-.083.706-.442.706-.717v-2.68m-40.602-4.632h5.132c.156 0 .443-.024.598-.084h.227l-.035 1.663h-.228c-.191-.527-.395-.945-1.387-.945h-2.226v2.907h1.723c.251 0 .55-.024.682-.048.383-.084.562-.3.634-.634h.227c-.012.25-.012.825-.012.993 0 .167.012.777.012 1.052h-.227c-.108-.323-.263-.574-.634-.67a3.495 3.495 0 00-.682-.06h-1.723v3.41h2.429c1.065 0 1.364-.443 1.627-1.065l.227.048-.227 1.71c-.79-.07-1.256-.07-2.153-.07h-2.561c-.251 0-1.148.035-1.411.035v-.227c.466-.084.73-.311.73-.766v-6.304c0-.395-.216-.634-.73-.718v-.227h-.012zm-13.125 1c0-.419-.25-.658-.741-.766v-.227c.275 0 1.172.036 1.423.036.216 0 1.137-.036 1.412-.036v.227c-.49.108-.754.323-.754.766v6.269c0 .418.251.658.754.753v.228c-.275 0-1.16-.036-1.412-.036-.227 0-1.148.036-1.423.036v-.228c.502-.095.753-.31.753-.753v-6.269h-.012zm38.961 0c0-.419-.252-.658-.754-.766v-.227c.275 0 1.172.036 1.424.036.215 0 1.136-.036 1.411-.036v.227c-.49.108-.754.323-.754.766v6.269c0 .418.252.658.754.753v.228c-.275 0-1.148-.036-1.411-.036-.216 0-1.149.036-1.424.036v-.228c.502-.095.754-.31.754-.753v-6.269zm7.135-.963c-2.811 0-3.266-.047-3.84-.083v1.699h.227c.215-.754.634-.933 1.172-.933h1.771v6.543c0 .443-.239.658-.754.754v.227c.275 0 1.22-.036 1.436-.036.263 0 1.136.036 1.411.036v-.227c-.502-.108-.753-.335-.753-.754v-6.543h1.746c.563 0 .969.191 1.173.933h.227v-1.7c-.538.037-.993.085-3.816.085zm-22.457 7.228c0 .419.263.658.766.754v.227c-.275 0-1.172-.036-1.436-.036-.215 0-1.1.036-1.375.036v-.227c.466-.084.729-.311.729-.754V29.34c0-.395-.215-.634-.729-.718v-.227c.275 0 1.148.036 1.387.036.407 0 1.544-.072 1.998-.072 1.974 0 3.075.813 3.075 2.213 0 1.1-.814 1.842-2.082 2.141 0 0 .287.168.574.503.347.407 1.292 1.758 1.675 2.225.395.478.885 1.005 1.424 1.029v.18c-.252.059-.67.107-.981.107-.67 0-1.209-.24-1.723-.861-.455-.55-1.208-1.687-1.663-2.261-.287-.371-.634-.646-1.268-.754-.119-.024-.239-.036-.383-.06v2.847h.012zm0-3.361a8.48 8.48 0 001.029.047c1.543 0 2.034-.885 2.034-1.674 0-1.113-.742-1.807-2.094-1.807-.275 0-.682.036-.969.084v3.35zm-19.57-2.877c-.18-.395-.455-.694-.922-.79v-.227c.288 0 1.304.035 1.532.035.203 0 1.088-.035 1.387-.035v.227c-.263.048-.574.203-.574.478 0 .192.12.467.347.97l2.13 4.832 2.01-4.845c.155-.394.274-.693.274-.92 0-.252-.239-.431-.574-.503v-.227c.263 0 .921.035 1.125.035.191 0 .957-.035 1.244-.035v.227c-.503.131-.814.407-1.089 1.065l-2.967 6.986h-.67l-3.254-7.274zm7.592-22.017c-.347-.754-.873-1.304-1.759-1.507v-.443c.551 0 2.393.072 2.812.072.394 0 2.165-.072 2.739-.072v.43c-.502.096-1.077.383-1.077.898 0 .37.228.873.646 1.818l4.032 9.164 3.816-9.188c.299-.742.514-1.316.514-1.746 0-.49-.454-.826-1.088-.945v-.431c.502 0 1.734.072 2.117.072.359 0 1.807-.072 2.369-.072v.419c-.945.263-1.531.801-2.058 2.045l-5.61 13.231h-1.268l-6.185-13.745zM47.197 20.658c.73-.167 1.244-.502 1.244-1.328V7.2c0-.802-.478-1.125-1.244-1.328v-.43c.383 0 2.046.06 2.44.06.467 0 2.202-.06 2.585-.06v.43c-.718.156-1.268.49-1.268 1.328v5.072h9.044V7.2c0-.825-.479-1.16-1.245-1.328v-.43c.383 0 2.082.06 2.548.06.395 0 2.094-.06 2.477-.06v.43c-.73.168-1.28.503-1.28 1.328v12.13c0 .802.514 1.137 1.28 1.328v.395c-.383 0-2.07-.036-2.477-.036-.466 0-2.165.036-2.548.036v-.395c.73-.167 1.245-.502 1.245-1.328V13.6h-9.044v5.73c0 .826.514 1.137 1.28 1.328v.395c-.383 0-2.118-.036-2.584-.036-.407 0-2.058.036-2.44.036v-.395h-.013zm104.574 0c.933-.167 1.459-.538 1.459-1.4V7.2c0-.837-.514-1.16-1.412-1.328v-.43c.527 0 2.225.06 2.692.06.766 0 2.883-.168 4.534-.168 5.563 0 8.936 3.11 8.936 7.824 0 4.594-3.517 7.99-9.247 7.99-1.651 0-3.613-.13-4.379-.13-.466 0-2.057.071-2.572.071v-.43h-.011zm3.959-.801c.562.108 1.615.167 2.441.167 4.665 0 7.106-2.81 7.106-6.735 0-4.067-2.56-6.926-6.939-6.926-.897 0-2.01.072-2.608.167v13.327zm-66.912-.637c0 .801.515 1.244 1.448 1.435v.43c-.526 0-2.225-.071-2.716-.071-.418 0-2.081.072-2.608.072v-.431c.874-.168 1.388-.598 1.388-1.436V7.233c0-.742-.395-1.209-1.376-1.376v-.43c.527 0 2.166.06 2.632.06.766 0 2.931-.133 3.792-.133 3.745 0 5.826 1.544 5.826 4.187 0 2.082-1.555 3.494-3.935 4.068 0 0 .538.31 1.088.945.658.777 2.477 3.385 3.218 4.27.742.898 1.675 1.89 2.692 1.939v.347a9.708 9.708 0 01-1.854.191c-1.28 0-2.285-.443-3.278-1.639-.85-.993-2.333-3.194-3.194-4.283-.539-.694-1.197-1.232-2.405-1.435-.227-.036-.454-.06-.718-.096v5.371zm0-6.365c.503.06 1.233.096 1.95.096 2.92 0 3.84-1.687 3.84-3.17 0-2.118-1.411-3.41-3.971-3.41-.527 0-1.292.072-1.83.168v6.316h.011zm49.298 6.365c0 .801.515 1.244 1.448 1.435v.43c-.527 0-2.225-.071-2.716-.071-.419 0-2.081.072-2.608.072v-.431c.874-.168 1.388-.598 1.388-1.436V7.233c0-.742-.407-1.209-1.376-1.376v-.43c.527 0 2.165.06 2.632.06.766 0 2.931-.133 3.78-.133 3.745 0 5.826 1.544 5.826 4.187 0 2.082-1.555 3.494-3.936 4.068 0 0 .539.31 1.089.945.67.777 2.488 3.385 3.218 4.27.742.898 1.687 1.89 2.692 1.939v.347a9.683 9.683 0 01-1.843.191c-1.28 0-2.296-.443-3.277-1.639-.85-1.04-2.333-3.242-3.183-4.318-.538-.694-1.196-1.233-2.392-1.436-.239-.036-.467-.072-.73-.096v5.408h-.012zm0-6.365c.503.06 1.232.096 1.95.096 2.931 0 3.84-1.687 3.84-3.17 0-2.118-1.411-3.41-3.959-3.41-.539 0-1.304.072-1.831.168v6.316zM66.155 20.65c.993-.227 1.531-.873 1.89-1.734l5.013-12.047c.215-.502.466-1.519.466-1.519h1.4s.251 1.029.455 1.531l5.287 12.07c.383.838.79 1.436 1.843 1.7v.406c-.575 0-2.357-.035-2.764-.035-.407 0-2.105.035-2.68.035v-.406c.766-.192 1.017-.587 1.017-.957 0-.323-.131-.682-.299-1.065l-1.136-2.596H70.82l-1.04 2.607c-.12.299-.251.718-.251.993 0 .43.227.777 1.1 1.017v.406c-.514 0-1.89-.035-2.2-.035l-2.262.035-.012-.406zm9.965-5.837L73.632 9.01l-2.32 5.802h4.808zm39.63 5.837c.993-.227 1.531-.873 1.89-1.734l5.013-12.047c.215-.502.466-1.519.466-1.519h1.4s.251 1.029.454 1.531l5.288 12.07c.371.838.79 1.436 1.83 1.7v.406c-.574 0-2.356-.035-2.763-.035-.395 0-2.094.035-2.668.035v-.406c.778-.192 1.017-.587 1.017-.957 0-.323-.132-.682-.287-1.065l-1.137-2.596h-5.826l-1.04 2.608c-.12.299-.252.718-.252.993 0 .43.228.777 1.101 1.017v.406c-.514 0-1.89-.035-2.201-.035l-2.261.035-.024-.406zm9.977-5.837l-2.488-5.802-2.321 5.802h4.809z" fill="#1D1C1A"/><path d="M.98.562h34.907v13.183c0 6.04-2.249 18.853-17.322 28.388 0 0-16.33-6.82-17.586-28.388V.562z" fill="#A71E28"/><path d="M.914.535h34.944V13.73c0 6.041-2.25 18.866-17.335 28.412 0 0-16.353-6.83-17.597-28.412V.535H.914z" stroke="#141410" stroke-width=".045" stroke-miterlimit="5.333"/><path d="M27.402 17.517s-.311.992-1.699-.024l-4.75-.12s-.621.203-.705-.455c0 0 .12-1.303.06-1.411 0 0 .024-.371-.598-.371 0 0-.957.108-.993-.742 0 0-.168-.909 1.16-.873 0 0 .419.191.455-.347 0 0-.06-3.673-.024-3.96 0 0 .12-.335-.538-.394 0 0-.934.191-1.041-.42 0 0-.06-.932.562-.992 0 0 .766.06.91-.144 0 0 .167.108.143-.562l.024-1.16s.083-.311.562-.275c0 0 .873.06.993-.036 0 0 .191-.252.251-.371 0 0 .455-.024.538.084 0 0 .682.454 3.254.287 0 0 .395 0 .479.12 0 0 .478.37.765-.025 0 0 .42-.083 1.7-.06 0 0 1.387.371 2.344-.43l.31.06s.396.646.683.454c0 0 .85-.083.993.084 0 0 .287.419.143 1.531 0 0-.167.479.646.479 0 0 .933-.168.826.706 0 0 .25.993-1.304.849 0 0-.204.287-.168.479 0 0-.024 3.217-.06 3.588 0 0-.023.515.646.479 0 0 .91-.06.934.765 0 0 .107 1.077-1.197.874 0 0-.395.06-.454.31l-.048 1.413s.024.705-.766.538c-.108 0-4.414.084-4.785-.024 0 .012-.191-.024-.251.096zm-9.142 4.716s.203-.084.251-.227c0 0 .598-.06.682-.144l1.866.144s1.843.143 2.632-.431c0 0 .287 0 .479.084 0 0 .394.084.502.251l1.077-.024s.622.203.562.598v.503s-.12 1.017.168 1.076h.825s.682.311.598.706c0 0 .024.562-.562.682 0 0-.598.168-.79.144 0 0-.203.25-.227.562l-.084 3.708s-.06.395.539.335c0 0 .873-.084 1.136.395 0 0 .227.814-.227.957l-.335.168-.742.12s-.31.023-.335.561v.993s.024.682-.514.682l-.79.06s-.203.167-.598.06c0 0-4.809.084-4.977.024l-.562.12s-.622.562-1.136.143l-.395-.311s-.287.06-.395.024c-.12-.024-5.323.06-5.323.06s-1.1.12-1.185-.252c0 0-.143-1.435-.083-1.614 0 0 0-.42-.252-.455 0 0-1.1-.06-1.136-.168 0 0-.598-.418-.43-.849 0 0 .203-.562.789-.622 0 0 .909.143.909-.108 0 0 .06-.167.06-.454 0 0 .06-3.374.024-3.59 0 0 .083-.418-.287-.418 0 0-.395.108-.646-.06 0 0-.682.024-.826-.514 0 0-.12-.335.06-.622 0 0 .311-.622 1.22-.419 0 0 .515.144.563-.227l-.024-1.364s-.12-.37.598-.562c0 0 .909.251 1.184-.203 0 0 .311-.623.562-.204 0 0 .539.515 2.01.455 0 0 2.548-.204 2.608-.084 0 0 .622.084.79.287l.167.024zm-7.686-4.717s-.311.993-1.7-.024l-4.748-.12s-.622.204-.706-.454c0 0 .12-1.304.06-1.411 0 0 .036-.371-.598-.371 0 0-.957.12-.993-.73 0 0-.168-.91 1.16-.873 0 0 .419.191.455-.335 0 0-.06-3.673-.036-3.96 0 0 .12-.335-.539-.395 0 0-.933.192-1.04-.43 0 0-.06-.934.562-.993 0 0 .766.06.91-.144 0 0 .167.108.143-.574l.024-1.16s.083-.312.562-.288c0 0 .885.06.993-.024 0 0 .203-.25.25-.37 0 0 .456-.024.54.083 0 0 .681.455 3.253.287 0 0 .395 0 .479.12 0 0 .478.371.765-.024 0 0 .419-.084 1.699-.06 0 0 1.388.371 2.345-.418l.31.06s.396.645.683.454c0 0 .849-.084.993.084 0 0 .287.418.143 1.531 0 0-.167.479.646.479 0 0 .933-.168.826.705 0 0 .25.993-1.304.85 0 0-.204.287-.168.478 0 0-.024 3.218-.06 3.59 0 0-.024.502.646.478 0 0 .91-.06.933.765 0 0 .108 1.077-1.184.873 0 0-.395.06-.454.312l-.06 1.411s.024.706-.766.538c-.108 0-4.414.084-4.773-.023 0 0-.191-.036-.251.083z" fill="#fff"/><path d="M27.402 17.517s-.311.992-1.699-.024l-4.75-.12s-.621.203-.705-.455c0 0 .12-1.303.06-1.411 0 0 .024-.371-.598-.371 0 0-.957.108-.993-.742 0 0-.168-.909 1.16-.873 0 0 .419.191.455-.347 0 0-.06-3.673-.024-3.96 0 0 .12-.335-.538-.394 0 0-.934.191-1.041-.42 0 0-.06-.932.562-.992 0 0 .766.06.91-.144 0 0 .167.108.143-.562l.024-1.16s.083-.311.562-.275c0 0 .873.06.993-.036 0 0 .191-.252.251-.371 0 0 .455-.024.538.084 0 0 .682.454 3.254.287 0 0 .395 0 .479.12 0 0 .478.37.765-.025 0 0 .42-.083 1.7-.06 0 0 1.387.371 2.344-.43l.31.06s.396.646.683.454c0 0 .85-.083.993.084 0 0 .287.419.143 1.531 0 0-.167.479.646.479 0 0 .933-.168.826.706 0 0 .25.993-1.304.849 0 0-.204.287-.168.479 0 0-.024 3.217-.06 3.588 0 0-.023.515.646.479 0 0 .91-.06.934.765 0 0 .107 1.077-1.197.874 0 0-.395.06-.454.31l-.048 1.413s.024.705-.766.538c-.108 0-4.414.084-4.785-.024 0 .012-.191-.024-.251.096z" fill="#141410"/><path d="M27.402 17.512s-.311.992-1.699-.024l-4.75-.12s-.621.203-.705-.455c0 0 .12-1.304.06-1.411 0 0 .024-.371-.598-.371 0 0-.957.12-.993-.742 0 0-.168-.909 1.16-.873 0 0 .419.203.455-.335 0 0-.06-3.673-.024-3.96 0 0 .12-.335-.538-.395 0 0-.934.204-1.053-.418 0 0-.06-.933.562-.993 0 0 .766.06.91-.144 0 0 .167.108.143-.562l.036-1.16s.083-.311.562-.276c0 0 .873.06.993-.035 0 0 .191-.252.251-.371 0 0 .455-.024.538.083 0 0 .682.455 3.254.288 0 0 .395 0 .479.12 0 0 .478.37.765-.025 0 0 .42-.083 1.7-.06 0 0 1.387.371 2.344-.43l.31.06s.396.646.683.454c0 0 .85-.084.993.084 0 0 .287.419.143 1.531 0 0-.167.479.646.479 0 0 .933-.168.814.705 0 0 .25.993-1.304.85 0 0-.204.287-.168.478 0 0-.024 3.218-.06 3.59 0 0-.023.514.647.478 0 0 .909-.06.933.765 0 0 .107 1.077-1.197.874 0 0-.395.06-.454.31l-.06 1.412s.024.706-.766.539c-.107 0-4.414.083-4.785-.024.024 0-.167-.024-.227.084z" stroke="#141410" stroke-width=".002" stroke-miterlimit="5.333"/><path d="M22.056 5.863s.06.563.06.706c0 .144-.084 8.17-.084 8.17s.084.623-.454.934c0 0-.144.06-.168-.335l.06-8.482c-.012 0 .048-1.053.586-.993z" fill="#fff"/><path d="M22.062 5.856s.06.563.06.706c0 .144-.084 8.17-.084 8.17s.084.623-.454.934c0 0-.144.06-.168-.335l.06-8.482c-.012 0 .048-1.052.586-.993z" stroke="#141410" stroke-width=".002" stroke-miterlimit="5.333"/><path d="M21.129 15.76s.06-7.978.024-8.122c-.024-.144.024.12.024.12s-.084-1.388.287-1.95c0 0-.12-.479-.766.12l-.024 1.16s0 .646-.598.622c0 0-.682-.024-.993.287 0 0-.167.622.479.514 0 0 1.016 0 1.076.419l-.06 4.27s.228.707-.562.707c0 0-.969-.06-.933.538 0 0 .203.502 1.017.335 0 0 .598.107.562.682v1.076s-.06.431.515.455h4.414s.227.024.227-.251c0 0-.024-.227-.37-.227l-3.673-.06c0-.012-.598.18-.646-.694z" fill="#fff"/><path d="M21.97 15.74s-.12.394.311.31h2.92l.789.168s.825-.203 0-.646c0 0-2.596.024-2.823-.024 0 0-.539-.144-.658-.168 0 0-.287-.12-.539.36z" fill="#fff"/><path d="M21.977 15.74s-.12.394.311.31h2.92l.789.168s.825-.203 0-.658c0 0-2.596.024-2.823-.024 0 0-.539-.143-.659-.167-.012.012-.287-.108-.538.37z" stroke="#141410" stroke-width=".002" stroke-miterlimit="5.333"/><path d="M26.808 16.138s-.538 0-.514.705c0 0 .06.539.622.539 0 0 .502-.084.454-.646 0 0-.31-.706-.562-.598zm.392-.281s.251-.287.43-.287c0 0 2.824.25 3.302-.084 0 0 .431-.084.539 0 0 0 .418.335.418.538 0 0-.024.252-.538.108 0 0-3.194.036-3.361.036.011 0-.874.203-.79-.311z" fill="#fff"/><path d="M27.206 15.857s.252-.287.431-.287c0 0 2.823.25 3.302-.084 0 0 .43-.084.538 0 0 0 .419.335.419.538 0 0-.024.252-.538.108 0 0-3.195.036-3.374.036.012 0-.873.203-.778-.311z" stroke="#141410" stroke-width=".002" stroke-miterlimit="5.333"/><path d="M27.565 16.777s0-.227.395-.227l3.96-.024s.37.203.37-.479c0 0 .144-3.086.156-6.471 0-1.005.048-2.07.012-3.05 0 0-.084-.432-.203-.515 0 0 0-.455.478-.287 0 0 .42.023.311.681l.024.981s-.083.431.682.311c0 0 .766.12.79.395 0 0 .227.562-.682.515H33.2s-.287.167-.192.514l-.083 4.103s-.06.706.622.682c0 0 .706-.024.85.204 0 0 .478.705-.563.646 0 0-.646-.024-.79.083 0 0-.12.144-.203 1.472 0 0 .06.79-.538.706 0 0-3.936.06-4.295-.024.012-.012-.383.095-.443-.216zM22.48 5.596l-.083 9.08s-.024.418.681.502c0 0 .826.084 1.017 0 0 0 .539-.024 1.926.024 0 0 .347.347.371-.084 0 0 .227-7.345.12-8.876 0 0-.036-.646-.515-.682 0 0-2.153.18-2.344 0l-.85-.227c-.012.011-.347.047-.323.263z" fill="#fff"/><path d="M26.952 6.056s-.084 4.27-.06 4.414l-.06 3.589-.12 1.244s.168.251.312.084c0 0 .91-.228 1.471-.144 0 0 1.807.168 2.178-.12 0 0 .287.144.37-.31 0 0 .108-7.92.06-8.064 0 0 .108-1.136.048-1.244 0 0-.024-.25-.502-.024 0 0 .06.228-2.632.144.012 0-1.005-.024-1.065.43zm4.495-.11l-.024 8.936s.227.79.598.706c0 0 .06-.167.084-.454l.12-8.518c-.013 0-.3-1.352-.778-.67z" fill="#fff"/><path d="M31.442 5.94l-.024 8.936s.227.79.598.705c0 0 .06-.167.084-.454l.12-8.518c-.012.012-.3-1.34-.778-.67z" stroke="#141410" stroke-width=".002" stroke-miterlimit="5.333"/><path d="M27.97 8.614c-.083-.227.479-.25.479-.25l.287.06a.86.86 0 01.395.059c.203.311-.144.478-.144.478l-.107.371c-.024.311 0 3.003 0 3.003.06.143.287.395.287.395 0 .251-.311.203-.311.203l-.814.024c-.251-.024-.167-.311-.167-.311.287-.144.37-.646.37-.646V9.2l-.275-.585zm-3.818 2.64l-.06.873.251.42c.168.226-.108.394-.108.394l-.909-.084c-.167-.083 0-.37 0-.37.227-.144.251-.515.251-.515l-.024-1.639.024-1.184c0-.144-.227-.395-.227-.395-.191-.024-.144-.287-.144-.287.06-.144.539-.06.539-.06h1.184c1.137.37.957 1.184.957 1.184.084.814-.79 1.16-.79 1.16l-.06.455.826 1.304c.144.12.12.228.12.228-.12.31-.562 0-.562 0l-1.017-1.591c-.072-.096-.251.107-.251.107zm.035-2.237c.024.622.024 1.472.024 1.472.539.43.85-.168.85-.168.706-.682 0-1.304-.108-1.471-.12-.168-.682-.024-.682-.024l-.084.191zM18.26 22.233s.203-.084.251-.227c0 0 .598-.06.682-.144l1.866.144s1.843.143 2.632-.431c0 0 .287 0 .479.084 0 0 .394.084.502.251l1.077-.024s.622.203.562.598v.503s-.12 1.017.168 1.076h.825s.682.311.598.706c0 0 .024.562-.562.682 0 0-.598.168-.79.144 0 0-.203.25-.227.562l-.084 3.708s-.06.395.539.335c0 0 .873-.084 1.136.395 0 0 .227.814-.227.957l-.335.168-.742.12s-.31.023-.335.561v.993s.024.682-.514.682l-.79.06s-.203.167-.598.06c0 0-4.809.084-4.977.024l-.562.12s-.622.562-1.136.143l-.395-.311s-.287.06-.395.024c-.12-.024-5.323.06-5.323.06s-1.1.12-1.185-.252c0 0-.143-1.435-.083-1.614 0 0 0-.42-.252-.455 0 0-1.1-.06-1.136-.168 0 0-.598-.418-.43-.849 0 0 .203-.562.789-.622 0 0 .909.143.909-.108 0 0 .06-.167.06-.454 0 0 .06-3.374.024-3.59 0 0 .083-.418-.287-.418 0 0-.395.108-.646-.06 0 0-.682.024-.826-.514 0 0-.12-.335.06-.622 0 0 .311-.622 1.22-.419 0 0 .515.144.563-.227l-.024-1.364s-.12-.37.598-.562c0 0 .909.251 1.184-.203 0 0 .311-.623.562-.204 0 0 .539.515 2.01.455 0 0 2.548-.204 2.608-.084 0 0 .622.084.79.287l.167.024z" fill="#141410"/><path d="M18.26 22.206s.191-.083.25-.227c0 0 .599-.06.683-.143l1.866.143s1.842.144 2.632-.43c0 0 .287 0 .478.083 0 0 .395.084.503.251l1.076-.023s.622.203.563.598v.514s-.108 1.017.167 1.077h.826s.681.31.598.706c0 0 .024.562-.563.681 0 0-.598.168-.79.144 0 0-.203.251-.226.562l-.084 3.709s-.06.394.538.335c0 0 .873-.084 1.137.394 0 0 .227.826-.228.957l-.335.168-.741.12s-.311.024-.335.562v.993s.024.682-.515.682l-.79.06s-.203.167-.597.06c0 0-4.81.083-4.977.023l-.562.12s-.622.562-1.125.143l-.394-.31s-.288.06-.395.035c-.12-.036-5.324.06-5.324.06s-1.1.12-1.184-.251c0 0-.144-1.448-.084-1.615 0 0 0-.419-.25-.455 0 0-1.102-.06-1.137-.167 0 0-.599-.43-.42-.85 0 0 .204-.562.79-.622 0 0 .91.144.91-.107 0 0 .06-.168.06-.455 0 0 .06-3.373.023-3.589 0 0 .084-.43-.287-.43 0 0-.395.107-.646-.06 0 0-.682.024-.825-.515 0 0-.12-.335.06-.622 0 0 .31-.622 1.22-.419 0 0 .514.144.562-.227l-.024-1.363s-.12-.371.598-.563c0 0 .91.251 1.185-.203 0 0 .31-.622.562-.203 0 0 .538.514 2.01.454 0 0 2.548-.203 2.608-.084 0 0 .622.084.79.287l.143.012z" stroke="#141410" stroke-width=".002" stroke-miterlimit="5.333"/><path d="M18.997 33.351s.335-.167.562-.107c.228.06 3.53-.024 3.53-.024s1.447.108 1.674-.084l.335-.108s.144-.167.144-.394c0-.228.024-.993.024-.993l.083-.275s-.024-.288 0-7.836c0 0 .108-.586-.25-.957 0 0 0-.227.107-.192.12.036.06.036.06.036s.514-.143.586.06c0 0 .227.682.024 1.077 0 0-.06.825.37.825 0 0 .168.168.503.084 0 0 .73.084.73.311 0 0 0 .514-.515.43l-.682.06s-.454.084-.394.623c.06.538-.024 4.39-.024 4.39s0 .455.706.43c0 0 .873-.023.873.228 0 0 .227.562-.395.598 0 0-1.184-.024-1.1.311 0 0-.084.79-.144.933 0 0 .12.646-.024.766 0 0-.084.37-.85.31 0 0-4.868-.023-5.634.025.048-.072-.407-.132-.299-.527zm-.87-.534s.478.084.478.538c0 .455.024.706-.251.766-.287.06-.586-.024-.67-.395-.096-.37.048-.825.442-.91z" fill="#fff"/><path d="M18.695 32.597s.514-.347.706-.287c0 0 2.572.167 3.361.024.79-.144.311-.024.311-.024s.682 0 .874-.252c0 0 .203-.06.31.144l.42.455s.035.275-.455.25c0 0-4.618 0-4.75.025.013 0-.86.143-.777-.335z" fill="#fff"/><path d="M18.69 32.596s.514-.346.705-.287c0 0 2.572.168 3.374.036.79-.143.31-.036.31-.036s.683 0 .874-.25c0 0 .203-.049.31.143l.42.454s.035.275-.455.251c0 0-4.618 0-4.75.024 0 0-.873.144-.789-.335z" stroke="#141410" stroke-width=".002" stroke-miterlimit="5.333"/><path d="M11.986 22.555s.203 0 .167.335l-.06 8.541s.084.562-.395.933c0 0-.25.311-.25-.167l.119-8.71s.024-.657.419-.932z" fill="#fff"/><path d="M11.986 22.547s.203 0 .167.335l-.06 8.542s.084.562-.395.933c0 0-.25.311-.25-.168l.119-8.709s.024-.646.419-.933z" stroke="#141410" stroke-width=".002" stroke-miterlimit="5.333"/><path d="M11.535 22.61s-.335.623-.311.766l-.024 1.89s-.024 1.22 0 1.364c.024.143-.024 3.709-.024 3.709s-.024.681 0 .909v1.53s-.06.683.454.503c0 0 4.977-.107 5.288-.024 0 0 .455.084.287.311 0 0 0 .204-.31.144 0 0-2.345.227-4.463.143 0 0-1.412.084-1.495-.083 0 0-.228-.024-.228-.85 0 0 0-.765-.06-.909 0 0 .06-.406-.645-.478 0 0-.993.167-1.017-.419 0 0 .143-.419 1.1-.37 0 0 .706.119.563-.455l.083-4.187s.084-.742-.394-.766c0 0-.455-.024-.599.024 0 0-.825 0-.765-.479 0 0 .287-.514 1.1-.394 0 0 .623.107.646-.599 0 0-.024-1.447.311-1.495-.012-.012.706.012.503.215z" fill="#fff"/><path d="M12.378 31.972s.395.419 1.053.395l3.84.06s.43.036.395.251c0 0-.06.335-.562.227l-4.642-.06-.514.036s-.335-.06.203-.706l.227-.203z" fill="#fff"/><path d="M12.385 31.965s.395.418 1.053.395l3.84.06s.43.023.395.25c0 0-.06.336-.563.228l-4.641-.06-.514.024s-.335-.06.203-.706l.227-.191z" stroke="#141410" stroke-width=".002" stroke-miterlimit="5.333"/><path d="M24.257 31.6s.335.647.514.742c0 0 .311.36.228-.287l.06-8.146s-.084-.288 0-.73l-.336-.622s-.37-.287-.37.167l-.06 8.685-.036.192z" fill="#fff"/><path d="M24.264 31.595s.335.646.514.742c0 0 .311.37.227-.288l.06-8.146s-.084-.287 0-.73l-.335-.622s-.37-.287-.37.167l-.06 8.685-.036.192z" stroke="#141410" stroke-width=".002" stroke-miterlimit="5.333"/><path d="M17.978 27.72s.024.683-.06 1.329c-.048.358.12 2.01-.024 2.859 0 0-.024.287-.622.036 0 0-3.625.083-3.732-.036 0 0-.993.036-1.077-.479 0 0 .144-3.876.06-4.02 0 0-.06-2.117 0-2.32 0 0 .084-1.95.024-2.177 0 0 .024-.455-.06-.682 0 0 0-.287.478-.12 0 0 .168.311 1.1.168 0 0 .683.107 1.329.024 0 0 1.435-.108 1.806 0 0 0 .563-.108.73.514l-.024 1.747.168.562.203-.144.084-.43.023-1.867s.108-.335.563-.395c0 0 .706-.083.825-.023.108.06 1.64.143 2.07.06.419-.084.502.287 1.782-.371 0 0 .335.024.335.25 0 0-.12 2.405 0 2.86 0 0 0 4.414-.084 4.725l.06 1.412s.06.622-.933.682c0 0 .622.084-3.278-.024 0 0-.622-.024-1.304.275 0 0-.143-.024-.143-.395 0 0 .107-1.328 0-2.632l-.06-1.447-.24.06z" fill="#fff"/><path d="M15.433 25.725s.084 2.093 0 2.38l-.024.455s.108.311.287.419c0 0 .144.395-.203.37 0 0-.706-.06-.874-.035 0 0-.394 0 0-.503 0 0 .144-.203.108-.706 0 0 0-2.38.06-2.512 0 0 .06-.31-.144-.395l-.335.024-.418.395s-.084.43-.288-.024v-.227l.252-.682.167-.024s.252.168.479.227h1.328l.478-.227s.192.024.144.287c0 0 .084.658-.287.73 0 0-.228-.084-.335-.395.012-.012-.36-.215-.395.443zm6.258-.775s-1.076-.083-1.1 1.077c0 0-.12.79 1.076 1.304 0 0 .874.419.814.957 0 0-.108.957-1.04.479 0 0-.455-.228-.42-.479 0 0-.143-.31-.31-.251 0 0-.204.06-.108.993 0 0 0 .37.418 0l.228.06s.765.622 1.411-.144c0 0 .706-.646.204-1.436 0 0-.371-.562-1.017-.849 0 0-.622-.287-.766-.765 0 0 .204-.85.957-.395 0 0 .287.335.455.395 0 0 .227 0 .167-.515l-.047-.419s-.06-.31-.455 0c-.012-.011-.383.132-.467-.011zm-3.458-.591c.191.143.227.43.227.43.562 1.496 1.053 3.673 1.053 3.673.143.275.394.503.394.503.479.167 0 .31 0 .31-.203.084-.849-.023-.849-.023-.347-.06-.203-.168-.203-.168.143-.143.024-.706.024-.706-.024-.227-.287-.598-.287-.598-.108-.06-.311.192-.311.192s-.311.12-.335 0c-.024-.12-.228-.228-.228-.228-.335 0-.478.838-.478.838.191.706 0 .598 0 .598-.168.227-.706.06-.706.06-.251-.06-.084-.263-.084-.263.311-.06.395-.395.395-.395.143-.192 1.04-3.876 1.04-3.876.096-.144.156-.49.348-.347zm-.443 1.866c-.024.144-.227.933-.227.933l.167.287s.455.024.622.024c.168 0 .204-.143.204-.287 0-.143-.311-.993-.311-.993l-.144-.167-.311.203zm-7.216-8.709s-.311.993-1.7-.024l-4.748-.12s-.622.204-.706-.454c0 0 .12-1.304.06-1.411 0 0 .036-.371-.598-.371 0 0-.957.12-.993-.73 0 0-.168-.91 1.16-.873 0 0 .419.191.455-.335 0 0-.06-3.673-.036-3.96 0 0 .12-.335-.539-.395 0 0-.933.192-1.04-.43 0 0-.06-.934.562-.993 0 0 .766.06.91-.144 0 0 .167.108.143-.574l.024-1.16s.083-.312.562-.288c0 0 .885.06.993-.024 0 0 .203-.25.25-.37 0 0 .456-.024.54.083 0 0 .681.455 3.253.287 0 0 .395 0 .479.12 0 0 .478.371.765-.024 0 0 .419-.084 1.699-.06 0 0 1.388.371 2.345-.418l.31.06s.396.645.683.454c0 0 .849-.084.993.084 0 0 .287.418.143 1.531 0 0-.167.479.646.479 0 0 .933-.168.826.705 0 0 .25.993-1.304.85 0 0-.204.287-.168.478 0 0-.024 3.218-.06 3.59 0 0-.024.502.646.478 0 0 .91-.06.933.765 0 0 .108 1.077-1.184.873 0 0-.395.06-.454.312l-.06 1.411s.024.706-.766.538c-.108 0-4.414.084-4.773-.023 0 0-.191-.036-.251.083z" fill="#141410"/><path d="M10.574 17.512s-.311.992-1.7-.024l-4.748-.12s-.622.203-.706-.455c0 0 .12-1.304.06-1.411 0 0 .024-.371-.598-.371 0 0-.957.12-.993-.73 0 0-.168-.91 1.16-.873 0 0 .419.203.455-.335 0 0-.06-3.673-.024-3.96 0 0 .12-.335-.539-.395 0 0-.933.192-1.04-.43 0 0-.06-.933.562-.993 0 0 .765.06.91-.144-.001 0 .167.108.143-.574l.024-1.16s.083-.311.562-.287c0 0 .873.06.993-.024 0 0 .203-.252.25-.371 0 0 .455-.024.54.083 0 0 .681.455 3.253.288 0 0 .395 0 .479.12 0 0 .478.37.765-.025 0 0 .431-.083 1.699-.06 0 0 1.388.371 2.345-.418l.31.06s.396.646.683.454c0 0 .849-.084.993.084 0 0 .287.43.143 1.531 0 0-.167.479.646.479 0 0 .933-.168.826.705 0 0 .25.993-1.304.85 0 0-.204.287-.168.478 0 0-.024 3.218-.06 3.59 0 0-.024.502.646.478 0 0 .91-.06.933.765 0 0 .108 1.077-1.184.874 0 0-.395.06-.454.31l-.06 1.412s.036.706-.766.539c-.108 0-4.414.083-4.785-.024 0 0-.191-.024-.251.084z" stroke="#141410" stroke-width=".002" stroke-miterlimit="5.333"/><path d="M5.234 5.865s.06.562.06.706c0 .143-.084 8.17-.084 8.17s.084.622-.455.933c0 0-.143.06-.167-.335l.06-8.481c-.012-.012.048-1.053.586-.993z" fill="#fff"/><path d="M5.228 5.858s.06.562.06.706c0 .143-.084 8.17-.084 8.17s.084.622-.454.934c0 0-.144.06-.168-.335l.06-8.482c-.012 0 .048-1.053.586-.993z" stroke="#141410" stroke-width=".002" stroke-miterlimit="5.333"/><path d="M4.301 15.761s.06-7.98.024-8.123c-.023-.143.024.12.024.12s-.083-1.388.287-1.95c0 0-.12-.478-.765.108l-.024 1.16s0 .646-.598.622c0 0-.682-.024-.993.287 0 0-.168.622.478.515 0 0 1.017 0 1.077.418l-.06 4.271s.228.706-.562.706c0 0-.957-.06-.933.538 0 0 .203.515 1.017.335 0 0 .598.12.562.682v1.077s-.06.43.502.454h4.415s.227.024.227-.25c0 0-.024-.228-.37-.228l-3.673-.06c.011 0-.587.191-.635-.682z" fill="#fff"/><path d="M5.06 15.812s-.108.394.31.31h2.92l.789.168s.825-.203 0-.646c0 0-2.608.036-2.823-.024 0 0-.539-.143-.646-.167-.012 0-.3-.12-.55.359z" fill="#fff"/><path d="M5.053 15.816s-.107.395.311.312h2.92l.789.167s.825-.191 0-.646c0 0-2.608.036-2.835-.024 0 0-.539-.143-.646-.167 0-.012-.275-.12-.539.358z" stroke="#141410" stroke-width=".002" stroke-miterlimit="5.333"/><path d="M9.9 16.216s-.537 0-.513.706c0 0 .06.538.622.538 0 0 .514-.083.454-.646 0-.012-.31-.717-.562-.598zm.394-.284s.25-.287.43-.287c0 0 2.824.252 3.314-.083 0 0 .43-.084.538 0 0 0 .42.335.42.538 0 0-.025.251-.54.12 0 0-3.193.024-3.36.024-.013 0-.886.19-.802-.312z" fill="#fff"/><path d="M10.288 15.932s.251-.287.43-.287c0 0 2.824.252 3.314-.083 0 0 .43-.084.539 0 0 0 .418.335.418.538 0 0-.024.251-.538.12 0 0-3.194.024-3.374.024 0 0-.873.19-.79-.312z" stroke="#141410" stroke-width=".002" stroke-miterlimit="5.333"/><path d="M10.744 16.777s0-.227.395-.227l3.96-.024s.37.192.37-.479c0 0 .144-3.086.156-6.483 0-1.005.048-2.07.012-3.05 0 0-.084-.42-.191-.515 0 0 0-.455.478-.275 0 0 .419.023.311.681l.024.993s-.084.42.682.311c0 0 .765.108.79.395 0 0 .227.562-.67.515h-.646s-.288.167-.204.514l-.084 4.103s-.06.706.623.682c0 0 .705-.024.849.192 0 0 .478.705-.562.646 0 0-.646-.024-.79.083 0 0-.108.144-.191 1.472 0 0 .06.79-.539.706 0 0-3.935.06-4.294-.024-.024-.024-.419.095-.479-.216zm-5.09-11.18l-.084 9.08s-.024.419.682.502c0 0 .826.084 1.017 0 0 0 .538-.024 1.926.024 0 0 .335.335.371-.083 0 0 .227-7.358.12-8.877 0 0-.024-.646-.515-.682 0 0-2.153.168-2.344 0l-.85-.227c-.012.012-.359.036-.323.263z" fill="#fff"/><path d="M14.622 5.94l-.024 8.936s.227.79.598.706c0 0 .06-.168.084-.455l.12-8.518c-.013.012-.3-1.351-.778-.67z" fill="#fff" stroke="#141410" stroke-width=".002" stroke-miterlimit="5.333"/><path d="M14.622 5.94l-.024 8.936s.227.79.598.706c0 0 .06-.168.084-.455l.12-8.518c-.013.012-.3-1.351-.778-.67z" stroke="#141410" stroke-width=".002" stroke-miterlimit="5.333"/><path d="M10.128 6.016s-.084 4.27-.06 4.414l-.048 3.59-.12 1.243s.168.263.311.084c0 0 .91-.227 1.472-.144 0 0 1.806.168 2.177-.107 0 0 .287.143.371-.311 0 0 .108-7.92.06-8.063 0 0 .12-1.125.06-1.244 0 0-.024-.252-.503-.036 0 0 .06.227-2.632.143-.024.012-1.04-.024-1.088.43z" fill="#fff"/><path d="M9.251 8.632L9 9.17s-.622 2.74-.957 3.302c0 0-.06.562-.538.12 0 0-1.101-3.482-1.16-3.59l-.372-.25s-.227-.312.168-.336l1.04.024s.336.288-.107.599c0 0 .06.454.646 2.177 0 0 .167.646.37.167l.563-2.01-.167-.598s-.168-.287.083-.31c0 0 .598-.06.682.167zm1.637.454l-.036 3.003-.084.227s-.287.37-.083.395c0 0-.252.167 1.806.203 0 0 .79.144.598-.873 0 0-.084-.371-.37.167 0 0-.084.455-1.101.311 0 0-.228-.191-.228-.418v-1.245s-.035-.31.455-.275c0 0 .538.335.622.192 0 0 .192-.455 0-.73 0 0-.251-.024-.287.084 0 0-.167.335-.646.143 0 0-.227-.454-.084-.825 0 0-.06-.706.431-.646 0 0 .562.108.622.287 0 0 .144.335.287-.06l-.143-.478s-.084-.204-.228-.144c0 0-.957.144-1.076.024l-.766.084s-.108.287.227.418c0-.012.084.048.084.156z" fill="#141410"/></svg>