<svg width="173" height="53" xmlns="http://www.w3.org/2000/svg"><g fill="none"><path d="M41.974 4.108l17.2 17.849-1.799 1.727-2.734-2.807-2.663 2.591c-1.224 1.224-2.88 1.872-4.679 1.8-1.727 0-3.382-.72-4.606-2.016-1.223-1.223-1.87-2.878-1.799-4.678 0-1.727.72-3.382 2.015-4.606l1.8-1.727 1.727 1.8-1.8 1.726a3.757 3.757 0 00-1.223 2.807c0 1.08.36 2.087 1.152 2.88a3.757 3.757 0 002.806 1.223c1.08 0 2.088-.36 2.88-1.152l2.662-2.59-10.94-11.156v-3.67zm-31.668.504v16.985H8.651v-1.8c-.72 1.296-2.087 2.016-3.815 2.016-2.734 0-4.822-2.231-4.822-5.182 0-2.95 2.088-5.182 4.822-5.182 1.872 0 3.095.936 3.815 2.231V4.612h1.655zM8.723 16.559c0-2.159-1.44-3.67-3.527-3.67s-3.454 1.511-3.454 3.67c0 2.16 1.367 3.743 3.454 3.743s3.527-1.584 3.527-3.743zm12.45.576c0 1.943-1.223 3.167-3.094 3.167-1.655 0-2.447-.936-2.447-2.663v-5.902h-1.655v6.118c0 2.519 1.511 4.03 3.742 4.03 1.584 0 2.88-.576 3.527-1.871v1.655h1.727V11.665h-1.655v5.47h-.144zm10.869-5.686c-1.584 0-2.88.576-3.527 1.943v-1.727H26.86v9.932h1.655v-5.47c0-1.943 1.224-3.166 3.095-3.166 1.655 0 2.447 1.007 2.447 2.734v5.83h1.655V15.48c0-2.52-1.511-4.03-3.67-4.03z" fill="#005172"/><path d="M57.735 8.858c1.224 1.224 1.872 2.88 1.8 4.678 0 1.728-.72 3.383-2.016 4.607l-.216.215-1.727-1.799.216-.216a3.757 3.757 0 001.224-2.807c0-1.08-.36-2.087-1.152-2.879-.432-.431-.864-.791-1.44-1.007V6.987c1.296.288 2.448.936 3.311 1.871zM43.63 1.59l-1.224 1.224 1.728 1.799 1.223-1.152c1.224-1.151 3.095-1.151 4.247.072 1.151 1.224 1.151 3.095-.072 4.247l-1.225 1.15 1.727 1.8 1.224-1.152c2.231-2.087 2.231-5.614.144-7.845-2.087-2.16-5.542-2.231-7.773-.144zm68.373 17.921c.647 1.223 2.087 2.303 4.246 2.303 2.519 0 3.598-1.295 3.598-2.95 0-1.944-1.583-2.592-3.31-3.024-1.728-.503-2.375-.791-2.375-1.727 0-.792.647-1.295 1.727-1.295.936 0 1.655.431 2.16 1.151l1.15-.863c-.719-1.008-1.799-1.584-3.31-1.584-1.8 0-3.239 1.008-3.239 2.735 0 1.871 1.44 2.519 3.023 2.95 1.727.505 2.591.72 2.591 1.8 0 .936-.792 1.512-2.087 1.512-1.44 0-2.303-.72-2.879-1.656l-1.295.648zm12.09-.936c0 2.375 1.152 3.239 2.664 3.239 1.223 0 2.015-.504 2.447-1.008l-.936-1.08c-.288.289-.648.577-1.367.577-.72 0-1.152-.432-1.152-1.728v-5.541h2.807v-1.44h-2.807V4.612h-1.655v7.053h-1.512v1.44h1.512v5.47zm8.565 3.023h1.656v-5.254c0-2.303 1.151-3.31 2.59-3.31.648 0 1.08.143 1.368.36l.648-1.44a3.07 3.07 0 00-1.727-.504c-1.152 0-2.304.36-2.88 1.871l.073-1.727h-1.656v10.004h-.072zm16.122-5.686c-.144-1.727-1.224-3.022-3.31-3.022-1.872 0-3.168 1.223-3.455 3.022h6.765zm-3.095 4.463c1.512 0 2.52-.576 3.167-1.296l1.007 1.008c-.935 1.007-2.23 1.727-4.174 1.727-3.239 0-5.398-2.231-5.398-5.182 0-2.879 2.231-5.182 5.11-5.182 3.167 0 5.11 2.447 4.966 5.758h-8.492c.36 1.871 1.655 3.167 3.814 3.167zm16.05-4.463c-.144-1.727-1.224-3.022-3.311-3.022-1.871 0-3.167 1.223-3.455 3.022h6.766zm-3.023 4.463c1.511 0 2.519-.576 3.167-1.296l1.007 1.008c-.935 1.007-2.23 1.727-4.174 1.727-3.239 0-5.398-2.231-5.398-5.182 0-2.879 2.231-5.182 5.11-5.182 3.167 0 5.11 2.447 4.966 5.758h-8.493c.288 1.871 1.584 3.167 3.815 3.167zm8.924-1.8c0 2.375 1.152 3.239 2.663 3.239 1.224 0 2.015-.504 2.447-1.008l-.935-1.08c-.288.289-.648.577-1.368.577-.72 0-1.151-.432-1.151-1.728v-5.541h2.807v-1.44h-2.807V4.612h-1.656v7.053h-1.511v1.44h1.511v5.47zm-97.09-7.125c-1.871 0-3.095.72-3.814 2.015V4.612h-1.656v16.985h1.656v-1.8c.72 1.296 2.087 2.016 3.814 2.016 2.735 0 4.822-2.231 4.822-5.182 0-3.023-2.087-5.182-4.822-5.182zm-.36 8.853c-2.087 0-3.526-1.584-3.526-3.743s1.44-3.67 3.526-3.67c2.087 0 3.455 1.511 3.455 3.67 0 2.16-1.368 3.743-3.455 3.743zm10.364-7.054v-1.583h-1.727v9.932h1.655v-5.254c0-2.303 1.152-3.31 2.591-3.31.648 0 1.08.143 1.368.36l.647-1.44a3.07 3.07 0 00-1.727-.504c-1.08 0-2.16.36-2.807 1.8zm10.796-1.799c-1.871 0-3.167.72-4.03 1.943l1.007.936c.648-.864 1.511-1.44 2.879-1.44 1.44 0 2.303.72 2.303 2.664v.215H90.41c-2.087 0-3.742.936-3.742 3.023s1.511 3.023 3.67 3.023c1.512 0 2.52-.432 3.239-1.367v1.151h1.583V15.48c-.072-2.735-1.583-4.03-3.814-4.03zm2.231 6.837c0 1.296-1.296 2.16-2.807 2.16-1.583 0-2.375-.576-2.375-1.728 0-1.223 1.008-1.655 2.231-1.655h2.951v1.223zm13.53-13.674v8.852c-.72-1.295-1.943-2.015-3.814-2.015-2.663 0-4.822 2.231-4.822 5.182 0 2.95 2.087 5.182 4.822 5.182 1.727 0 3.095-.72 3.815-2.015v1.8h1.655V4.611h-1.655zm-3.526 15.69c-2.087 0-3.455-1.584-3.455-3.743s1.368-3.67 3.455-3.67c2.087 0 3.527 1.511 3.527 3.67.072 2.16-1.368 3.743-3.527 3.743zm30.228-6.046h.576v-2.663h-.576v2.663z" fill="#3095B4"/><path d="M26.617 38.6v-.752h-2.643v-5.296h-.83V38.6h3.473zm6.357 0v-.752h-3.473v-1.926h3.015v-.752h-3.015v-1.866h3.37v-.752h-4.2V38.6h4.303zm2.374 0l.63-1.469h3.189l.64 1.469h.898l-2.679-6.048h-.864L34.475 38.6h.873zm3.5-2.22h-2.541l1.261-2.938 1.28 2.938zm6.175 2.22c.593 0 1.129-.131 1.607-.393a2.916 2.916 0 001.127-1.084c.274-.461.41-.977.41-1.547s-.135-1.086-.406-1.547a2.893 2.893 0 00-1.118-1.084 3.245 3.245 0 00-1.595-.393h-2.462V38.6h2.437zm.043-.752h-1.65v-4.544h1.615a2.3 2.3 0 011.162.298c.349.198.624.47.825.816.202.346.303.735.303 1.167 0 .426-.1.812-.298 1.157-.199.346-.47.617-.812.813a2.266 2.266 0 01-1.145.293zm6.115.752v-6.048h-.83V38.6h.83zm3.557 0v-4.683l3.456 4.683h.838v-6.048h-.82v4.692l-3.465-4.692h-.838V38.6h.83zm9.657.06c.404 0 .81-.072 1.219-.216a3.672 3.672 0 001.071-.578v-2.22h-.734v1.796c-.225.15-.468.267-.73.35-.263.084-.52.125-.774.125a2.366 2.366 0 01-2.056-1.17 2.273 2.273 0 01-.32-1.18 2.31 2.31 0 011.175-2.022c.363-.207.76-.31 1.193-.31a2.6 2.6 0 01.963.185c.314.124.592.298.834.523l.475-.605a3.306 3.306 0 00-1.041-.613c-.4-.15-.811-.225-1.231-.225a3.3 3.3 0 00-1.625.406 3.05 3.05 0 00-1.158 1.11c-.282.47-.423.987-.423 1.551 0 .565.14 1.085.42 1.56.279.475.66.85 1.144 1.123.484.274 1.017.41 1.598.41zm9.897-.008c.438 0 .825-.07 1.162-.212a1.8 1.8 0 00.787-.6c.187-.26.28-.562.28-.908 0-.374-.089-.675-.267-.902a1.72 1.72 0 00-.648-.514 8.678 8.678 0 00-.994-.363 9.232 9.232 0 01-.769-.273 1.346 1.346 0 01-.467-.32.734.734 0 01-.19-.522c0-.236.106-.422.316-.557.21-.136.49-.203.842-.203.254 0 .532.044.834.134.302.089.595.223.877.401l.345-.743a3.574 3.574 0 00-.928-.427 3.63 3.63 0 00-1.067-.16c-.427 0-.801.066-1.124.199a1.691 1.691 0 00-.751.57 1.425 1.425 0 00-.268.855c0 .369.088.665.263.89.176.225.39.395.644.51.254.115.582.233.985.354.328.098.589.187.782.268.193.08.353.19.48.328a.75.75 0 01.19.527.74.74 0 01-.35.644c-.234.158-.552.238-.955.238-.34 0-.69-.077-1.05-.23a3.12 3.12 0 01-.972-.652l-.371.717a3.52 3.52 0 001.088.692c.42.172.853.259 1.296.259zm5.32-.052v-4.83l2.169 4.19h.51l2.151-4.19.009 4.83h.777v-6.048h-.993l-2.195 4.25-2.212-4.25h-.985V38.6h.77zm12.647 0v-.752h-3.473v-1.926H91.8v-.752h-3.015v-1.866h3.37v-.752h-4.2V38.6h4.303zm4.11.052c.438 0 .826-.07 1.163-.212.336-.141.599-.341.786-.6.187-.26.28-.562.28-.908 0-.374-.089-.675-.267-.902a1.72 1.72 0 00-.648-.514 8.678 8.678 0 00-.994-.363 9.232 9.232 0 01-.769-.273 1.346 1.346 0 01-.466-.32.734.734 0 01-.19-.522.63.63 0 01.315-.557c.21-.136.49-.203.842-.203.254 0 .532.044.834.134.302.089.595.223.877.401l.346-.743a3.574 3.574 0 00-.93-.427 3.63 3.63 0 00-1.066-.16c-.426 0-.8.066-1.123.199a1.691 1.691 0 00-.752.57 1.425 1.425 0 00-.268.855c0 .369.088.665.264.89.175.225.39.395.643.51.254.115.582.233.985.354.329.098.59.187.782.268.193.08.353.19.48.328a.75.75 0 01.19.527.74.74 0 01-.35.644c-.233.158-.552.238-.955.238-.34 0-.69-.077-1.05-.23a3.12 3.12 0 01-.972-.652l-.371.717a3.52 3.52 0 001.088.692c.42.172.853.259 1.296.259zm10.459.008c.582 0 1.116-.136 1.603-.41a3.063 3.063 0 001.577-2.683c0-.564-.142-1.081-.424-1.55a3.051 3.051 0 00-1.153-1.11 3.242 3.242 0 00-1.603-.407c-.588 0-1.123.136-1.607.406a3.06 3.06 0 00-1.15 1.11c-.281.47-.423.987-.423 1.551a3.063 3.063 0 001.577 2.683c.487.274 1.021.41 1.603.41zm.009-.751c-.42 0-.811-.105-1.171-.316a2.387 2.387 0 01-.86-.85 2.25 2.25 0 01-.32-1.176c0-.426.107-.816.32-1.17a2.364 2.364 0 012.03-1.153c.421 0 .808.103 1.163.31.354.208.636.488.846.843.21.354.316.744.316 1.17 0 .427-.105.818-.316 1.175-.21.358-.492.641-.846.851-.355.21-.742.316-1.162.316zm6.192.691v-2.557h2.791v-.752h-2.79v-1.987h3.101l.009-.752h-3.94V38.6h.83zm9.171 0v-6.048h-.829V38.6h.83zm3.558 0v-4.683l3.456 4.683h.838v-6.048h-.82v4.692l-3.465-4.692h-.839V38.6h.83zm9.467 0c.593 0 1.13-.131 1.607-.393a2.916 2.916 0 001.128-1.084c.273-.461.41-.977.41-1.547s-.135-1.086-.406-1.547a2.893 2.893 0 00-1.119-1.084 3.245 3.245 0 00-1.594-.393h-2.462V38.6h2.436zm.043-.752h-1.65v-4.544h1.616c.426 0 .813.099 1.162.298.348.198.623.47.825.816.202.346.302.735.302 1.167 0 .426-.099.812-.298 1.157-.198.346-.47.617-.812.813a2.266 2.266 0 01-1.145.293zm6.115.752v-6.048h-.83V38.6h.83zm2.763 0l.63-1.469h3.189l.639 1.469h.899l-2.679-6.048h-.864l-2.687 6.048h.873zm3.499-2.22h-2.54l1.261-2.938 1.279 2.938zM79.441 52.6v-.752h-3.284l1.823-1.866c.75-.778 1.124-1.434 1.124-1.97a1.3 1.3 0 00-.532-1.088c-.354-.271-.825-.407-1.412-.407-.375 0-.748.074-1.12.22a4.021 4.021 0 00-1.049.619l.354.63c.248-.23.524-.41.83-.54.305-.13.599-.194.881-.194.369 0 .658.078.868.233.21.156.316.369.316.64 0 .184-.075.401-.225.652-.15.25-.351.502-.605.756l-2.34 2.427v.639h4.372zm4.421.043c.812 0 1.437-.265 1.875-.795.438-.53.657-1.287.657-2.272 0-.985-.22-1.741-.657-2.268-.438-.527-1.063-.79-1.875-.79-.818 0-1.444.263-1.88.79-.434.527-.651 1.283-.651 2.268 0 .985.217 1.742.652 2.272.435.53 1.061.795 1.88.795zm0-.665c-.553 0-.97-.202-1.253-.605-.282-.403-.423-1.002-.423-1.797 0-1.601.559-2.402 1.676-2.402 1.118 0 1.676.8 1.676 2.402 0 .795-.14 1.394-.423 1.797-.282.403-.7.605-1.253.605zm8.716.622v-.752h-3.284l1.823-1.866c.75-.778 1.124-1.434 1.124-1.97a1.3 1.3 0 00-.532-1.088c-.354-.271-.825-.407-1.412-.407-.375 0-.748.074-1.12.22a4.021 4.021 0 00-1.049.619l.354.63c.248-.23.524-.41.83-.54.305-.13.599-.194.881-.194.369 0 .658.078.868.233.21.156.316.369.316.64 0 .184-.075.401-.225.652-.15.25-.351.502-.605.756l-2.341 2.428v.639h4.372zm6 0v-.752h-3.284l1.823-1.866c.75-.778 1.124-1.434 1.124-1.97a1.3 1.3 0 00-.532-1.088c-.354-.271-.825-.407-1.412-.407-.375 0-.748.074-1.12.22a4.021 4.021 0 00-1.049.619l.354.63c.248-.23.524-.41.83-.54.305-.13.599-.194.881-.194.369 0 .658.078.868.233.21.156.316.369.316.64 0 .184-.075.401-.225.652-.15.25-.351.502-.605.756l-2.341 2.428v.639h4.372z" fill="#333"/></g></svg>