<svg width="165" height="48" fill="none" xmlns="http://www.w3.org/2000/svg"><path d="M5.227 40.87v-6.902h5.407c1.974 0 3.697-.3 5.144-.897l.312-.132c1.519-.682 2.68-1.663 3.505-2.943.825-1.28 1.232-2.787 1.232-4.546 0-1.758-.407-3.265-1.232-4.546-.826-1.28-1.986-2.26-3.505-2.942-1.52-.682-3.338-1.03-5.456-1.03H.79v23.939h4.438zm0-20.18h5.192c1.962 0 3.433.406 4.426 1.231.993.826 1.484 1.998 1.484 3.518 0 1.507-.49 2.667-1.484 3.505-.993.837-2.464 1.244-4.426 1.244H5.227v-9.499zm24.237 20.18v-8.852c0-1.866.479-3.278 1.436-4.223.957-.945 2.249-1.423 3.864-1.423.155 0 .323 0 .478.012.156.011.335.035.515.083V22.4c-1.759 0-3.218.323-4.39.957a5.84 5.84 0 00-2.082 1.878l-.024.036v-2.68h-4.068v18.256h4.271v.024zm18.291.24c1.89 0 3.577-.407 5.049-1.208a9.004 9.004 0 003.457-3.338c.837-1.412 1.244-3.015 1.244-4.821 0-1.842-.419-3.47-1.244-4.857a8.857 8.857 0 00-3.457-3.278c-1.472-.801-3.147-1.196-5.049-1.196-1.866 0-3.529.395-4.988 1.196a9.08 9.08 0 00-3.458 3.302c-.849 1.4-1.268 3.014-1.268 4.833 0 1.806.42 3.41 1.269 4.82.837 1.413 1.997 2.525 3.457 3.339 1.447.801 3.122 1.208 4.988 1.208zm0-3.66c-1.029 0-1.938-.228-2.751-.683-.814-.454-1.448-1.112-1.926-1.986-.479-.86-.718-1.878-.718-3.038 0-1.184.24-2.201.718-3.063.478-.849 1.124-1.507 1.926-1.962.801-.454 1.734-.681 2.787-.681 1.029 0 1.95.227 2.764.681a4.905 4.905 0 011.926 1.962c.466.85.705 1.879.705 3.063 0 1.16-.239 2.177-.705 3.039-.467.86-1.113 1.53-1.926 1.985-.814.455-1.759.682-2.8.682zm18.112 10.048v-8.877l.06.072c.442.49.945.91 1.495 1.245l.24.143c1.22.682 2.572 1.029 4.055 1.029 1.806 0 3.385-.383 4.773-1.16a8.595 8.595 0 003.278-3.266c.801-1.4 1.208-3.051 1.208-4.941 0-1.89-.407-3.53-1.208-4.929-.814-1.387-1.902-2.476-3.278-3.254-1.376-.777-2.967-1.16-4.773-1.16-1.555 0-2.931.335-4.14 1.005a6.717 6.717 0 00-1.901 1.59l-.012.025v-2.417h-4.068v24.895h4.271zm5.371-10.049c-1.028 0-1.95-.227-2.763-.682-.825-.454-1.471-1.112-1.95-1.986-.479-.86-.718-1.878-.718-3.038 0-1.184.24-2.201.718-3.063.478-.849 1.124-1.507 1.95-1.962.825-.454 1.747-.681 2.763-.681 1.017 0 1.938.227 2.752.681.813.455 1.447 1.113 1.926 1.962.478.85.718 1.879.718 3.063 0 1.16-.24 2.177-.718 3.039-.479.86-1.125 1.53-1.926 1.985-.802.455-1.723.682-2.752.682zm22.024 3.66c1.89 0 3.577-.406 5.048-1.207a8.923 8.923 0 003.458-3.338c.837-1.412 1.244-3.015 1.244-4.821 0-1.842-.419-3.47-1.244-4.857a8.862 8.862 0 00-3.458-3.278c-1.471-.79-3.146-1.196-5.048-1.196-1.866 0-3.529.395-4.989 1.196a9.08 9.08 0 00-3.457 3.302c-.837 1.4-1.268 3.014-1.268 4.833 0 1.806.419 3.41 1.268 4.82.838 1.413 1.998 2.525 3.457 3.339 1.46.813 3.11 1.208 4.989 1.208zm0-3.66c-1.029 0-1.938-.227-2.751-.682-.814-.454-1.448-1.112-1.926-1.986-.479-.86-.718-1.878-.718-3.038 0-1.184.239-2.201.718-3.063.478-.849 1.124-1.507 1.926-1.962.813-.454 1.734-.681 2.787-.681 1.029 0 1.95.227 2.763.681.826.455 1.46 1.113 1.926 1.962.467.85.706 1.879.706 3.063 0 1.16-.24 2.177-.706 3.039-.466.86-1.112 1.53-1.926 1.985-.825.455-1.758.682-2.799.682zm19.487 3.66c1.711 0 3.183-.238 4.415-.705 1.232-.467 2.177-1.125 2.859-1.962.67-.85 1.005-1.83 1.005-2.979 0-1.029-.204-1.854-.61-2.5a4.132 4.132 0 00-1.627-1.483 9.883 9.883 0 00-2.201-.838 21.289 21.289 0 00-2.405-.466 23.023 23.023 0 01-2.201-.395c-.658-.155-1.196-.37-1.603-.646-.407-.275-.61-.682-.61-1.232 0-.598.311-1.089.945-1.472.622-.382 1.591-.586 2.883-.586a12.4 12.4 0 012.62.287c.885.192 1.746.55 2.62 1.077l1.639-3.254c-.826-.502-1.855-.885-3.111-1.16a17.385 17.385 0 00-3.732-.407c-1.639 0-3.063.24-4.259.706-1.196.466-2.129 1.124-2.787 1.986-.658.849-.993 1.866-.993 3.026 0 1.053.203 1.89.61 2.536a4.539 4.539 0 001.603 1.52c.658.37 1.4.657 2.201.849.813.191 1.615.347 2.429.466.813.12 1.543.24 2.201.371.658.132 1.196.335 1.603.599.406.263.61.645.61 1.148 0 .61-.299 1.1-.909 1.471-.599.36-1.579.55-2.919.55-1.137 0-2.285-.167-3.422-.514-1.136-.347-2.117-.777-2.943-1.304l-1.638 3.254c.825.574 1.926 1.053 3.337 1.448 1.412.395 2.859.61 4.39.61zm16.234-.238V22.615h-4.271v18.256h4.271zm10.468 0V26.168h4.892l-1.471-3.421h-3.565v-1.1c0-.91.191-1.604.586-2.094l.096-.12c.455-.49 1.124-.73 2.022-.73.43 0 .849.06 1.268.192.406.12.239.06.562.31v-3.72c-.921-.155-1.639-.239-2.141-.239-2.094 0-3.709.574-4.833 1.723-1.125 1.148-1.687 2.68-1.687 4.593v1.16h-3.003v3.422h3.003v14.703h4.271v.024zm9.259 6.866c1.029 0 1.962-.155 2.823-.478.861-.323 1.627-.873 2.321-1.675.694-.802 1.328-1.878 1.902-3.254l8.542-19.727h-4.104l-5.778 13.506-5.742-13.506h-4.45c4.211 9.654 6.663 15.289 7.381 16.916.155.347.383.813.419 1.256.012.191-.036.49-.144.873-.371.826-.778 1.436-1.208 1.842l-.132.108c-.478.383-1.1.586-1.878.586h-3.146v3.553h3.194z" fill="#27B6D3"/><path fill-rule="evenodd" clip-rule="evenodd" d="M120.801 9.636c1.46 1.459 2.513 2.572 3.159 3.325.646.754 1.531 1.914 2.655 3.47 2.381-3.41 4.343-6.054 5.886-7.932 1.543-1.878 3.996-4.642 7.357-8.278l2.56 4.27c-3.349 2.716-5.981 5.049-7.907 6.999-1.926 1.95-4.558 4.964-7.896 9.044-1.483-1.496-2.751-2.728-3.804-3.685-1.052-.957-2.56-2.249-4.534-3.888l2.524-3.325z" fill="#8FC867"/></svg>