<svg xmlns="http://www.w3.org/2000/svg" viewBox="0 0 156.91 46.871">
  <g>
    <path d="M64.731,26.514a7.1,7.1,0,1,1-.024-6.508l.065.127h4.639l-.1-.307a11.443,11.443,0,1,0,.017,6.871l.095-.307H64.8Z" fill="#4a4f54"/>
    <path d="M117.071,28.692a2.875,2.875,0,1,0,.062,5.749,2.812,2.812,0,0,0,2.908-2.9A2.847,2.847,0,0,0,117.071,28.692Z" fill="#4a4f54"/>
    <path d="M10.654,21.276l-.42-.136c-2.385-.765-4.447-1.426-4.447-2.9v-.083c0-1.267,1.176-2.085,3-2.085A12.625,12.625,0,0,1,14.9,18.122l.053.033,2.037-3.65-.047-.029a15.2,15.2,0,0,0-8.034-2.484c-4.6,0-7.813,2.755-7.813,6.7v.083c0,4.169,3.534,5.516,6.847,6.449.171.053.343.1.514.156,2.315.7,4.311,1.306,4.311,2.841V28.3c0,1.435-1.243,2.291-3.322,2.291a12.332,12.332,0,0,1-7.1-2.669l-.051-.039L.03,31.321,0,31.366l.041.032A15.293,15.293,0,0,0,9.316,34.67c5.023,0,8.144-2.646,8.144-6.907v-.082C17.46,23.916,14.188,22.377,10.654,21.276Z" fill="#4a4f54"/>
    <path d="M27.981,6.893H23.089v5.864H20.381v4.205h2.708V28.2c0,4.689,2.548,6.269,6.144,6.269a8.46,8.46,0,0,0,4.409-1.093v-4a6.593,6.593,0,0,1-3.033.727c-1.656,0-2.628-.768-2.628-2.67V16.959h5.743v-4.2H27.981Z" fill="#4a4f54"/>
    <path d="M43.451,12.75H38.559V34.1h4.892Z" fill="#4a4f54"/>
    <path d="M92.576,12.744H86.632l-8.855,9.463V4.576H72.884V34.1h4.893V27.989l3.032-3.154,6.31,9.26h5.74L84.087,21.437Z" fill="#4a4f54"/>
    <path d="M110.611,12.747,105.071,28.6,99.048,12.747H93.789l8.9,21.39c-.809,1.819-1.656,2.427-3.032,2.427a6.025,6.025,0,0,1-2.87-.809l-1.656,3.638a10.079,10.079,0,0,0,5.054,1.294c3.438,0,5.339-1.619,7.037-5.986l8.492-21.957h-5.1Z" fill="#4a4f54"/>
    <path d="M40.935,0a4.28,4.28,0,0,0-4.288,4.285,4.254,4.254,0,0,0,4.379,4.305A4.2,4.2,0,0,0,45.37,4.262,4.251,4.251,0,0,0,40.935,0Z" fill="#31b4e7"/>
    <path d="M129.891,12.781H125V34.13h4.892Z" fill="#4a4f54"/>
    <path d="M127.523,46.869a4.295,4.295,0,1,0-.092-8.589,4.2,4.2,0,0,0-4.343,4.328A4.253,4.253,0,0,0,127.523,46.869Z" fill="#31b4e7"/>
    <path d="M145.353,12.088a11.354,11.354,0,0,0-11.6,11.351v.082A11.231,11.231,0,0,0,145.27,34.748a11.355,11.355,0,0,0,11.64-11.309v-.083A11.248,11.248,0,0,0,145.353,12.088Zm6.582,11.433c0,3.745-2.551,6.869-6.579,6.869a6.692,6.692,0,0,1-6.62-6.951v-.083c0-3.782,2.551-6.909,6.54-6.909a6.712,6.712,0,0,1,6.662,6.992v.082Z" fill="#4a4f54"/>
  </g>
</svg>
