<svg id="Pocket_Friendly_" data-name="Pocket Friendly " xmlns="http://www.w3.org/2000/svg" xmlns:xlink="http://www.w3.org/1999/xlink" width="100" height="100" viewBox="0 0 100 100">
  <defs>
    <radialGradient id="radial-gradient" cx="0.543" cy="0.13" r="1.109" gradientTransform="matrix(0.999, 0.039, -0.039, 0.999, 0.005, -0.021)" gradientUnits="objectBoundingBox">
      <stop offset="0" stop-color="#006775"/>
      <stop offset="0.254" stop-color="#006775"/>
      <stop offset="0.647" stop-color="#006775"/>
      <stop offset="1" stop-color="#055661"/>
    </radialGradient>
    <radialGradient id="radial-gradient-2" cx="0.631" cy="0.123" r="1.188" gradientTransform="matrix(0.967, 0.254, -0.254, 0.967, 0.037, -0.131)" gradientUnits="objectBoundingBox">
      <stop offset="0" stop-color="#fff"/>
      <stop offset="0.221" stop-color="#fff8f7"/>
      <stop offset="0.563" stop-color="#f6ffff"/>
      <stop offset="0.983" stop-color="#055661"/>
      <stop offset="1" stop-color="#ffc6bc"/>
    </radialGradient>
  </defs>
  <g id="Group_132" data-name="Group 132">
    <path id="Path_626" data-name="Path 626" d="M342.824,166.116l-50.642,28.273a10.54,10.54,0,0,1-14.341-4.065l-28.273-50.642a10.54,10.54,0,0,1,4.065-14.341l50.642-28.273a10.54,10.54,0,0,1,14.341,4.065l28.273,50.642A10.54,10.54,0,0,1,342.824,166.116Z" transform="translate(-248.228 -95.728)" fill="url(#radial-gradient)"/>
    <path id="Path_627" data-name="Path 627" d="M344.338,182.183,288.8,198.894a10.54,10.54,0,0,1-13.13-7.057L258.956,136.3a10.54,10.54,0,0,1,7.056-13.13l55.541-16.711a10.54,10.54,0,0,1,13.13,7.057l16.711,55.541A10.54,10.54,0,0,1,344.338,182.183Z" transform="translate(-255.175 -102.675)" fill="url(#radial-gradient-2)"/>
  </g>
  <g id="budget-cost-svgrepo-com" transform="translate(28.019 28.019)">
    <path id="Path_691" data-name="Path 691" d="M121.929,33.2l-7.342-7.342a.689.689,0,0,0-.487-.2H86.2a.688.688,0,0,0-.688.688V66.724a.688.688,0,0,0,.688.688h35.242a.688.688,0,0,0,.688-.688V33.684A.689.689,0,0,0,121.929,33.2Z" transform="translate(-78.169 -23.451)" fill="#f2f2f2"/>
    <g id="Group_137" data-name="Group 137" transform="translate(7.342 2.203)">
      <path id="Path_692" data-name="Path 692" d="M426.176,33.654a.688.688,0,0,0-.2-.456l-7.342-7.342a.688.688,0,0,0-.487-.2h-.031v7.312a.688.688,0,0,0,.688.688h7.371Z" transform="translate(-389.558 -25.654)" fill="#e5e5e5"/>
      <path id="Path_693" data-name="Path 693" d="M86.2,25.653a.688.688,0,0,0-.688.688V66.723a.688.688,0,0,0,.688.688h32.274L89.858,25.653Z" transform="translate(-85.511 -25.653)" fill="#e5e5e5"/>
    </g>
    <path id="Path_694" data-name="Path 694" d="M18.4,0H2.065A2.067,2.067,0,0,0,0,2.065v22.21A2.067,2.067,0,0,0,2.065,26.34H18.4a2.067,2.067,0,0,0,2.065-2.065V2.065A2.067,2.067,0,0,0,18.4,0Z" fill="#666"/>
    <path id="Path_695" data-name="Path 695" d="M249.665,247.983A10.233,10.233,0,1,0,259.9,258.216,10.245,10.245,0,0,0,249.665,247.983Z" transform="translate(-218.874 -226.691)" fill="#f7d04a"/>
    <path id="Path_696" data-name="Path 696" d="M251.683,288.379a10.228,10.228,0,0,1-8.172-16.386,10.23,10.23,0,1,0,14.324,14.324A10.18,10.18,0,0,1,251.683,288.379Z" transform="translate(-218.873 -248.639)" fill="#f3b41b"/>
    <path id="Path_697" data-name="Path 697" d="M321.588,288.886l-1.067-.031v-3.823h2.432a.688.688,0,0,0,0-1.377h-2.432v-.78a.688.688,0,1,0-1.377,0v.78h-.688a2.067,2.067,0,0,0-2.065,2.065v2.386a2.067,2.067,0,0,0,2.054,2.065l.7.021v3.742h-2.065a.688.688,0,1,0,0,1.377h2.065v.78a.688.688,0,1,0,1.377,0v-.78h1.055a2.067,2.067,0,0,0,2.065-2.065v-2.294A2.067,2.067,0,0,0,321.588,288.886Zm-3.111-.091h-.02a.689.689,0,0,1-.688-.688V285.72a.689.689,0,0,1,.688-.688h.688v3.783Zm3.788,4.451a.689.689,0,0,1-.688.688h-1.055v-3.7l1.035.031h.02a.689.689,0,0,1,.688.688Z" transform="translate(-289.225 -257.957)" fill="#eb6836"/>
    <path id="Path_698" data-name="Path 698" d="M41.026,25.653H26.341a.688.688,0,0,0-.688.688v3.671a.688.688,0,0,0,.688.688H41.026a.688.688,0,0,0,.688-.688V26.341A.688.688,0,0,0,41.026,25.653Z" transform="translate(-23.45 -23.45)" fill="#f2f2f2"/>
    <g id="Group_138" data-name="Group 138" transform="translate(2.203 2.203)">
      <path id="Path_699" data-name="Path 699" d="M26.341,25.653a.688.688,0,0,0-.688.688v3.671a.688.688,0,0,0,.688.688h2.983l5.048-5.048h-8.03Z" transform="translate(-25.653 -25.653)" fill="#62c9cc"/>
      <path id="Path_700" data-name="Path 700" d="M123.592,25.653h-2.57L115.975,30.7h7.617a.688.688,0,0,0,.688-.688V26.341A.688.688,0,0,0,123.592,25.653Z" transform="translate(-108.22 -25.653)" fill="#62c9cc"/>
    </g>
    <g id="Group_139" data-name="Group 139" transform="translate(2.203 8.076)">
      <path id="Path_701" data-name="Path 701" d="M29.278,94.063H26.341a.688.688,0,0,0-.688.688v2.937a.688.688,0,0,0,.688.688h2.937a.688.688,0,0,0,.688-.688V94.751A.688.688,0,0,0,29.278,94.063Z" transform="translate(-25.653 -94.063)" fill="#ef9d3c"/>
      <path id="Path_702" data-name="Path 702" d="M97.152,94.063H94.215a.688.688,0,0,0-.688.688v2.937a.688.688,0,0,0,.688.688h2.937a.688.688,0,0,0,.688-.688V94.751A.688.688,0,0,0,97.152,94.063Z" transform="translate(-87.699 -94.063)" fill="#ef9d3c"/>
      <path id="Path_703" data-name="Path 703" d="M29.278,162.472H26.341a.688.688,0,0,0-.688.688V166.1a.688.688,0,0,0,.688.688h2.937a.688.688,0,0,0,.688-.688V163.16A.688.688,0,0,0,29.278,162.472Z" transform="translate(-25.653 -156.598)" fill="#ef9d3c"/>
      <path id="Path_704" data-name="Path 704" d="M97.152,162.472H94.215a.688.688,0,0,0-.688.688V166.1a.688.688,0,0,0,.688.688h2.937a.688.688,0,0,0,.688-.688V163.16A.688.688,0,0,0,97.152,162.472Z" transform="translate(-87.699 -156.598)" fill="#ef9d3c"/>
      <path id="Path_705" data-name="Path 705" d="M29.278,230.881H26.341a.688.688,0,0,0-.688.688v2.937a.688.688,0,0,0,.688.688h2.937a.688.688,0,0,0,.688-.688v-2.937A.688.688,0,0,0,29.278,230.881Z" transform="translate(-25.653 -219.134)" fill="#ef9d3c"/>
      <path id="Path_706" data-name="Path 706" d="M97.152,230.881H94.215a.688.688,0,0,0-.688.688v2.937a.688.688,0,0,0,.688.688h2.937a.688.688,0,0,0,.688-.688v-2.937A.688.688,0,0,0,97.152,230.881Z" transform="translate(-87.699 -219.134)" fill="#ef9d3c"/>
      <path id="Path_707" data-name="Path 707" d="M165.562,94.063h-2.937a.688.688,0,0,0-.688.688v2.937a.688.688,0,0,0,.688.688h2.937a.688.688,0,0,0,.688-.688V94.751A.688.688,0,0,0,165.562,94.063Z" transform="translate(-150.235 -94.063)" fill="#ef9d3c"/>
    </g>
    <path id="Path_708" data-name="Path 708" d="M166.1,162.472h-2.937a.688.688,0,0,0-.688.688v8.811a.688.688,0,0,0,.688.688H166.1a.688.688,0,0,0,.688-.688V163.16A.688.688,0,0,0,166.1,162.472Z" transform="translate(-148.521 -148.522)" fill="#f7d04a"/>
    <path id="Path_709" data-name="Path 709" d="M276.337,62.7a.686.686,0,0,1-.51-.226L274.5,61.007a.688.688,0,1,1,1.02-.925l1.332,1.468a.688.688,0,0,1-.51,1.151Z" transform="translate(-250.763 -54.717)" fill="#666"/>
    <g id="Group_140" data-name="Group 140" transform="translate(25.111 6.697)">
      <path id="Path_710" data-name="Path 710" d="M307.2,89.687,296.229,78.719a.689.689,0,0,0-.352-.188l-2.6-.519a.688.688,0,0,0-.81.81l.519,2.6a.688.688,0,0,0,.188.352l10.968,10.968a2.078,2.078,0,0,0,1.684.592,2.249,2.249,0,0,0,1.367-.721A2.067,2.067,0,0,0,307.2,89.687Z" transform="translate(-292.459 -77.999)" fill="#62c9cc"/>
      <rect id="Rectangle_21" data-name="Rectangle 21" width="10.641" height="4.314" transform="translate(8.245 11.296) rotate(-135)" fill="#62c9cc"/>
    </g>
    <path id="Path_711" data-name="Path 711" d="M293.284,78.014a.7.7,0,0,0-.81.81l.519,2.6a.688.688,0,0,0,.188.352l3.05-3.05a.688.688,0,0,0-.352-.188Z" transform="translate(-267.35 -71.304)" fill="#f7d04a"/>
    <path id="Path_712" data-name="Path 712" d="M394.983,177.474l-3.443-3.443-3.05,3.05,3.443,3.443a2.083,2.083,0,0,0,1.653.587,2.229,2.229,0,0,0,1.4-.717A2.067,2.067,0,0,0,394.983,177.474Z" transform="translate(-355.134 -159.088)" fill="#50a9a9"/>
    <path id="Path_713" data-name="Path 713" d="M420.975,151.866a.688.688,0,0,1-.487-1.175l1.058-1.058-3.237-3.074a.688.688,0,0,1,.948-1l3.749,3.56a.688.688,0,0,1,.013.986l-1.558,1.558A.688.688,0,0,1,420.975,151.866Z" transform="translate(-382.197 -132.889)" fill="#666"/>
    <g id="Group_141" data-name="Group 141" transform="translate(11.747 31.571)">
      <path id="Path_714" data-name="Path 714" d="M142.1,369.076h-4.589a.688.688,0,1,1,0-1.377H142.1a.688.688,0,1,1,0,1.377Z" transform="translate(-136.818 -367.699)" fill="gray"/>
      <path id="Path_715" data-name="Path 715" d="M142.1,411.832h-4.589a.688.688,0,1,1,0-1.377H142.1a.688.688,0,1,1,0,1.377Z" transform="translate(-136.818 -406.784)" fill="gray"/>
    </g>
  </g>
</svg>
