<svg xmlns="http://www.w3.org/2000/svg" width="108.864" height="102" viewBox="0 0 108.864 102">
  <g id="Ultra-low-power_microcontrollers_for_battery-based_app" data-name="Ultra-low-power microcontrollers for battery-based app" transform="translate(-109.839 -55.05)">
    <path id="Path_2110" data-name="Path 2110" d="M195.194,80.642V78.152a1.3,1.3,0,0,1,2.606,0v2.491a1.3,1.3,0,0,1-2.606,0Zm1.3-7.41a1.3,1.3,0,0,0,1.3-1.3V69.439a1.3,1.3,0,0,0-2.606,0v2.494a1.3,1.3,0,0,0,1.3,1.3Zm-3.9,3.1h.81a1.3,1.3,0,1,0,0-2.6h-.81a1.3,1.3,0,1,0,0,2.6Zm7.009,0h.808a1.3,1.3,0,1,0,0-2.6h-.808a1.3,1.3,0,0,0,0,2.6ZM217.7,110.7a4.1,4.1,0,0,1-8.1.912H186.776v5.865h7.511a1.3,1.3,0,0,1,.92.383l2.29,2.29h.013a3.746,3.746,0,0,1,1.8-.443,4.117,4.117,0,1,1-4.09,4.117,3.941,3.941,0,0,1,.44-1.824l-1.91-1.915h-6.972v1.962a6.514,6.514,0,0,1-6.514,6.514h-1.936v9.474l4.411,4.429h0a3.925,3.925,0,0,1,1.823-.443,4.1,4.1,0,1,1-4.117,4.117,3.959,3.959,0,0,1,.441-1.842l-4.787-4.815h0a1.3,1.3,0,0,1-.378-.919V128.549h-5.881v13.7a4.117,4.117,0,1,1-2.606,0v-13.7h-5.873v19.564a4.08,4.08,0,1,1-2.606-.021V128.552h-5.87v9.62a4.114,4.114,0,1,1-2.6,0v-9.622h-1.962a6.514,6.514,0,0,1-6.514-6.514v-1.959h-7.582a4.045,4.045,0,0,1-3.856,2.814,4.117,4.117,0,1,1,0-8.233,4.041,4.041,0,0,1,3.853,2.809h7.584V111.59H124.726L122.84,113.5a3.926,3.926,0,0,1,.441,1.824,4.1,4.1,0,1,1-4.091-4.117,3.935,3.935,0,0,1,1.823.442l2.244-2.266a1.3,1.3,0,0,1,.925-.388h17.623v-5.854H121.821a1.3,1.3,0,0,1-.919-.383l-4.111-4.117a3.746,3.746,0,0,1-1.8.443,4.113,4.113,0,1,1,4.091-4.117,3.935,3.935,0,0,1-.442,1.823l3.726,3.744h19.437V94.657h-3.83a4.042,4.042,0,0,1-3.857,2.809,4.117,4.117,0,0,1,0-8.233,4.045,4.045,0,0,1,3.857,2.814h3.83V90.093a6.514,6.514,0,0,1,6.514-6.514h1.946V77.4l-3.624-3.647h0a3.943,3.943,0,0,1-1.839.441,4.116,4.116,0,1,1,4.091-4.117,3.93,3.93,0,0,1-.438,1.808l4.038,4.07a1.3,1.3,0,0,1,.378.917v6.7h5.878V71.854a4.083,4.083,0,1,1,2.605.021v11.7h5.881V65.49a1.3,1.3,0,0,1,.38-.92l2.606-2.606h0a3.928,3.928,0,0,1-.443-1.824,4.1,4.1,0,1,1,4.117,4.117,3.959,3.959,0,0,1-1.842-.441l-2.223,2.223v17.54h5.881V80.864a4.041,4.041,0,0,1-2.8-3.851,4.1,4.1,0,1,1,8.207,0,4.053,4.053,0,0,1-2.788,3.856v2.71h1.936a6.514,6.514,0,0,1,6.514,6.514v1.959h5.367a4.045,4.045,0,0,1,3.857-2.814,4.117,4.117,0,0,1,0,8.233,4.043,4.043,0,0,1-3.854-2.809h-5.377v5.875h13.744l3.742-3.742h0a3.935,3.935,0,0,1-.442-1.823,4.1,4.1,0,1,1,4.117,4.117,3.928,3.928,0,0,1-1.824-.443l-4.13,4.109a1.3,1.3,0,0,1-.922.383H186.775V109h23.092a4.051,4.051,0,0,1,3.718-2.387A4.1,4.1,0,0,1,217.7,110.7ZM206.422,94.965h0a1.591,1.591,0,0,0,.443,1.068,1.434,1.434,0,0,0,1.069.443,1.5,1.5,0,1,0-1.512-1.511Zm-11.907-1.616h0A1.491,1.491,0,0,0,196,94.86a1.511,1.511,0,0,0,0-3.022,1.491,1.491,0,0,0-1.486,1.511ZM175.521,77.014a1.506,1.506,0,1,0,.441-1.07,1.5,1.5,0,0,0-.441,1.07ZM172.394,60.13a1.534,1.534,0,0,0,.427,1.042h.018l.016.024a1.53,1.53,0,0,0,1.042.429,1.511,1.511,0,1,0-1.511-1.511ZM160.07,69.483a1.506,1.506,0,1,0-1.07-.441,1.511,1.511,0,0,0,1.07.441ZM144.8,71.594a1.471,1.471,0,0,0,1.042-.442.026.026,0,0,0,.026-.026,1.454,1.454,0,0,0,.417-1.042,1.491,1.491,0,0,0-1.485-1.511,1.511,1.511,0,1,0,0,3.022Zm-9.2,21.756a1.5,1.5,0,1,0-1.486,1.511,1.5,1.5,0,0,0,1.486-1.511ZM115,96.476a1.376,1.376,0,0,0,1.042-.443,1.592,1.592,0,0,0,.443-1.068A1.5,1.5,0,1,0,115,96.476Zm5.68,18.838a1.534,1.534,0,0,0-.383-1c-.024-.021-.058-.029-.081-.052s-.037-.065-.063-.094h0a1.428,1.428,0,0,0-.959-.363,1.5,1.5,0,1,0,1.485,1.512Zm11.178,3.465a1.5,1.5,0,1,0-1.485,1.511,1.5,1.5,0,0,0,1.485-1.511Zm21.208,23.266a1.5,1.5,0,1,0-1.485,1.511,1.5,1.5,0,0,0,1.485-1.511Zm7.035,8.447h-.059a1.563,1.563,0,1,0,.059,0Zm8.473-5.862h-.047a1.507,1.507,0,1,0,.047,0Zm16,0a1.43,1.43,0,0,0-.964.365.508.508,0,0,0-.075.075v.021l-.021.013c0,.016-.039.031-.047.047a1.353,1.353,0,0,0-.391.99,1.511,1.511,0,1,0,1.511-1.511ZM199.316,122.3a1.472,1.472,0,0,0-1.042.443,1.432,1.432,0,0,0-.443,1.068,1.489,1.489,0,0,0,1.486,1.511,1.511,1.511,0,0,0,0-3.022ZM215.1,110.7a1.5,1.5,0,1,0-1.5,1.5A1.5,1.5,0,0,0,215.1,110.7Z" transform="translate(0 0)" fill="none" stroke="#022e47" stroke-width="2"/>
    <rect id="Rectangle_72" data-name="Rectangle 72" width="24.789" height="4.467" rx="2.233" transform="translate(151.987 96.695)" fill="#05a8da"/>
    <rect id="Rectangle_73" data-name="Rectangle 73" width="24.789" height="4.467" rx="2.233" transform="translate(151.987 104.958)" fill="#05a8da"/>
  </g>
</svg>
