<svg xmlns="http://www.w3.org/2000/svg" width="102" height="102" viewBox="0 0 102 102">
  <g id="Custom_Multi-Platform_Apps_Development" data-name="Custom Multi-Platform Apps Development" transform="translate(-69 1)">
    <path id="Path_1881" data-name="Path 1881" d="M227.188,297.5h-56.25a4.693,4.693,0,0,0-4.687,4.688v37.5a4.693,4.693,0,0,0,4.688,4.688h56.25a4.693,4.693,0,0,0,4.688-4.687v-37.5A4.693,4.693,0,0,0,227.188,297.5Zm1.563,42.188a1.563,1.563,0,0,1-1.562,1.563h-56.25a1.564,1.564,0,0,1-1.562-1.562v-37.5a1.564,1.564,0,0,1,1.563-1.562h56.25a1.564,1.564,0,0,1,1.563,1.563Z" transform="translate(-79.063 -244.375)" fill="none" stroke="#022e47" stroke-width="2"/>
    <path id="Path_1882" data-name="Path 1882" d="M344.375,509.063a1.563,1.563,0,1,1-1.562-1.562,1.563,1.563,0,0,1,1.563,1.563" transform="translate(-222.813 -416.875)" fill="#022e47"/>
    <path id="Path_1883" data-name="Path 1883" d="M379.375,509.063a1.563,1.563,0,1,1-1.562-1.562,1.563,1.563,0,0,1,1.563,1.563" transform="translate(-251.563 -416.875)" fill="#022e47"/>
    <path id="Path_1884" data-name="Path 1884" d="M309.375,509.063a1.563,1.563,0,1,1-1.562-1.562,1.563,1.563,0,0,1,1.563,1.563" transform="translate(-194.063 -416.875)" fill="#022e47"/>
    <path id="Path_1885" data-name="Path 1885" d="M101.25,118.75a6.257,6.257,0,0,0,6.25-6.25v-1.562a1.562,1.562,0,0,0-1.562-1.562h-1.562V92.188A4.693,4.693,0,0,0,99.688,87.5H77.813a4.693,4.693,0,0,0-4.687,4.688v17.188H71.563A1.562,1.562,0,0,0,70,110.938V112.5a6.257,6.257,0,0,0,6.25,6.25Zm-25-26.562a1.564,1.564,0,0,1,1.563-1.562H99.688a1.564,1.564,0,0,1,1.563,1.563v17.188h-25ZM73.125,112.5h31.25a3.128,3.128,0,0,1-3.125,3.125h-25A3.128,3.128,0,0,1,73.125,112.5Z" transform="translate(0 -71.875)" fill="none" stroke="#022e47" stroke-width="2"/>
    <path id="Path_1886" data-name="Path 1886" d="M293.438,34.375h12.5a4.693,4.693,0,0,0,4.688-4.687v-25A4.693,4.693,0,0,0,305.938,0h-12.5a4.693,4.693,0,0,0-4.687,4.688v25A4.693,4.693,0,0,0,293.438,34.375ZM291.875,4.688a1.564,1.564,0,0,1,1.563-1.562h12.5A1.564,1.564,0,0,1,307.5,4.688v25a1.564,1.564,0,0,1-1.562,1.563h-12.5a1.564,1.564,0,0,1-1.562-1.562Z" transform="translate(-179.688)" fill="none" stroke="#022e47" stroke-width="2"/>
    <path id="Path_1887" data-name="Path 1887" d="M470.313,87.5h-31.25a1.561,1.561,0,0,0-1.562,1.563v21.875a1.561,1.561,0,0,0,1.563,1.563h14.063v3.125H450a1.563,1.563,0,0,0,0,3.125h9.375a1.563,1.563,0,0,0,0-3.125H456.25V112.5h14.063a1.561,1.561,0,0,0,1.563-1.562V89.063A1.561,1.561,0,0,0,470.313,87.5Zm-1.562,21.875H440.625V90.625H468.75Z" transform="translate(-301.875 -71.875)" fill="none" stroke="#022e47" stroke-width="2"/>
    <path id="Path_1888" data-name="Path 1888" d="M211.563,388.125h18.75a1.563,1.563,0,0,0,0-3.125h-18.75a1.563,1.563,0,0,0,0,3.125Z" transform="translate(-115 -316.25)" fill="#05a8da"/>
    <path id="Path_1889" data-name="Path 1889" d="M211.563,423.125h31.25a1.563,1.563,0,0,0,0-3.125h-31.25a1.563,1.563,0,0,0,0,3.125Z" transform="translate(-115 -345)" fill="#05a8da"/>
    <path id="Path_1890" data-name="Path 1890" d="M252.188,455H211.563a1.563,1.563,0,0,0,0,3.125h40.625a1.563,1.563,0,0,0,0-3.125Z" transform="translate(-115 -373.75)" fill="#05a8da"/>
    <path id="Path_1891" data-name="Path 1891" d="M287.188,350H246.563a1.563,1.563,0,0,0,0,3.125h40.625a1.563,1.563,0,0,0,0-3.125Z" transform="translate(-143.75 -287.5)" fill="#05a8da"/>
    <path id="Path_1892" data-name="Path 1892" d="M373.438,385H351.563a1.563,1.563,0,0,0,0,3.125h21.875a1.563,1.563,0,0,0,0-3.125Z" transform="translate(-230 -316.25)" fill="#05a8da"/>
    <path id="Path_1893" data-name="Path 1893" d="M430.938,420h-9.375a1.563,1.563,0,0,0,0,3.125h9.375a1.563,1.563,0,0,0,0-3.125Z" transform="translate(-287.5 -345)" fill="#05a8da"/>
    <path id="Path_1894" data-name="Path 1894" d="M154.063,131.25h-12.5a1.563,1.563,0,0,0,0,3.125h12.5a1.563,1.563,0,0,0,0-3.125Z" transform="translate(-57.5 -107.813)" fill="#05a8da"/>
    <path id="Path_1895" data-name="Path 1895" d="M139.688,166.25H124.063a1.563,1.563,0,0,0,0,3.125h15.625a1.563,1.563,0,0,0,0-3.125Z" transform="translate(-43.125 -136.563)" fill="#05a8da"/>
    <path id="Path_1896" data-name="Path 1896" d="M325.313,55.625h6.25a1.563,1.563,0,0,0,0-3.125h-6.25a1.563,1.563,0,0,0,0,3.125Z" transform="translate(-208.438 -43.125)" fill="#05a8da"/>
    <path id="Path_1897" data-name="Path 1897" d="M325.313,90.625h6.25a1.563,1.563,0,0,0,0-3.125h-6.25a1.563,1.563,0,0,0,0,3.125Z" transform="translate(-208.438 -71.875)" fill="#05a8da"/>
    <path id="Path_1898" data-name="Path 1898" d="M325.313,125.625h6.25a1.563,1.563,0,0,0,0-3.125h-6.25a1.563,1.563,0,0,0,0,3.125Z" transform="translate(-208.438 -100.625)" fill="#05a8da"/>
    <path id="Path_1899" data-name="Path 1899" d="M500.313,134.375h12.5a1.563,1.563,0,0,0,0-3.125h-12.5a1.563,1.563,0,0,0,0,3.125Z" transform="translate(-352.188 -107.813)" fill="#05a8da"/>
    <path id="Path_1900" data-name="Path 1900" d="M482.813,169.375h15.625a1.563,1.563,0,0,0,0-3.125H482.813a1.563,1.563,0,0,0,0,3.125Z" transform="translate(-337.813 -136.563)" fill="#05a8da"/>
    <path id="Path_1901" data-name="Path 1901" d="M341.25,211.563v9.375a1.563,1.563,0,0,0,3.125,0v-9.375a1.563,1.563,0,0,0-3.125,0Z" transform="translate(-222.813 -172.5)" fill="#05a8da"/>
    <path id="Path_1902" data-name="Path 1902" d="M104.063,295.625h-3.125a1.564,1.564,0,0,1-1.562-1.562v-12.5a1.563,1.563,0,0,0-3.125,0v12.5a4.693,4.693,0,0,0,4.688,4.688h3.125a1.563,1.563,0,0,0,0-3.125Z" transform="translate(-21.563 -230)" fill="#05a8da"/>
    <path id="Path_1903" data-name="Path 1903" d="M559.063,280a1.561,1.561,0,0,0-1.562,1.563v12.5a1.563,1.563,0,0,1-1.562,1.563h-3.125a1.563,1.563,0,0,0,0,3.125h3.125a4.693,4.693,0,0,0,4.688-4.687v-12.5A1.561,1.561,0,0,0,559.063,280Z" transform="translate(-395.313 -230)" fill="#05a8da"/>
  </g>
</svg>
