<svg width="100" height="100" viewBox="0 0 100 100" xmlns="http://www.w3.org/2000/svg"><title>design-categories-ebook-cover-design</title><g fill="none" fill-rule="evenodd"><path d="M82.64 91.363H22.26c-4.009 0-7.26-3.333-7.26-7.443 0-4.11 3.251-7.443 7.26-7.443h62.442V89.25c0 1.167-.923 2.114-2.062 2.114" fill="#FFF" fill-rule="nonzero"/><path d="M82.64 91.363H22.26c-4.009 0-7.26-3.333-7.26-7.443 0-4.11 3.251-7.443 7.26-7.443h62.442V89.25c0 1.167-.923 2.114-2.062 2.114z" stroke="#5D6D81" stroke-width="2" stroke-linecap="round" stroke-linejoin="round"/><path d="M28.07 83.92h-7.261m49.371 0H33.879" stroke="#5D6D81" stroke-width="2" stroke-linecap="round"/><path d="M15 66.057V83.92c0-4.11 3.251-7.443 7.26-7.443h62.442V12.911c0-2.71-2.143-4.908-4.788-4.908h-60.7c-2.328 0-4.214 1.934-4.214 4.32v53.734z" fill="#F4F4F4" fill-rule="nonzero"/><path d="M15 66.057V83.92c0-4.11 3.251-7.443 7.26-7.443h62.442V12.911c0-2.71-2.143-4.908-4.788-4.908h-60.7c-2.328 0-4.214 1.934-4.214 4.32v53.734z" stroke="#5D6D81" stroke-width="2" stroke-linecap="round" stroke-linejoin="round"/><path d="M60.984 33.309H38.72c-1.07 0-1.938-.889-1.938-1.985V20.407c0-1.095.867-1.984 1.938-1.984h22.265c1.069 0 1.936.889 1.936 1.984v10.917c0 1.096-.867 1.985-1.936 1.985" fill="#F08481" fill-rule="nonzero"/><path d="M60.984 33.309H38.72c-1.07 0-1.938-.889-1.938-1.985V20.407c0-1.095.867-1.984 1.938-1.984h22.265c1.069 0 1.936.889 1.936 1.984v10.917c0 1.096-.867 1.985-1.936 1.985z" stroke="#5D6D81" stroke-width="2" stroke-linecap="round" stroke-linejoin="round"/><path d="M41.138 60.103h17.426" stroke="#5D6D81" stroke-width="2" stroke-linecap="round"/><path d="M56.961 45.365a.17.17 0 0 1 .073.329c-1.023.338-3.773 1.393-4.213 2.205-.463.852.783 3.145 1.302 3.956a.17.17 0 0 1-.045.232.164.164 0 0 1-.229-.041c-.017-.025-1.744-2.447-3.402-2.279-.966.097-2.653 2.485-3.221 3.397a.166.166 0 0 1-.222.057.171.171 0 0 1-.068-.222c.39-.817 1.275-3.1.696-3.846-1.241-1.594-4.24-.707-4.27-.698a.166.166 0 0 1-.205-.112.17.17 0 0 1 .106-.211c.877-.297 3.185-1.237 3.436-2.045-.088-1.54-2.136-3.289-2.157-3.307a.171.171 0 0 1-.023-.235.164.164 0 0 1 .23-.029c.027.02 2.648 2.048 4.516 1.434 2.063-.678 3.047-3.564 3.056-3.593a.166.166 0 0 1 .2-.109.17.17 0 0 1 .12.197c-.006.035-.68 3.545.2 4.703.385.504 2.731.4 4.12.217zm-1.846-2.86c.58.373.746 1.14.369 1.713a1.263 1.263 0 0 1-1.734.365 1.229 1.229 0 0 1-.369-1.713 1.263 1.263 0 0 1 1.734-.364zm-9.678 2.427a.92.92 0 0 1 .276 1.284.945.945 0 0 1-1.3.273.92.92 0 0 1-.276-1.284.946.946 0 0 1 1.3-.273zm.883 4.127c.387.279.498.854.246 1.284-.251.43-.768.553-1.156.273-.387-.28-.497-.854-.246-1.283.252-.431.769-.553 1.156-.274zm5.129 1.873c.484.311.622.95.307 1.428-.313.477-.96.614-1.444.303a1.023 1.023 0 0 1-.308-1.427 1.054 1.054 0 0 1 1.445-.304zM55 47.631c.485.31.622.949.308 1.427-.314.478-.96.614-1.445.304a1.024 1.024 0 0 1-.308-1.427A1.053 1.053 0 0 1 55 47.631zm-5.32-6.776c.582.372.747 1.139.37 1.712a1.263 1.263 0 0 1-1.734.365 1.228 1.228 0 0 1-.369-1.713 1.262 1.262 0 0 1 1.734-.364z" fill="#5D6D81" fill-rule="nonzero"/><path d="M35.33 66.057h29.042" stroke="#5D6D81" stroke-width="2" stroke-linecap="round"/><path d="M77.441 8.003v83.36M23.713 8.003v69.963" stroke="#5D6D81" stroke-width="2"/></g></svg>