<svg width="100" height="100" viewBox="0 0 100 100" xmlns="http://www.w3.org/2000/svg"><title>design-categories-magazine-design</title><g fill="none" fill-rule="evenodd"><path d="M11.378 81.618V18.155c0-.179.151-.331.355-.358l50.014-6.566c.252-.033.48.136.48.358v76.595c0 .222-.228.392-.48.358l-50.014-6.566c-.204-.027-.355-.179-.355-.358z" fill="#F5F5F5"/><path d="M11.378 81.618V18.155c0-.179.151-.331.355-.358l50.014-6.566c.252-.033.48.136.48.358v76.595c0 .222-.228.392-.48.358l-50.014-6.566c-.204-.027-.355-.179-.355-.358z" stroke="#5D6D81" stroke-width="2"/><path d="M88.243 36.932V18.44c0-.568-.526-1.028-1.175-1.028h-24.84v67.01h24.84c.649 0 1.175-.46 1.175-1.029v-46.46z" fill="#F5F5F5"/><path d="M88.243 36.932V18.44c0-.568-.526-1.028-1.175-1.028h-24.84v67.01h24.84c.649 0 1.175-.46 1.175-1.029v-46.46z" stroke="#5D6D81" stroke-width="2"/><path fill="#7DDEB1" d="M62.227 79.268h5.913V20.505h-5.913z"/><path stroke="#5D6D81" stroke-width="2" d="M62.227 79.268h5.913V20.505h-5.913z"/><path fill="#EBB200" d="M68.518 79.268h4.73V22.567h-4.73z"/><path stroke="#5D6D81" stroke-width="2" d="M68.14 78.237h4.73v-55.67h-4.73z"/><path fill="#F08481" d="M73.249 77.206h4.73V23.598h-4.73z"/><path stroke="#5D6D81" stroke-width="2" d="M72.87 77.206h4.73V23.598h-4.73z"/><path d="M33.578 59.68c-6.145 0-9.192-6.11-9.192-11.518 0-5.41 3.047-8.07 9.192-8.07s12.094 4.386 12.094 9.795-5.95 9.793-12.094 9.793z" stroke="#5D6D81" stroke-width="1.5" fill-opacity="0" fill="#0081B2" stroke-dasharray="3"/><g fill="#5D6D81"><path d="M27.178 48.072c.02-.077.106-.128.195-.118 1.484.166 3.99.26 4.4-.198.941-1.052.221-4.244.214-4.276-.019-.08.037-.158.128-.179.09-.02.184.023.214.1.01.026 1.06 2.65 3.264 3.266 1.994.558 4.794-1.285 4.822-1.304a.197.197 0 0 1 .246.026c.06.066.05.161-.025.215-.022.016-2.209 1.606-2.303 3.006.268.734 2.733 1.59 3.67 1.86.092.026.142.111.113.191-.03.08-.127.125-.22.102-.032-.009-3.234-.815-4.56.635-.618.677.327 2.754.744 3.496.041.074.009.162-.073.202a.198.198 0 0 1-.086.02.186.186 0 0 1-.15-.072c-.608-.829-2.41-3-3.44-3.088-1.772-.153-3.615 2.05-3.634 2.072a.195.195 0 0 1-.244.037c-.08-.047-.101-.14-.049-.21.555-.738 1.885-2.823 1.392-3.598-.47-.738-3.408-1.697-4.5-2.005-.087-.024-.139-.102-.118-.18"/><path d="M29.419 45.438c-.607.342-.78 1.045-.385 1.571.393.526 1.205.676 1.81.334.608-.342.78-1.045.386-1.57-.393-.527-1.205-.677-1.811-.335m10.334 2.186c-.449.252-.576.772-.284 1.16.29.39.889.5 1.338.248.448-.253.576-.773.284-1.16-.291-.39-.89-.5-1.338-.248m-1.111 3.896c-.44.247-.567.759-.28 1.142.287.383.876.491 1.318.243.442-.249.566-.76.28-1.142-.287-.384-.876-.492-1.318-.244m-5.194 1.549c-.497.28-.638.856-.315 1.286.322.43.985.553 1.482.273.496-.28.638-.855.315-1.285-.322-.43-.985-.553-1.482-.274m-4.097-3.023c-.527.296-.677.907-.335 1.364.342.457 1.046.588 1.574.29.528-.295.677-.906.335-1.364-.342-.457-1.047-.586-1.574-.29m5.857-6.02c-.608.341-.78 1.044-.386 1.57s1.205.676 1.811.334c.608-.341.78-1.044.386-1.57s-1.205-.676-1.811-.334"/></g></g></svg>