<?xml version="1.0" ?>
<!DOCTYPE svg  PUBLIC '-//W3C//DTD SVG 1.1//EN'  'http://www.w3.org/Graphics/SVG/1.1/DTD/svg11.dtd'>
<!-- Uploaded to: SVG Repo, www.svgrepo.com, Generator: SVG Repo Mixer Tools -->
<svg width="800px" height="800px" viewBox="0 0 512 512" version="1.1" xml:space="preserve" xmlns="http://www.w3.org/2000/svg" xmlns:xlink="http://www.w3.org/1999/xlink">
<g id="_x34_83_x2C__desk_x2C__student_x2C__chair_x2C__school">
<g>
<rect height="180" style="fill:#FEBE76;" width="50" x="351" y="261"/>
<polygon points="358.667,268.833 401,268.833 401,261 351,261 351,441 358.667,441   " style="fill:#E8A664;"/>
<polygon points="161,311 161,441 111,441 111,261 161,261   " style="fill:#FEBE76;"/>
<polygon points="118.667,268.75 161,268.75 161,261 111,261 111,441 118.667,441   " style="fill:#E8A664;"/>
<path d="M431,201v40c0,11.05-8.95,20-20,20h-10h-50H161h-50h-10c-11.05,0-20-8.95-20-20v-40h70h210H431z" style="fill:#9E6133;"/>
<path d="M88.583,249.083v-40h70h210H431V201h-70H151H81v40c0,7.311,3.93,13.683,9.781,17.172    C89.386,255.443,88.583,252.36,88.583,249.083z" style="fill:#84502C;"/>
<path d="M381,106.33V151h-20H151h-20v-44.67C131,86.82,146.82,71,166.33,71h179.34    C365.18,71,381,86.82,381,106.33z" style="fill:#FEBE76;"/>
<path d="M139.375,115.455c0-19.51,15.82-35.33,35.33-35.33h179.34c8.061,0,15.487,2.706,21.433,7.251    C369.206,77.535,358.203,71,345.67,71H166.33C146.82,71,131,86.82,131,106.33V151h8.375V115.455z" style="fill:#E8A664;"/>
<rect height="20" width="20" x="321" y="101"/>
<rect height="20" width="20" x="291" y="101"/>
<rect height="20" width="20" x="261" y="101"/>
<rect height="20" width="20" x="231" y="101"/>
<rect height="20" width="20" x="201" y="101"/>
<rect height="20" width="20" x="171" y="101"/>
<path d="M161,446c-2.761,0-5-2.238-5-5V261c0-2.762,2.239-5,5-5s5,2.238,5,5v180C166,443.762,163.761,446,161,446z"/>
<path d="M111,446c-2.761,0-5-2.238-5-5V261c0-2.762,2.239-5,5-5s5,2.238,5,5v180C116,443.762,113.761,446,111,446z"/>
<path d="M401,446c-2.762,0-5-2.238-5-5V261c0-2.762,2.238-5,5-5s5,2.238,5,5v180C406,443.762,403.762,446,401,446z"/>
<path d="M351,446c-2.762,0-5-2.238-5-5V261c0-2.762,2.238-5,5-5s5,2.238,5,5v180C356,443.762,353.762,446,351,446z"/>
<path d="M411,266H101c-13.785,0-25-11.215-25-25v-40c0-2.761,2.239-5,5-5s5,2.239,5,5v40c0,8.271,6.729,15,15,15h310    c8.271,0,15-6.729,15-15v-40c0-2.761,2.238-5,5-5s5,2.239,5,5v40C436,254.785,424.785,266,411,266z"/>
<path d="M461,206H361c-2.762,0-5-2.239-5-5s2.238-5,5-5h100c2.762,0,5,2.239,5,5S463.762,206,461,206z"/>
<path d="M151,206H51c-2.761,0-5-2.239-5-5s2.239-5,5-5h100c2.761,0,5,2.239,5,5S153.761,206,151,206z"/>
<path d="M361,206H151c-2.761,0-5-2.239-5-5v-50c0-2.761,2.239-5,5-5s5,2.239,5,5v45h200v-45c0-2.761,2.238-5,5-5s5,2.239,5,5v50    C366,203.761,363.762,206,361,206z"/>
<path d="M381,156H131c-2.761,0-5-2.239-5-5v-44.67C126,84.092,144.092,66,166.33,66h179.34C367.908,66,386,84.092,386,106.33V151    C386,153.761,383.762,156,381,156z M136,146h240v-39.67C376,89.606,362.394,76,345.67,76H166.33C149.606,76,136,89.606,136,106.33    V146z"/>
<path d="M281,316H161c-2.761,0-5-2.238-5-5s2.239-5,5-5h120c2.762,0,5,2.238,5,5S283.762,316,281,316z"/>
<path d="M321,316h-10c-2.762,0-5-2.238-5-5s2.238-5,5-5h10c2.762,0,5,2.238,5,5S323.762,316,321,316z"/>
<path d="M451,446H61c-2.761,0-5-2.238-5-5s2.239-5,5-5h390c2.762,0,5,2.238,5,5S453.762,446,451,446z"/>
</g>
</g>
<g id="Layer_1"/>
</svg>