<svg width="100" height="100" viewBox="0 0 100 100" xmlns="http://www.w3.org/2000/svg"><title>design-categories-vector-design</title><g fill="none" fill-rule="evenodd"><path fill="#EBB200" d="M7 58.82h8.709V50H7z"/><path stroke="#5D6D81" stroke-width="2" d="M7 58.82h8.709V50H7z"/><path fill="#F08481" d="M84.291 58.82H93V50h-8.709z"/><path stroke="#5D6D81" stroke-width="2" d="M84.291 58.82H93V50h-8.709z"/><path fill="#7DDEB1" d="M45.33 16.68h8.709V7.86h-8.71z"/><path stroke="#5D6D81" stroke-width="2" d="M45.101 15.82h8.71V7H45.1z"/><path d="M87.786 50c0-19.942-14.946-36.366-34.187-38.59v4.218h-8.918V11.41C25.44 13.634 10.494 30.058 10.494 50" stroke="#5D6D81" stroke-width="2" stroke-linecap="round" stroke-dasharray="2,4,2,4,2,4"/><path d="M15.709 11.41c0 2.436-1.95 4.41-4.355 4.41C8.95 15.82 7 13.847 7 11.41S8.95 7 11.354 7c2.406 0 4.355 1.974 4.355 4.41" fill="#5BAADC"/><path d="M15.709 11.41c0 2.436-1.95 4.41-4.355 4.41C8.95 15.82 7 13.847 7 11.41S8.95 7 11.354 7c2.406 0 4.355 1.974 4.355 4.41z" stroke="#5D6D81" stroke-width="2" stroke-linecap="round"/><path d="M93 11.41c0 2.436-1.95 4.41-4.354 4.41-2.406 0-4.355-1.974-4.355-4.41S86.241 7 88.646 7C91.05 7 93 8.974 93 11.41" fill="#5BAADC"/><path d="M93 11.41c0 2.436-1.95 4.41-4.354 4.41-2.406 0-4.355-1.974-4.355-4.41S86.241 7 88.646 7C91.05 7 93 8.974 93 11.41zm-77.291 0H45.1m9.799 0H84.29" stroke="#5D6D81" stroke-width="2" stroke-linecap="round"/><path d="M59.765 78.667h-20.62v-6.45c0-5.67-4.454-10.268-9.95-10.268h-4.777l25.038-39.513 25.038 39.513h-4.778c-5.495 0-9.95 4.598-9.95 10.268v6.45z" fill="#F5F5F5"/><path d="M39.146 78.667v-6.45c0-5.67-4.455-10.268-9.95-10.268h-4.778l26.126-41.718 23.95 41.718h-4.778c-5.495 0-9.95 4.598-9.95 10.268v6.45h-20.62zm11.398-56.231v33.077" stroke="#5D6D81" stroke-width="2" stroke-linecap="round"/><path fill="#6E8097" d="M39.658 85.282h20.684v-7.718H39.658z"/><path stroke="#5D6D81" stroke-width="2" stroke-linecap="round" d="M39.658 85.282h20.684v-7.718H39.658z"/><path fill="#6E8097" d="M42.064 93h15.24v-7.718h-15.24z"/><path stroke="#5D6D81" stroke-width="2" stroke-linecap="round" d="M41.835 93h16.33v-7.718h-16.33z"/><path d="M54.899 59.923c0 2.436-1.95 4.41-4.355 4.41-2.405 0-4.354-1.974-4.354-4.41s1.95-4.41 4.354-4.41c2.405 0 4.355 1.974 4.355 4.41" fill="#6E8097"/><path d="M54.899 59.923c0 2.436-1.95 4.41-4.355 4.41-2.405 0-4.354-1.974-4.354-4.41s1.95-4.41 4.354-4.41c2.405 0 4.355 1.974 4.355 4.41zm-4.355-36.385v-3.307" stroke="#5D6D81" stroke-width="2" stroke-linecap="round"/></g></svg>