<svg width="100" height="100" viewBox="0 0 100 100" xmlns="http://www.w3.org/2000/svg"><title>design-categories-advertisement-design</title><g fill="none" fill-rule="evenodd"><path fill="#F5F5F5" d="M8 71h84V13.04H8z"/><g stroke="#5D6D81" stroke-width="2"><path d="M8 71h84V13.04H8z"/><path d="M50 13.04V8m0 63.84v16.8m0-16.8L70.16 92M50 71.84L29.84 92" stroke-linecap="round"/></g><path d="M57.56 62.6H79.4m-58.8-9.24h13.44" stroke="#5D6D81" stroke-width="2" stroke-linecap="round"/><path d="M50 53.36h21.84" stroke="#FBD86A" stroke-width="2" stroke-linecap="round"/><path d="M31.116 42.62v-1.096c.781 0 1.55-.086 2.299-.254l.24 1.068c-.826.187-1.677.282-2.539.282zm4.985-1.134l-.475-.987a10.411 10.411 0 0 0 1.959-1.229l.681.858c-.669.531-1.395.987-2.165 1.358zm3.998-3.184l-.855-.685c.483-.603.898-1.259 1.236-1.954l.985.479a11.508 11.508 0 0 1-1.366 2.16zm2.214-4.546l-1.066-.25c.175-.747.268-1.516.275-2.297l1.095.01c-.007.862-.11 1.711-.304 2.537zm.037-5.116l-1.07.235a10.325 10.325 0 0 0-.746-2.188l.991-.467c.364.771.64 1.582.825 2.42zm-2.178-4.613l-.862.676a10.472 10.472 0 0 0-1.62-1.652l.692-.848c.662.54 1.263 1.152 1.79 1.824zm-4.046-3.264l-.478.985a10.326 10.326 0 0 0-2.18-.769l.247-1.067c.835.193 1.643.479 2.41.85zm-4.884-1.145l-.012 1.095h-.111c-.745 0-1.478.077-2.192.23l-.23-1.071c.79-.17 1.6-.255 2.422-.255h.123zm-4.997 1.078l.465.993c-.7.327-1.362.733-1.973 1.207l-.672-.865a11.501 11.501 0 0 1 2.18-1.335zm-4.032 3.14l.847.695c-.49.598-.912 1.249-1.257 1.94l-.98-.49c.382-.764.849-1.483 1.39-2.144zm-2.265 4.523l1.064.262a10.418 10.418 0 0 0-.3 2.293l-1.095-.02c.017-.862.128-1.71.331-2.535zm-.091 5.118l1.072-.224c.159.76.401 1.495.722 2.196l-.995.457a11.42 11.42 0 0 1-.799-2.43zm2.127 4.634l.869-.667c.47.614 1.008 1.174 1.602 1.669l-.702.841a11.567 11.567 0 0 1-1.77-1.843zm4.007 3.306l.489-.98c.69.344 1.418.61 2.17.794l-.258 1.064a11.423 11.423 0 0 1-2.4-.878zm4.874 1.2l.024-1.095.223.002v1.096c-.083 0-.165-.001-.247-.003zm7.83-13.12c.092-.013.18.05.201.144a.188.188 0 0 1-.121.22c-1.12.375-4.132 1.544-4.614 2.445-.506.945.858 3.487 1.426 4.386.054.086.032.2-.05.258a.178.178 0 0 1-.25-.046c-.019-.027-1.91-2.713-3.725-2.527-1.057.108-2.905 2.756-3.528 3.767a.18.18 0 0 1-.153.087.176.176 0 0 1-.089-.024.19.19 0 0 1-.075-.246c.427-.906 1.397-3.438.762-4.264-1.359-1.768-4.642-.785-4.675-.775a.181.181 0 0 1-.225-.123.189.189 0 0 1 .116-.235c.96-.329 3.488-1.372 3.763-2.267-.097-1.708-2.339-3.647-2.362-3.667a.191.191 0 0 1-.026-.261.178.178 0 0 1 .253-.032c.03.023 2.9 2.27 4.945 1.59 2.26-.751 3.336-3.952 3.346-3.984a.181.181 0 0 1 .22-.12c.092.025.15.12.131.217-.008.04-.746 3.932.22 5.215.42.56 2.989.445 4.51.241zm-2.022-3.171a1.373 1.373 0 1 1-1.494 2.302 1.373 1.373 0 0 1 1.494-2.302zm-10.597 2.69c.477.309.613.947.302 1.424a1.028 1.028 0 1 1-.302-1.423zm.967 4.576c.424.309.545.947.27 1.424-.276.477-.842.613-1.267.303-.424-.31-.544-.947-.269-1.424.276-.477.842-.613 1.266-.303zm5.616 2.077a1.144 1.144 0 1 1-1.245 1.92 1.144 1.144 0 0 1 1.245-1.92zm3.89-3.66a1.144 1.144 0 1 1-1.245 1.918 1.144 1.144 0 0 1 1.245-1.918zm-5.825-7.514a1.371 1.371 0 1 1-1.494 2.303 1.372 1.372 0 1 1 1.494-2.303z" fill="#5D6D81" fill-rule="nonzero"/><path d="M28.16 62.6H50" stroke="#7DDEB1" stroke-width="2" stroke-linecap="round"/><path d="M57.56 33.2H79.4" stroke="#5D6D81" stroke-width="2" stroke-linecap="round"/><path d="M63.44 42.44h13.44" stroke="#5BAADC" stroke-width="2" stroke-linecap="round"/><path d="M50 42.44h3.36" stroke="#F08481" stroke-width="2" stroke-linecap="round"/><path d="M50 21.44h21.84" stroke="#7DDEB1" stroke-width="2" stroke-linecap="round"/></g></svg>