<svg xmlns="http://www.w3.org/2000/svg" width="102" height="102" viewBox="0 0 102 102">
  <g id="hire_swift_qa_and_testing_developer" data-name="hire swift qa and testing developer" transform="translate(-77.75 -7.75)">
    <path id="Path_8510" data-name="Path 8510" d="M128.75,108.75a50,50,0,1,1,50-50A50.056,50.056,0,0,1,128.75,108.75Zm0-97.582a47.58,47.58,0,1,0,47.58,47.58A47.633,47.633,0,0,0,128.75,11.168Z" fill="none" stroke="#022e47" stroke-width="2"/>
    <path id="Path_8511" data-name="Path 8511" d="M313.429,224.447a5.3,5.3,0,0,0,5.088,5.214,5.2,5.2,0,0,0,4.814-2.8,118.614,118.614,0,0,1,7.274-12.479l2.152-3.09-16.53,8.471a5.243,5.243,0,0,0-2.8,4.684Z" transform="translate(-191.42 -165.207)" fill="#05a8da"/>
    <path id="Path_8512" data-name="Path 8512" d="M199.819,99.6a1.431,1.431,0,1,1,0-2.863h7.535a41.264,41.264,0,0,0-11.2-26.874l-5.316,5.295a1.434,1.434,0,0,1-2.032-2.024l5.316-5.294a41.605,41.605,0,0,0-26.984-11.148v7.5a1.437,1.437,0,0,1-2.874,0v-7.5a41.61,41.61,0,0,0-26.984,11.148l5.316,5.294a1.434,1.434,0,0,1-2.032,2.024l-5.316-5.295a41.252,41.252,0,0,0-11.2,26.874h7.535a1.431,1.431,0,1,1,0,2.863h-7.528a41.384,41.384,0,0,0,17.391,32.33,29.047,29.047,0,0,1,48.505,0A41.385,41.385,0,0,0,207.349,99.6ZM183.95,82.084,178.5,89.911a116.471,116.471,0,0,0-7.093,12.182,8.084,8.084,0,0,1-7.19,4.33c-.086,0-.171,0-.257,0a8.193,8.193,0,0,1-7.875-8.056,8.1,8.1,0,0,1,4.334-7.238l.015-.008,21.631-11.1a1.443,1.443,0,0,1,1.767.287,1.428,1.428,0,0,1,.117,1.778Z" transform="translate(-36.953 -39.105)" fill="none" stroke="#05a8da" stroke-width="2"/>
  </g>
</svg>
