<svg xmlns="http://www.w3.org/2000/svg" width="109.327" height="101.5" viewBox="0 0 109.327 101.5">
  <g id="Swift_consultancy" data-name="Swift consultancy" transform="translate(-1480.572 -441.25)">
    <g id="noun-consulting-3503953" transform="translate(1481.322 442)">
      <path id="Path_8502" data-name="Path 8502" d="M195.317,41.228v22.7a4.692,4.692,0,0,1-4.679,4.7H161.672a.955.955,0,0,0-.584.219l-10.6,8.936V69.535a.928.928,0,0,0-.914-.914h-5.355a4.68,4.68,0,0,1-4.678-4.7v-22.7a4.677,4.677,0,0,1,4.679-4.679h46.419a4.688,4.688,0,0,1,4.679,4.679ZM173.5,59.923a.917.917,0,0,0-.914-.914h-22.02a.916.916,0,0,0-.914.914.9.9,0,0,0,.914.914h22.021a.9.9,0,0,0,.914-.914Zm11.714-7.329a.917.917,0,0,0-.914-.914H150.561a.905.905,0,0,0-.914.914.916.916,0,0,0,.914.915H184.3a.929.929,0,0,0,.914-.915Zm0-7.347h0a.917.917,0,0,0-.914-.914H150.561a.914.914,0,0,0,0,1.828H184.3a.917.917,0,0,0,.914-.914Zm-4.825,63.176H87.494V53.453h0a2.386,2.386,0,0,1,2.394-2.376h47.826V63.924a6.514,6.514,0,0,0,6.505,6.524h4.44v9.3a.9.9,0,0,0,.53.822.7.7,0,0,0,.383.091c.018,0,.055-.018.073-.018h0a.161.161,0,0,0,.091-.018.784.784,0,0,0,.42-.182l11.843-10h18.385Zm-31.653,26.3h-6.085l-2.832-11.33H128.082l-2.834,11.33h-6.1a.914.914,0,0,0,0,1.828h29.587a.914.914,0,1,0,0-1.828ZM87.493,110.253H180.4v8.955a2.38,2.38,0,0,1-2.376,2.358H89.869a2.367,2.367,0,0,1-2.375-2.359Zm43.076,5.666a3.386,3.386,0,1,0,.992-2.39,3.384,3.384,0,0,0-.992,2.39Zm3.381,1.553a1.554,1.554,0,1,0-1.553-1.553,1.553,1.553,0,0,0,1.553,1.553Z" transform="translate(-87.493 -36.549)" fill="none" stroke="#022e47" stroke-width="1.5"/>
    </g>
    <path id="swift-svgrepo-com_1_" data-name="swift-svgrepo-com (1)" d="M34.652,25.008c.088-.177.088-.353.177-.53,2.122-8.31-2.918-18.032-11.581-23.16,3.8,5.128,5.3,11.226,3.978,16.707a8.693,8.693,0,0,1-.441,1.414A8.154,8.154,0,0,1,26.075,19,108.094,108.094,0,0,1,8.311,4.413,106.579,106.579,0,0,0,19.094,17.937,117.391,117.391,0,0,1,3.713,6.268,20.4,20.4,0,0,0,5.835,9.186C9.9,14.4,15.206,20.765,21.57,25.626c-4.508,2.743-10.785,2.918-17.15,0A25.392,25.392,0,0,1,0,22.975a26.108,26.108,0,0,0,11.757,9.989c5.922,2.565,11.932,2.388,16.264,0h.09a1.847,1.847,0,0,0,.53-.353c2.122-1.061,6.277-2.21,8.575,2.21.618,1.237,1.767-4.508-2.563-9.812Z" transform="translate(1489.163 468.862)" fill="#05a8da"/>
  </g>
</svg>
