<svg xmlns="http://www.w3.org/2000/svg" xmlns:xlink="http://www.w3.org/1999/xlink" width="100" height="100" viewBox="0 0 100 100">
  <defs>
    <radialGradient id="radial-gradient" cx="0.543" cy="0.13" r="1.109" gradientTransform="matrix(0.999, 0.039, -0.039, 0.999, 0.005, -0.021)" gradientUnits="objectBoundingBox">
      <stop offset="0" stop-color="#00a8ff"/>
      <stop offset="0.254" stop-color="#37b1db"/>
      <stop offset="0.647" stop-color="#4ad1fb"/>
      <stop offset="1" stop-color="#31b9ff"/>
    </radialGradient>
    <radialGradient id="radial-gradient-2" cx="0.631" cy="0.123" r="1.188" gradientTransform="matrix(0.967, 0.254, -0.254, 0.967, 0.037, -0.131)" gradientUnits="objectBoundingBox">
      <stop offset="0" stop-color="#fff"/>
      <stop offset="0.221" stop-color="#fff8f7"/>
      <stop offset="0.563" stop-color="#f6ffff"/>
      <stop offset="0.983" stop-color="#bdfff6"/>
      <stop offset="1" stop-color="#ffc6bc"/>
    </radialGradient>
  </defs>
  <g id="Support_and_Maintenance" data-name="Support and Maintenance" transform="translate(-439 -1971)">
    <g id="Reporting_and_Communication" data-name="Reporting and Communication" transform="translate(3 170)">
      <g id="Smooth_Project_Management" data-name="Smooth Project Management" transform="translate(193 513)">
        <g id="Easy_Project_Tracking" data-name="Easy Project Tracking" transform="translate(156)">
          <g id="Flexible_Hiring_Models" data-name="Flexible Hiring Models" transform="translate(-1187.821 -404)">
            <g id="Work_On_All_The_Major_Platforms" data-name="Work On All The Major Platforms" transform="translate(652 154.321)">
              <path id="Path_760" data-name="Path 760" d="M342.824,166.116l-50.642,28.273a10.54,10.54,0,0,1-14.341-4.065l-28.273-50.642a10.54,10.54,0,0,1,4.065-14.341l50.642-28.273a10.54,10.54,0,0,1,14.341,4.065l28.273,50.642A10.54,10.54,0,0,1,342.824,166.116Z" transform="translate(374.593 1441.951)" fill="url(#radial-gradient)"/>
              <path id="Path_761" data-name="Path 761" d="M344.338,182.183,288.8,198.894a10.54,10.54,0,0,1-13.13-7.057L258.956,136.3a10.54,10.54,0,0,1,7.056-13.13l55.541-16.711a10.54,10.54,0,0,1,13.13,7.057l16.711,55.541A10.54,10.54,0,0,1,344.338,182.183Z" transform="translate(367.646 1435.004)" fill="url(#radial-gradient-2)"/>
            </g>
          </g>
        </g>
      </g>
      <g id="Maintenance_Support" data-name="Maintenance &amp; Support" transform="translate(393.304 1820.289)">
        <path id="Path_1269" data-name="Path 1269" d="M348.215,192.14c-.063,0-.125.008-.188.01l2.037,1.933a6.707,6.707,0,0,1,4.443,4.216l2.039,1.935h0a8.353,8.353,0,0,0-8.33-8.093Z" transform="translate(-251.519 -173.809)" fill="#05a8da"/>
        <path id="Path_1270" data-name="Path 1270" d="M270.846,287.28c.177,0,.351-.016.526-.027l-1.87-1.785a6.7,6.7,0,0,1-5.109-4.878l-1.886-1.8c0,.038-.006.075-.006.114h0a8.362,8.362,0,0,0,8.345,8.378Z" transform="translate(-174.149 -252.195)" fill="#05a8da"/>
        <path id="Path_1271" data-name="Path 1271" d="M277.547,62.585a.837.837,0,0,0,.657-.818V58.859a1.333,1.333,0,0,1,1.438-1.189h2.269a1.334,1.334,0,0,1,1.44,1.189v2.907a.837.837,0,0,0,.656.818A14.9,14.9,0,0,1,288.9,64.62a.831.831,0,0,0,1.04-.113l2.05-2.059a1.329,1.329,0,0,1,1.853.18l1.6,1.614a1.586,1.586,0,0,1,.475,1.018,1.082,1.082,0,0,1-.3.843l-2.049,2.056a.84.84,0,0,0-.112,1.045,15.052,15.052,0,0,1,2.029,4.911.836.836,0,0,0,.815.659H299.2a1.336,1.336,0,0,1,1.187,1.444V78.5a1.336,1.336,0,0,1-1.187,1.444h-2.892a.835.835,0,0,0-.815.658,14.976,14.976,0,0,1-.579,1.984l1.307,1.24a16.665,16.665,0,0,0,.745-2.207H299.2a3,3,0,0,0,2.856-3.12V76.217A3,3,0,0,0,299.2,73.1h-2.234a16.692,16.692,0,0,0-1.745-4.221l1.583-1.589h0a2.738,2.738,0,0,0,.783-2.128,3.263,3.263,0,0,0-.961-2.1l-1.607-1.616a2.985,2.985,0,0,0-4.213-.177l-1.584,1.591a16.518,16.518,0,0,0-4.2-1.751V58.859a3,3,0,0,0-3.109-2.864h-2.269a3,3,0,0,0-3.107,2.864v2.246a16.446,16.446,0,0,0-3.054,1.138l1.306,1.239a14.821,14.821,0,0,1,2.761-.9Z" transform="translate(-184.081 -50.649)" fill="#05a8da"/>
        <path id="Path_1272" data-name="Path 1272" d="M151.378,230.552a.837.837,0,0,0-.656.818v2.906a1.335,1.335,0,0,1-1.44,1.19h-2.269a1.334,1.334,0,0,1-1.438-1.19V231.37a.837.837,0,0,0-.657-.818,14.841,14.841,0,0,1-4.89-2.036.832.832,0,0,0-1.042.112l-2.048,2.058a1.33,1.33,0,0,1-1.854-.181l-1.606-1.613a1.576,1.576,0,0,1-.475-1.015,1.089,1.089,0,0,1,.3-.845l2.051-2.056a.84.84,0,0,0,.113-1.045,15.027,15.027,0,0,1-2.03-4.909.834.834,0,0,0-.815-.659h-2.894a1.336,1.336,0,0,1-1.185-1.444v-2.28a1.335,1.335,0,0,1,1.185-1.444h2.894a.836.836,0,0,0,.816-.659,15.025,15.025,0,0,1,.7-2.294l-1.29-1.232h0a16.664,16.664,0,0,0-.881,2.51h-2.236a3,3,0,0,0-2.854,3.119v2.279a3,3,0,0,0,2.854,3.12h2.236a16.67,16.67,0,0,0,1.745,4.219l-1.586,1.59a2.746,2.746,0,0,0-.78,2.128,3.248,3.248,0,0,0,.962,2.1l1.606,1.613a2.985,2.985,0,0,0,4.215.18l1.583-1.59h0a16.466,16.466,0,0,0,4.2,1.751v2.246a3,3,0,0,0,3.107,2.865h2.269a3,3,0,0,0,3.109-2.865v-2.246a16.47,16.47,0,0,0,3.262-1.238l-1.295-1.236a14.867,14.867,0,0,1-2.98.995Z" transform="translate(-51.452 -189.071)" fill="#05a8da"/>
        <path id="Path_1273" data-name="Path 1273" d="M116.36,48.759a7.136,7.136,0,0,0-1.546.146L86.173,21.728a2.51,2.51,0,0,1-.64-1.6,7.894,7.894,0,0,0-2.8-6.316C79.376,11.181,74.31,12.252,74.1,12.3a.839.839,0,0,0-.357,1.462l3.646,3.05A.834.834,0,0,1,77.474,18l-1.845,2.087a.823.823,0,0,1-1.078.136L71.3,18a.835.835,0,0,0-1.3.8c.943,7.121,4.424,7.769,5,7.827l4.553.731h0a2.484,2.484,0,0,1,1.391.728l28.2,26.927h0a6.9,6.9,0,0,0-.063.813,7.187,7.187,0,0,0,7.039,7.313h.122a7.09,7.09,0,0,0,4.975-2.024A7.2,7.2,0,0,0,116.36,48.76ZM75.236,24.976a.567.567,0,0,0-.083-.009c-.023,0-2.1-.235-3.141-4.449l1.6,1.092a2.492,2.492,0,0,0,3.264-.41l1.844-2.087h0a2.513,2.513,0,0,0-.269-3.588l-2.141-1.792a8.4,8.4,0,0,1,5.4,1.4,6.31,6.31,0,0,1,2.154,5.043h0a4.2,4.2,0,0,0,.826,2.373l-3.368,3.719a4.12,4.12,0,0,0-1.505-.557Zm44.822,34.945a5.377,5.377,0,0,1-3.908,1.551,5.5,5.5,0,0,1-5.289-6.59.84.84,0,0,0-.244-.769L82.593,27.357l3.273-3.614L114,50.435a.833.833,0,0,0,.794.2,5.517,5.517,0,0,1,5.268,9.287Z" transform="translate(0 -10.889)" fill="#05a8da"/>
        <path id="Path_1274" data-name="Path 1274" d="M521.473,435.221a3.466,3.466,0,0,0-2.516,1,3.564,3.564,0,0,0-.083,5.021,3.5,3.5,0,0,0,2.482,1.082h.06a3.5,3.5,0,0,0,2.455-1,3.555,3.555,0,0,0-2.4-6.1Zm1.237,4.9a1.791,1.791,0,0,1-1.327.526,1.848,1.848,0,0,1-1.309-.571,1.883,1.883,0,0,1,.044-2.653,1.846,1.846,0,0,1,1.3-.527h.032a1.878,1.878,0,0,1,1.265,3.224Z" transform="translate(-405.173 -393.707)" fill="none" stroke="#05a8da" stroke-width="1"/>
        <path id="Path_1275" data-name="Path 1275" d="M437.327,17.9q.379.143.751.3a.837.837,0,0,0,.639-1.548q-.4-.165-.8-.319a.837.837,0,0,0-.588,1.568Z" transform="translate(-331.811 -14.72)" fill="none" stroke="#05a8da" stroke-width="1"/>
        <path id="Path_1276" data-name="Path 1276" d="M495.1,48.208q.333.23.658.47h0a.837.837,0,0,0,.99-1.349q-.346-.256-.7-.5h0a.837.837,0,1,0-.947,1.38Z" transform="translate(-384.239 -42.224)" fill="none" stroke="#05a8da" stroke-width="1"/>
        <path id="Path_1277" data-name="Path 1277" d="M374.021,2.444q.4.047.8.107h0a.784.784,0,0,0,.125.009.838.838,0,0,0,.123-1.666q-.424-.064-.852-.114a.838.838,0,0,0-.2,1.664Z" transform="translate(-274.368 -0.695)" fill="none" stroke="#05a8da" stroke-width="1"/>
        <path id="Path_1278" data-name="Path 1278" d="M613.21,270.32a.836.836,0,0,0-.835.838v.083q0,.407-.013.81h0a.836.836,0,0,0,.808.863h.026a.836.836,0,0,0,.834-.812q.013-.429.013-.862v-.083A.837.837,0,0,0,613.21,270.32Z" transform="translate(-490.644 -244.534)" fill="none" stroke="#05a8da" stroke-width="1"/>
        <path id="Path_1279" data-name="Path 1279" d="M308.755,1.77a.939.939,0,0,0,.1-.006q.4-.049.8-.086a.838.838,0,0,0-.151-1.669q-.429.039-.854.091a.838.838,0,0,0,.1,1.669Z" transform="translate(-215.238 0)" fill="none" stroke="#05a8da" stroke-width="1"/>
        <path id="Path_1280" data-name="Path 1280" d="M544.547,92.084a.836.836,0,1,0,1.279-1.076q-.275-.331-.561-.652a.831.831,0,0,0-1.178-.068.84.84,0,0,0-.068,1.183q.268.3.528.614Z" transform="translate(-428.627 -81.479)" fill="none" stroke="#05a8da" stroke-width="1"/>
        <path id="Path_1281" data-name="Path 1281" d="M604.677,207.044a.835.835,0,1,0,1.632-.353q-.091-.423-.194-.84a.835.835,0,1,0-1.62.4q.1.392.182.789Z" transform="translate(-483.504 -185.638)" fill="none" stroke="#05a8da" stroke-width="1"/>
        <path id="Path_1282" data-name="Path 1282" d="M603.078,338.8a.832.832,0,0,0,1.029-.58q.116-.415.219-.835a.835.835,0,1,0-1.621-.4q-.1.394-.2.783A.838.838,0,0,0,603.078,338.8Z" transform="translate(-481.694 -304.266)" fill="none" stroke="#05a8da" stroke-width="1"/>
        <path id="Path_1283" data-name="Path 1283" d="M581.569,145.9a.835.835,0,1,0,1.5-.736q-.189-.387-.39-.768a.835.835,0,1,0-1.475.784Q581.392,145.541,581.569,145.9Z" transform="translate(-462.368 -130.22)" fill="none" stroke="#05a8da" stroke-width="1"/>
        <path id="Path_1284" data-name="Path 1284" d="M245.316,15.7a.827.827,0,0,0,.3-.056q.376-.144.757-.276h0a.837.837,0,0,0-.544-1.584q-.407.141-.809.3a.838.838,0,0,0,.3,1.621Z" transform="translate(-157.848 -12.422)" fill="none" stroke="#05a8da" stroke-width="1"/>
        <path id="Path_1285" data-name="Path 1285" d="M301.878,540.512q-.4-.048-.8-.109a.838.838,0,0,0-.251,1.657q.424.064.852.116h0a.893.893,0,0,0,.1.006.838.838,0,0,0,.1-1.67Z" transform="translate(-208.18 -488.85)" fill="none" stroke="#05a8da" stroke-width="1"/>
        <path id="Path_1286" data-name="Path 1286" d="M71.669,264.456q0-.386.012-.769h0a.835.835,0,1,0-1.668-.051c-.008.272-.012.546-.012.833l.835.029H70a.819.819,0,0,0,.834.817.854.854,0,0,0,.835-.858Z" transform="translate(-0.007 -237.748)" fill="none" stroke="#05a8da" stroke-width="1"/>
        <path id="Path_1287" data-name="Path 1287" d="M430.672,525.881q-.376.144-.757.275a.838.838,0,1,0,.54,1.586q.408-.14.81-.294h0a.837.837,0,0,0-.593-1.566Z" transform="translate(-325.082 -475.673)" fill="none" stroke="#05a8da" stroke-width="1"/>
        <path id="Path_1288" data-name="Path 1288" d="M367.023,541.525q-.4.049-.8.084a.838.838,0,0,0,.073,1.672c.025,0,.049,0,.074,0q.43-.038.856-.09h0a.838.838,0,0,0-.2-1.663Z" transform="translate(-267.29 -489.868)" fill="none" stroke="#05a8da" stroke-width="1"/>
        <path id="Path_1289" data-name="Path 1289" d="M182.218,491.019q-.333-.231-.658-.472a.837.837,0,0,0-.99,1.349q.345.255.7.5a.837.837,0,0,0,.948-1.378Z" transform="translate(-99.724 -443.611)" fill="none" stroke="#05a8da" stroke-width="1"/>
        <path id="Path_1290" data-name="Path 1290" d="M239.05,523.1q-.378-.143-.75-.3h0a.837.837,0,0,0-.643,1.546q.4.167.8.32a.838.838,0,0,0,.59-1.568Z" transform="translate(-151.21 -472.882)" fill="none" stroke="#05a8da" stroke-width="1"/>
        <path id="Path_1291" data-name="Path 1291" d="M134.177,445.654a.836.836,0,0,0-1.283,1.072q.275.332.561.655a.836.836,0,1,0,1.247-1.114q-.267-.3-.525-.613Z" transform="translate(-56.728 -402.875)" fill="none" stroke="#05a8da" stroke-width="1"/>
        <path id="Path_1292" data-name="Path 1292" d="M77.6,328.874a.835.835,0,1,0-1.632.349q.09.424.193.842h0a.835.835,0,1,0,1.62-.4q-.1-.392-.181-.789Z" transform="translate(-5.39 -296.904)" fill="none" stroke="#05a8da" stroke-width="1"/>
        <path id="Path_1293" data-name="Path 1293" d="M78.966,198.028a.833.833,0,0,0-1.028.582q-.116.415-.218.836a.835.835,0,1,0,1.621.4q.1-.394.2-.783a.838.838,0,0,0-.58-1.032Z" transform="translate(-6.969 -179.108)" fill="none" stroke="#05a8da" stroke-width="1"/>
        <path id="Path_1294" data-name="Path 1294" d="M98.805,390.751a.835.835,0,0,0-1.5.735q.188.387.388.768a.835.835,0,0,0,1.476-.781q-.188-.357-.364-.721Z" transform="translate(-24.632 -353.055)" fill="none" stroke="#05a8da" stroke-width="1"/>
      </g>
    </g>
  </g>
</svg>
