<svg xmlns="http://www.w3.org/2000/svg" xmlns:xlink="http://www.w3.org/1999/xlink" width="100" height="100" viewBox="0 0 100 100">
  <defs>
    <radialGradient id="radial-gradient" cx="0.543" cy="0.13" r="1.109" gradientTransform="matrix(0.999, 0.039, -0.039, 0.999, 0.005, -0.021)" gradientUnits="objectBoundingBox">
      <stop offset="0" stop-color="#006775"/>
      <stop offset="0.254" stop-color="#006775"/>
      <stop offset="0.647" stop-color="#006775"/>
      <stop offset="1" stop-color="#055661"/>
    </radialGradient>
    <radialGradient id="radial-gradient-2" cx="0.631" cy="0.123" r="1.188" gradientTransform="matrix(0.967, 0.254, -0.254, 0.967, 0.037, -0.131)" gradientUnits="objectBoundingBox">
      <stop offset="0" stop-color="#fff"/>
      <stop offset="0.221" stop-color="#fff8f7"/>
      <stop offset="0.563" stop-color="#f6ffff"/>
      <stop offset="0.983" stop-color="#055661"/>
      <stop offset="1" stop-color="#ffc6bc"/>
    </radialGradient>
  </defs>
  <g id="Very_SEO_friendly" data-name="Very SEO friendly" transform="translate(-618 -106)">
    <g id="Group_133" data-name="Group 133" transform="translate(618 106)">
      <g id="Group_132" data-name="Group 132">
        <path id="Path_626" data-name="Path 626" d="M342.824,166.116l-50.642,28.273a10.54,10.54,0,0,1-14.341-4.065l-28.273-50.642a10.54,10.54,0,0,1,4.065-14.341l50.642-28.273a10.54,10.54,0,0,1,14.341,4.065l28.273,50.642A10.54,10.54,0,0,1,342.824,166.116Z" transform="translate(-248.228 -95.728)" fill="url(#radial-gradient)"/>
        <path id="Path_627" data-name="Path 627" d="M344.338,182.183,288.8,198.894a10.54,10.54,0,0,1-13.13-7.057L258.956,136.3a10.54,10.54,0,0,1,7.056-13.13l55.541-16.711a10.54,10.54,0,0,1,13.13,7.057l16.711,55.541A10.54,10.54,0,0,1,344.338,182.183Z" transform="translate(-255.175 -102.675)" fill="url(#radial-gradient-2)"/>
      </g>
    </g>
    <g id="seo-svgrepo-com" transform="translate(647.078 133.077)">
      <circle id="Ellipse_22" data-name="Ellipse 22" cx="21" cy="21" r="21" transform="translate(-0.077 -0.077)" fill="#006775"/>
      <path id="Path_652" data-name="Path 652" d="M121.251,172.946l-7.665-7.665c-1.847-2.089-6.336-4.7-11.032-.1l-2.244-2.158H94.734v2.831l-1.813-1.9-3.591-.587-1.744,2.572,4.2,4.42.518,4.074-3.056-3.125-2.572,3.539,16.211,16.211a20.933,20.933,0,0,0,18.369-18.092v-.017Z" transform="translate(-79.578 -149.33)" fill="#055661"/>
      <g id="Group_135" data-name="Group 135" transform="translate(21.492 13.171)">
        <path id="Path_653" data-name="Path 653" d="M269.933,161.083h0v.017a6.954,6.954,0,0,0-2.348,13.5,7.21,7.21,0,0,0,2.348.4,6.957,6.957,0,1,0,0-13.915Zm5.2,3.539a6.258,6.258,0,0,1,.984,2.969h-1.243a7.117,7.117,0,0,0-.691-2.641h-.017C274.491,164.846,274.819,164.743,275.13,164.622Zm-.5-.673a8.466,8.466,0,0,1-.88.259,7.046,7.046,0,0,0-2.451-2.279A6.237,6.237,0,0,1,274.629,163.949Zm-2.728,4.489h2.244a6.5,6.5,0,0,1-.535,2.158,16.173,16.173,0,0,0-1.865-.345A15.377,15.377,0,0,0,271.9,168.437Zm-.207-2.987a14.419,14.419,0,0,0,1.761-.311,6.485,6.485,0,0,1,.691,2.451H271.9A14.26,14.26,0,0,0,271.694,165.451Zm1.312-1.07a13.653,13.653,0,0,1-1.467.224,13.041,13.041,0,0,0-.656-2.106A6.177,6.177,0,0,1,273.006,164.38Zm-2.141,1.122a16.2,16.2,0,0,1,.19,2.072H268.9a15.645,15.645,0,0,1,.19-2.054c.259.017.518.017.777.017.328,0,.656-.017.984-.035h.017Zm-3.936-.224h0c.449.086.9.155,1.364.207a20.107,20.107,0,0,0-.207,2.123h-1.778a6.132,6.132,0,0,1,.622-2.313v-.017Zm1.157,3.177h0a15.435,15.435,0,0,0,.155,1.8,12.719,12.719,0,0,0-1.45.224,6.527,6.527,0,0,1-.483-2.02Zm.276,2.624a12.366,12.366,0,0,0,.587,2.054,6.436,6.436,0,0,1-1.778-1.9Q267.767,171.131,268.362,171.079Zm.086-6.422c-.363-.035-.725-.086-1.07-.138a6.383,6.383,0,0,1,1.588-1.606A13.61,13.61,0,0,0,268.449,164.657Zm.794.017h0a12.973,12.973,0,0,1,.721-2.3,13.22,13.22,0,0,1,.725,2.3c-.276.017-.552.017-.829.017-.206,0-.412-.017-.618-.017l0,.017v-.017Zm-.294-2.814c.086.017.19.035.276.052a7.11,7.11,0,0,0-2.607,2.451,11.594,11.594,0,0,1-1.433-.4A6.166,6.166,0,0,1,268.949,161.86Zm-4.264,2.779a13.323,13.323,0,0,0,1.537.483,6.937,6.937,0,0,0-.622,2.469h-1.9A6.192,6.192,0,0,1,264.685,164.639Zm-.984,3.8h1.9a7.016,7.016,0,0,0,.5,2.175l-.017.017a13.93,13.93,0,0,0-1.571.5A5.923,5.923,0,0,1,263.7,168.437Zm5.231,5.749a6.249,6.249,0,0,1-3.971-2.365,12.428,12.428,0,0,1,1.485-.432,7.04,7.04,0,0,0,2.762,2.745C269.122,174.152,269.018,174.169,268.932,174.186Zm1.019-.57a13.465,13.465,0,0,1-.791-2.624h0v-.017l0,.017c.223-.017.464-.017.687-.017.294,0,.6.017.9.017A13.673,13.673,0,0,1,269.951,173.617Zm-.1-3.487c-.276,0-.552,0-.829.017-.069-.552-.121-1.139-.138-1.726h2.141a14.254,14.254,0,0,1-.138,1.744C270.538,170.147,270.192,170.129,269.847,170.129Zm1.778.967a14.515,14.515,0,0,1,1.588.259,6.305,6.305,0,0,1-2.313,2.158A13.538,13.538,0,0,0,271.625,171.1Zm-.311,3a6.954,6.954,0,0,0,2.624-2.572c.311.086.622.19.915.293A6.233,6.233,0,0,1,271.315,174.1Zm3-3.315a7.1,7.1,0,0,0,.57-2.348h1.243a6.161,6.161,0,0,1-.829,2.693C274.974,171.01,274.646,170.889,274.318,170.785Z" transform="translate(-262.976 -161.083)" fill="#00cc96"/>
        <path id="Path_654" data-name="Path 654" d="M317.063,209.914a3.142,3.142,0,1,1-3.142,3.142A3.15,3.15,0,0,1,317.063,209.914Z" transform="translate(-309.761 -205.926)" fill="#00cc96"/>
      </g>
      <g id="Group_136" data-name="Group 136" transform="translate(24.662 16.151)">
        <path id="Path_655" data-name="Path 655" d="M313,211.689l-3.349-5.818a.359.359,0,0,0-.466-.121l-.138.086-.518-.881h-.017a4.1,4.1,0,0,0,1.5-2.555,4.154,4.154,0,1,0-2.555,3.159l.518.881-.138.086a.359.359,0,0,0-.121.466l3.349,5.818a.359.359,0,0,0,.466.121l1.347-.777A.359.359,0,0,0,313,211.689Zm-7.008-7.033a2.991,2.991,0,1,1,2.991-2.991A2.991,2.991,0,0,1,305.995,204.657Z" transform="translate(-301.792 -197.578)" fill="#f7f7f8"/>
        <path id="Path_656" data-name="Path 656" d="M324.872,218.391h0a.2.2,0,0,1-.224.173.2.2,0,0,1-.155-.19h0c0-.035.017-.069.017-.121a2.338,2.338,0,0,1,2.676-1.916c.035,0,.069.017.1.017h.017a.2.2,0,0,1,.173.242.215.215,0,0,1-.242.173h0a.294.294,0,0,0-.121-.017,1.929,1.929,0,0,0-2.21,1.571.131.131,0,0,1-.017.069h-.017Z" transform="translate(-322.638 -214.776)" fill="#f7f7f8"/>
      </g>
      <path id="Path_657" data-name="Path 657" d="M375.4,297.1l-1.226.708-.138.086a.35.35,0,0,0-.121.466l3.349,5.818a.35.35,0,0,0,.466.121l1.347-.777a.35.35,0,0,0,.121-.466l-3.349-5.818a.336.336,0,0,0-.432-.138Z" transform="translate(-343.324 -272.789)" fill="#e84f4f"/>
      <path id="Path_658" data-name="Path 658" d="M385.012,297.264l.138-.086a.359.359,0,0,1,.466.121l3.349,5.818a.359.359,0,0,1-.121.466l-.673.4-3.643-6.439Z" transform="translate(-353.11 -272.854)" fill="#c94545"/>
      <path id="Path_659" data-name="Path 659" d="M84.652,167.021V166.5a5.588,5.588,0,0,0-.311-2.21,2.415,2.415,0,0,0-1.226-1.088,5.5,5.5,0,0,0-2.262-.432,4.774,4.774,0,0,0-2.072.4,2.585,2.585,0,0,0-1.243,1.088,4.7,4.7,0,0,0-.38,2.193,4.428,4.428,0,0,0,.276,1.709,3,3,0,0,0,.673,1.053,15.851,15.851,0,0,0,1.675,1.226,9.89,9.89,0,0,1,1.588,1.191,2.479,2.479,0,0,1,.311,1.5,1.466,1.466,0,0,1-.173.794.546.546,0,0,1-.5.259.506.506,0,0,1-.466-.207,2.1,2.1,0,0,1-.138-.95V171.44H77.245v.863a6.886,6.886,0,0,0,.294,2.262,2.565,2.565,0,0,0,1.26,1.312,4.843,4.843,0,0,0,2.331.518,5.043,5.043,0,0,0,2.175-.449,2.608,2.608,0,0,0,1.26-1.1,4.78,4.78,0,0,0,.328-2.054,5.005,5.005,0,0,0-.587-2.78,9.933,9.933,0,0,0-2.848-2.21,2.917,2.917,0,0,1-.967-.794,2.138,2.138,0,0,1-.173-.984,1.469,1.469,0,0,1,.155-.76A.509.509,0,0,1,80.94,165a.428.428,0,0,1,.4.19,1.822,1.822,0,0,1,.121.863v.967h3.194Zm1.364-3.971v13.069h5.9v-2.607h-2.5v-2.883H91.54v-2.486H89.416v-2.5h2.262v-2.607H86.015Z" transform="translate(-70.842 -149.465)" fill="#00cc96"/>
    </g>
  </g>
</svg>
