<svg xmlns="http://www.w3.org/2000/svg" xmlns:xlink="http://www.w3.org/1999/xlink" width="100" height="100" viewBox="0 0 100 100">
  <defs>
    <radialGradient id="radial-gradient" cx="0.543" cy="0.13" r="1.109" gradientTransform="matrix(0.999, 0.039, -0.039, 0.999, 0.005, -0.021)" gradientUnits="objectBoundingBox">
      <stop offset="0" stop-color="#7eaecf"/>
      <stop offset="0.254" stop-color="#3e759b"/>
      <stop offset="0.647" stop-color="#609dc6"/>
      <stop offset="1" stop-color="#23475b"/>
    </radialGradient>
    <radialGradient id="radial-gradient-2" cx="0.631" cy="0.123" r="1.188" gradientTransform="matrix(0.967, 0.254, -0.254, 0.967, 0.037, -0.131)" gradientUnits="objectBoundingBox">
      <stop offset="0" stop-color="#fff"/>
      <stop offset="0.221" stop-color="#fff8f7"/>
      <stop offset="0.563" stop-color="#f6ffff"/>
      <stop offset="0.983" stop-color="#7eaecf"/>
      <stop offset="1" stop-color="#ffc6bc"/>
    </radialGradient>
  </defs>
  <g id="_Transparency" data-name=" Transparency" transform="translate(-1274.821 -1692)">
    <g id="Work_On_All_The_Major_Platforms" data-name="Work On All The Major Platforms" transform="translate(652 154.321)">
      <path id="Path_760" data-name="Path 760" d="M342.824,166.116l-50.642,28.273a10.54,10.54,0,0,1-14.341-4.065l-28.273-50.642a10.54,10.54,0,0,1,4.065-14.341l50.642-28.273a10.54,10.54,0,0,1,14.341,4.065l28.273,50.642A10.54,10.54,0,0,1,342.824,166.116Z" transform="translate(374.593 1441.951)" fill="url(#radial-gradient)"/>
      <path id="Path_761" data-name="Path 761" d="M344.338,182.183,288.8,198.894a10.54,10.54,0,0,1-13.13-7.057L258.956,136.3a10.54,10.54,0,0,1,7.056-13.13l55.541-16.711a10.54,10.54,0,0,1,13.13,7.057l16.711,55.541A10.54,10.54,0,0,1,344.338,182.183Z" transform="translate(367.646 1435.004)" fill="url(#radial-gradient-2)"/>
    </g>
    <g id="noun-transparent-2736825" transform="translate(1203.305 1693.577)">
      <path id="Path_2085" data-name="Path 2085" d="M459.193,187.022a16.007,16.007,0,0,1,1.661.6,1.362,1.362,0,0,0,1.061-2.508,18.763,18.763,0,0,0-1.943-.7,1.361,1.361,0,0,0-.779,2.609Z" transform="translate(-323.624 -144.285)" fill="rgba(88,180,255,0.38)"/>
      <path id="Path_2086" data-name="Path 2086" d="M383.9,508.029l-.329,0a16.226,16.226,0,0,1-3.042-.288,1.324,1.324,0,0,0-.26-.025,1.362,1.362,0,0,0-.254,2.7,18.87,18.87,0,0,0,3.553.336h.06c.1,0,.2,0,.3,0a1.361,1.361,0,0,0-.026-2.723Z" transform="translate(-252.605 -433.852)" fill="rgba(88,180,255,0.38)"/>
      <path id="Path_2087" data-name="Path 2087" d="M270.262,430.765a1.361,1.361,0,0,0-1.87-.461,1.361,1.361,0,0,0-.461,1.869,18.867,18.867,0,0,0,2.369,3.13,1.361,1.361,0,0,0,1.924.064,1.361,1.361,0,0,0,.065-1.925,16.117,16.117,0,0,1-2.026-2.677Z" transform="translate(-153.045 -364.351)" fill="rgba(88,180,255,0.38)"/>
      <path id="Path_2088" data-name="Path 2088" d="M320.176,482.588a16.057,16.057,0,0,1-2.936-1.625,1.361,1.361,0,0,0-1.561,2.231,18.787,18.787,0,0,0,3.438,1.9,1.361,1.361,0,0,0,1.06-2.508Z" transform="translate(-195.459 -409.672)" fill="rgba(88,180,255,0.38)"/>
      <path id="Path_2089" data-name="Path 2089" d="M553.3,259.112a1.353,1.353,0,0,0,.156,1.03,15.982,15.982,0,0,1,1.422,3.039,1.361,1.361,0,1,0,2.573-.89,18.755,18.755,0,0,0-1.664-3.555,1.361,1.361,0,0,0-2.487.376Z" transform="translate(-408.734 -210.301)" fill="rgba(88,180,255,0.38)"/>
      <path id="Path_2090" data-name="Path 2090" d="M578.59,324.766a1.362,1.362,0,0,0-2.7.333,16.212,16.212,0,0,1,.12,1.974c0,.465-.02.931-.058,1.384a1.36,1.36,0,0,0,1.233,1.472,1.18,1.18,0,0,0,.125.006,1.353,1.353,0,0,0,1.355-1.246c.046-.534.069-1.078.069-1.616a18.846,18.846,0,0,0-.14-2.308Z" transform="translate(-428.983 -268.949)" fill="rgba(88,180,255,0.38)"/>
      <path id="Path_2091" data-name="Path 2091" d="M559.524,392.67a1.379,1.379,0,0,0-.395-.058,1.356,1.356,0,0,0-1.3.966,15.942,15.942,0,0,1-1.309,3.089,1.362,1.362,0,1,0,2.382,1.32,18.751,18.751,0,0,0,1.532-3.618,1.366,1.366,0,0,0-.907-1.7Z" transform="translate(-411.494 -330.775)" fill="rgba(88,180,255,0.38)"/>
      <path id="Path_2092" data-name="Path 2092" d="M514.931,453.25a1.359,1.359,0,0,0-1.028.469,16.19,16.19,0,0,1-2.453,2.294,1.36,1.36,0,0,0-.265,1.907,1.363,1.363,0,0,0,1.907.265,18.9,18.9,0,0,0,2.867-2.681,1.362,1.362,0,0,0-1.028-2.254Z" transform="translate(-370.805 -385.076)" fill="rgba(88,180,255,0.38)"/>
      <path id="Path_2093" data-name="Path 2093" d="M453,495.049a1.355,1.355,0,0,0-.578.129,15.944,15.944,0,0,1-3.17,1.1,1.361,1.361,0,0,0,.306,2.688,1.283,1.283,0,0,0,.308-.036,18.664,18.664,0,0,0,3.712-1.282,1.361,1.361,0,0,0,.655-1.811,1.368,1.368,0,0,0-1.233-.783Z" transform="translate(-314.644 -422.506)" fill="rgba(88,180,255,0.38)"/>
      <path id="Path_2094" data-name="Path 2094" d="M509.071,212.13a1.362,1.362,0,1,0,1.99-1.859A18.938,18.938,0,0,0,508.1,207.7a1.362,1.362,0,1,0-1.562,2.231,16.219,16.219,0,0,1,2.534,2.2Z" transform="translate(-366.37 -164.967)" fill="rgba(88,180,255,0.38)"/>
      <path id="Path_2095" data-name="Path 2095" d="M115.782,63.346a16.179,16.179,0,0,1-.48-1.7,1.355,1.355,0,0,0-.652-.884q.475.024.955.024A18.8,18.8,0,0,0,134.383,42.01c0-.378-.015-.787-.045-1.223,0-.043,0-.084-.008-.126a18.776,18.776,0,1,0-20.811,20.008,1.349,1.349,0,0,0-.874,1.574,18.861,18.861,0,0,0,.562,1.987,1.361,1.361,0,1,0,2.575-.884ZM115.6,25.954a16.078,16.078,0,0,1,15.83,13.4c-.158,0-.314-.006-.465-.006A18.8,18.8,0,0,0,112.2,57.7,16.054,16.054,0,0,1,115.6,25.954Zm0,32.11c-.22,0-.449-.006-.69-.017A16.074,16.074,0,0,1,130.97,42.067c.216,0,.442.006.69.018a16.073,16.073,0,0,1-16.054,15.978Z" fill="#348fd9"/>
    </g>
  </g>
</svg>
