<svg width="100" height="100" viewBox="0 0 100 100" xmlns="http://www.w3.org/2000/svg"><title>design-categories-merchandise-design</title><g fill="none" fill-rule="evenodd"><path d="M62.21 93H29.417c-2.47 0-4.472-1.991-4.472-4.448V54.448h41.739v34.104c0 2.457-2.002 4.448-4.472 4.448" fill="#F4F4F4" fill-rule="nonzero"/><path d="M62.21 93H29.417c-2.47 0-4.472-1.991-4.472-4.448V54.448h41.739v34.104c0 2.457-2.002 4.448-4.472 4.448z" stroke="#5D6D81" stroke-width="2" stroke-linecap="round" stroke-linejoin="round"/><path d="M66.683 54.448H24.944c-2.47 0-4.472-1.991-4.472-4.448 0-2.457 2.002-4.448 4.472-4.448h41.739c2.47 0 4.472 1.991 4.472 4.448 0 2.457-2.002 4.448-4.472 4.448z" stroke="#5D6D81" stroke-width="2" fill="#6E8097" stroke-linecap="round" stroke-linejoin="round"/><path fill="#EBB200" fill-rule="nonzero" d="M39.85 45.552h11.926V20.345H39.851z"/><path stroke="#5D6D81" stroke-width="2" stroke-linecap="round" stroke-linejoin="round" d="M39.85 45.552h11.926V20.345H39.851z"/><path d="M45.813 7l-2.237 2.783a16.844 16.844 0 0 0-3.725 10.562h11.925c0-3.839-1.313-7.565-3.725-10.562L45.813 7z" stroke="#5D6D81" stroke-width="2" fill="#6E8097" stroke-linecap="round" stroke-linejoin="round"/><path d="M45.813 20.345v25.207" stroke="#5D6D81" stroke-width="2" stroke-linecap="round" stroke-linejoin="round"/><path stroke="#5D6D81" stroke-width="2" fill="#F08481" stroke-linecap="round" stroke-linejoin="round" d="M68.695 35.619l-11.519-3.071 4.629-17.187 11.52 3.07z"/><path d="M73.324 18.432l4.32 1.15" stroke="#5D6D81" stroke-width="2" stroke-linecap="round" stroke-linejoin="round"/><path d="M76.666 34.673l-1.44-.384a1.482 1.482 0 0 1-1.054-1.817l4.244-15.754a1.492 1.492 0 0 1 1.826-1.048l1.44.384a1.482 1.482 0 0 1 1.054 1.816l-4.244 15.755a1.493 1.493 0 0 1-1.826 1.048zm-3.342-16.241L61.806 15.36l1.157-4.296a1.49 1.49 0 0 1 1.826-1.048l8.638 2.303a1.48 1.48 0 0 1 1.054 1.815l-1.157 4.297zm-44.171.278l-11.518 3.071-.773-2.865c-.852-3.164 1.037-6.417 4.216-7.264 3.181-.848 6.452 1.03 7.303 4.194l.772 2.864z" stroke="#5D6D81" stroke-width="2" fill="#F08481" stroke-linecap="round" stroke-linejoin="round"/><path d="M24.944 45.552h11.44l-7.23-26.841-11.52 3.07 6.428 23.86a4.43 4.43 0 0 1 .882-.09" fill="#5BAADC" fill-rule="nonzero"/><path d="M24.944 45.552h11.44l-7.23-26.841-11.52 3.07 6.428 23.86a4.43 4.43 0 0 1 .882-.09z" stroke="#5D6D81" stroke-width="2" stroke-linecap="round" stroke-linejoin="round"/><path fill="#F08481" fill-rule="nonzero" d="M64.475 45.552l2.779-10.317-8.638-2.303-3.4 12.62z"/><path stroke="#5D6D81" stroke-width="2" stroke-linecap="round" stroke-linejoin="round" d="M64.475 45.552l2.779-10.317-8.638-2.303-3.4 12.62z"/><path fill="#FFF" fill-rule="nonzero" d="M40.08 82.413h26.832V64.62H40.08z"/><path d="M60.27 73.04a.17.17 0 0 1 .073.329c-1.022.337-3.773 1.392-4.213 2.204-.462.852.784 3.145 1.303 3.956a.171.171 0 0 1-.046.232.164.164 0 0 1-.228-.04c-.018-.025-1.744-2.447-3.403-2.28-.965.098-2.652 2.485-3.22 3.397a.166.166 0 0 1-.222.057.171.171 0 0 1-.069-.222c.39-.817 1.276-3.1.696-3.845-1.241-1.595-4.239-.708-4.27-.7a.166.166 0 0 1-.205-.11.17.17 0 0 1 .106-.212c.877-.297 3.186-1.237 3.437-2.045-.089-1.54-2.136-3.289-2.157-3.306a.171.171 0 0 1-.024-.236.164.164 0 0 1 .231-.029c.027.021 2.648 2.048 4.515 1.434 2.064-.677 3.047-3.563 3.057-3.592a.166.166 0 0 1 .2-.11.17.17 0 0 1 .12.197c-.007.035-.681 3.546.2 4.703.384.504 2.73.4 4.12.218zm-1.845-2.86a1.23 1.23 0 0 1 .368 1.713 1.263 1.263 0 0 1-1.734.364 1.229 1.229 0 0 1-.369-1.712 1.263 1.263 0 0 1 1.735-.365zm-9.679 2.426a.92.92 0 0 1 .276 1.284.945.945 0 0 1-1.3.273.92.92 0 0 1-.276-1.284.946.946 0 0 1 1.3-.273zm.884 4.127c.387.279.497.854.246 1.284-.252.431-.769.553-1.157.273-.387-.279-.496-.853-.245-1.283.251-.43.768-.553 1.156-.274zm5.128 1.874c.485.31.622.95.308 1.427-.314.478-.96.614-1.445.303a1.023 1.023 0 0 1-.307-1.426c.314-.478.96-.614 1.444-.304zm3.553-3.302c.484.31.621.95.307 1.427-.314.478-.96.614-1.445.304a1.024 1.024 0 0 1-.308-1.427 1.053 1.053 0 0 1 1.446-.304zm-5.32-6.776c.582.373.747 1.139.37 1.713a1.263 1.263 0 0 1-1.734.364 1.228 1.228 0 0 1-.37-1.712 1.262 1.262 0 0 1 1.734-.365z" fill="#5D6D81" fill-rule="nonzero"/><path stroke="#5D6D81" stroke-width="2" stroke-linecap="round" stroke-linejoin="round" d="M39.85 82.62h26.833V64.829H39.85z"/></g></svg>